<mxfile host="app.diagrams.net" modified="2022-07-13T21:19:25.055Z" agent="5.0 (Macintosh; Intel Mac OS X 10_15_7) AppleWebKit/537.36 (KHTML, like Gecko) Chrome/103.0.0.0 Safari/537.36" etag="3Cm5_dzorZ3XKtgsaE9Y" version="20.0.4" type="github">
  <diagram name="Page-1" id="12e1b939-464a-85fe-373e-61e167be1490">
    <mxGraphModel dx="4604" dy="545" grid="1" gridSize="10" guides="1" tooltips="1" connect="1" arrows="1" fold="1" page="1" pageScale="1.5" pageWidth="1169" pageHeight="826" background="none" math="0" shadow="0">
      <root>
        <mxCell id="0" />
        <mxCell id="1" parent="0" />
        <mxCell id="lp30ke_QN_qT75AE9xBC-16" value="" style="rounded=0;whiteSpace=wrap;html=1;strokeColor=#666666;strokeWidth=1;fillColor=#f5f5f5;fontColor=#333333;" parent="1" vertex="1">
          <mxGeometry x="30" width="530" height="380" as="geometry" />
        </mxCell>
        <mxCell id="qmw6B0IrS7JW3fWLSJjM-4" value="" style="rounded=0;whiteSpace=wrap;html=1;fillColor=#dae8fc;strokeColor=default;gradientColor=none;" vertex="1" parent="1">
          <mxGeometry x="-120" y="240" width="320" height="80" as="geometry" />
        </mxCell>
        <mxCell id="lp30ke_QN_qT75AE9xBC-15" style="edgeStyle=orthogonalEdgeStyle;rounded=0;orthogonalLoop=1;jettySize=auto;html=1;entryX=1;entryY=0.5;entryDx=0;entryDy=0;strokeColor=#FC003A;strokeWidth=3;" parent="1" source="lp30ke_QN_qT75AE9xBC-2" target="lp30ke_QN_qT75AE9xBC-6" edge="1">
          <mxGeometry relative="1" as="geometry">
            <Array as="points">
              <mxPoint x="590" y="80" />
              <mxPoint x="590" y="80" />
            </Array>
          </mxGeometry>
        </mxCell>
        <mxCell id="WXV94lYlLDjN6gnBJHbP-16" value="" style="edgeStyle=orthogonalEdgeStyle;rounded=0;orthogonalLoop=1;jettySize=auto;html=1;fillColor=#fff2cc;strokeColor=#d6b656;strokeWidth=2;" parent="1" source="WXV94lYlLDjN6gnBJHbP-8" target="WXV94lYlLDjN6gnBJHbP-9" edge="1">
          <mxGeometry relative="1" as="geometry" />
        </mxCell>
        <mxCell id="WXV94lYlLDjN6gnBJHbP-8" value="Neural data generattion" style="rounded=0;whiteSpace=wrap;html=1;fillColor=#fff2cc;strokeColor=#d6b656;fontSize=16;" parent="1" vertex="1">
          <mxGeometry x="40" y="120" width="120" height="50" as="geometry" />
        </mxCell>
        <mxCell id="WXV94lYlLDjN6gnBJHbP-15" value="" style="edgeStyle=orthogonalEdgeStyle;rounded=0;orthogonalLoop=1;jettySize=auto;html=1;fillColor=#fff2cc;strokeColor=#d6b656;strokeWidth=2;" parent="1" source="WXV94lYlLDjN6gnBJHbP-9" target="WXV94lYlLDjN6gnBJHbP-10" edge="1">
          <mxGeometry relative="1" as="geometry" />
        </mxCell>
        <mxCell id="WXV94lYlLDjN6gnBJHbP-9" value="&lt;br&gt;EEG data&lt;br&gt;&amp;nbsp;Acquisition&lt;br&gt;&lt;span style=&quot;color: rgba(0, 0, 0, 0); font-family: monospace; font-size: 16px; text-align: start;&quot;&gt;%3CmxGraphModel%3E%3Croot%3E%3CmxCell%20id%3D%220%22%2F%3E%3CmxCell%20id%3D%221%22%20parent%3D%220%22%2F%3E%3CmxCell%20id%3D%222%22%20value%3D%22Neural%20data%20generattion%22%20style%3D%22rounded%3D0%3BwhiteSpace%3Dwrap%3Bhtml%3D1%3B%22%20vertex%3D%221%22%20parent%3D%221%22%3E%3CmxGeometry%20x%3D%2240%22%20y%3D%2240%22%20width%3D%22120%22%20height%3D%2240%22%20as%3D%22geometry%22%2F%3E%3C%2FmxCell%3E%3C%2Froot%3E%3C%2FmxGraphModel%3E&lt;/span&gt;" style="rounded=0;whiteSpace=wrap;html=1;fillColor=#fff2cc;strokeColor=#d6b656;fontSize=16;" parent="1" vertex="1">
          <mxGeometry x="200" y="120" width="140" height="50" as="geometry" />
        </mxCell>
        <mxCell id="WXV94lYlLDjN6gnBJHbP-14" value="" style="edgeStyle=orthogonalEdgeStyle;rounded=0;orthogonalLoop=1;jettySize=auto;html=1;fillColor=#fff2cc;strokeColor=#d6b656;strokeWidth=2;" parent="1" source="WXV94lYlLDjN6gnBJHbP-10" target="WXV94lYlLDjN6gnBJHbP-11" edge="1">
          <mxGeometry relative="1" as="geometry" />
        </mxCell>
        <mxCell id="WXV94lYlLDjN6gnBJHbP-10" value="Data Preprocessing" style="rounded=0;whiteSpace=wrap;html=1;fillColor=#fff2cc;strokeColor=#d6b656;fontSize=16;" parent="1" vertex="1">
          <mxGeometry x="360" y="120" width="140" height="50" as="geometry" />
        </mxCell>
        <mxCell id="WXV94lYlLDjN6gnBJHbP-13" value="" style="edgeStyle=orthogonalEdgeStyle;rounded=0;orthogonalLoop=1;jettySize=auto;html=1;entryX=1;entryY=0.5;entryDx=0;entryDy=0;fillColor=#fff2cc;strokeColor=#d6b656;strokeWidth=2;" parent="1" source="WXV94lYlLDjN6gnBJHbP-11" target="WXV94lYlLDjN6gnBJHbP-12" edge="1">
          <mxGeometry relative="1" as="geometry">
            <Array as="points">
              <mxPoint x="420" y="280" />
            </Array>
          </mxGeometry>
        </mxCell>
        <mxCell id="WXV94lYlLDjN6gnBJHbP-11" value="Data Decoding and Translation" style="rounded=0;whiteSpace=wrap;html=1;fillColor=#fff2cc;strokeColor=#d6b656;fontSize=16;" parent="1" vertex="1">
          <mxGeometry x="360" y="200" width="140" height="40" as="geometry" />
        </mxCell>
        <mxCell id="WXV94lYlLDjN6gnBJHbP-18" value="" style="edgeStyle=orthogonalEdgeStyle;rounded=0;orthogonalLoop=1;jettySize=auto;html=1;fillColor=#fff2cc;strokeColor=#d6b656;strokeWidth=2;" parent="1" source="WXV94lYlLDjN6gnBJHbP-12" target="WXV94lYlLDjN6gnBJHbP-17" edge="1">
          <mxGeometry relative="1" as="geometry" />
        </mxCell>
        <mxCell id="WXV94lYlLDjN6gnBJHbP-12" value="Application Performing action" style="whiteSpace=wrap;html=1;rounded=0;fillColor=#fff2cc;strokeColor=#d6b656;fontSize=16;" parent="1" vertex="1">
          <mxGeometry x="260" y="250" width="120" height="60" as="geometry" />
        </mxCell>
        <mxCell id="WXV94lYlLDjN6gnBJHbP-19" value="" style="edgeStyle=orthogonalEdgeStyle;rounded=0;orthogonalLoop=1;jettySize=auto;html=1;fillColor=#fff2cc;strokeColor=#d6b656;strokeWidth=2;" parent="1" source="WXV94lYlLDjN6gnBJHbP-17" target="WXV94lYlLDjN6gnBJHbP-8" edge="1">
          <mxGeometry relative="1" as="geometry">
            <Array as="points">
              <mxPoint x="120" y="180" />
              <mxPoint x="120" y="180" />
            </Array>
          </mxGeometry>
        </mxCell>
        <mxCell id="WXV94lYlLDjN6gnBJHbP-17" value="Visual/ Audio Feedback" style="whiteSpace=wrap;html=1;rounded=0;fillColor=#fff2cc;strokeColor=#d6b656;fontSize=16;" parent="1" vertex="1">
          <mxGeometry x="60" y="260" width="120" height="40" as="geometry" />
        </mxCell>
        <mxCell id="WXV94lYlLDjN6gnBJHbP-21" value="&lt;font style=&quot;font-size: 16px;&quot;&gt;Feedback as stimuli&lt;/font&gt;" style="text;html=1;strokeColor=none;fillColor=none;align=center;verticalAlign=middle;whiteSpace=wrap;rounded=0;" parent="1" vertex="1">
          <mxGeometry x="120" y="190" width="100" height="30" as="geometry" />
        </mxCell>
        <mxCell id="qmw6B0IrS7JW3fWLSJjM-7" style="edgeStyle=orthogonalEdgeStyle;rounded=0;orthogonalLoop=1;jettySize=auto;html=1;entryX=-0.929;entryY=1;entryDx=0;entryDy=0;entryPerimeter=0;fontSize=16;strokeColor=#001DBC;strokeWidth=2;fillColor=#0050ef;" edge="1" parent="1" source="WXV94lYlLDjN6gnBJHbP-22" target="WXV94lYlLDjN6gnBJHbP-9">
          <mxGeometry relative="1" as="geometry">
            <Array as="points">
              <mxPoint x="-20" y="207" />
              <mxPoint x="70" y="207" />
            </Array>
          </mxGeometry>
        </mxCell>
        <mxCell id="WXV94lYlLDjN6gnBJHbP-22" value="External Stimuli" style="ellipse;whiteSpace=wrap;html=1;aspect=fixed;fillColor=#0050ef;strokeColor=#001DBC;fontSize=16;fontColor=#ffffff;" parent="1" vertex="1">
          <mxGeometry x="-50" y="245" width="70" height="70" as="geometry" />
        </mxCell>
        <mxCell id="lp30ke_QN_qT75AE9xBC-7" style="edgeStyle=orthogonalEdgeStyle;rounded=0;orthogonalLoop=1;jettySize=auto;html=1;entryX=0.5;entryY=0;entryDx=0;entryDy=0;fillColor=#e51400;strokeColor=#FC003A;strokeWidth=3;" parent="1" source="lp30ke_QN_qT75AE9xBC-6" target="WXV94lYlLDjN6gnBJHbP-10" edge="1">
          <mxGeometry relative="1" as="geometry" />
        </mxCell>
        <mxCell id="lp30ke_QN_qT75AE9xBC-8" style="edgeStyle=orthogonalEdgeStyle;rounded=0;orthogonalLoop=1;jettySize=auto;html=1;fillColor=#e51400;strokeColor=#FC003A;strokeWidth=3;" parent="1" source="lp30ke_QN_qT75AE9xBC-6" edge="1">
          <mxGeometry relative="1" as="geometry">
            <mxPoint x="380" y="290" as="targetPoint" />
            <Array as="points">
              <mxPoint x="520" y="290" />
            </Array>
          </mxGeometry>
        </mxCell>
        <mxCell id="lp30ke_QN_qT75AE9xBC-9" style="edgeStyle=orthogonalEdgeStyle;rounded=0;orthogonalLoop=1;jettySize=auto;html=1;fillColor=#e51400;strokeColor=#FC003A;strokeWidth=3;entryX=0.68;entryY=-0.007;entryDx=0;entryDy=0;entryPerimeter=0;" parent="1" source="lp30ke_QN_qT75AE9xBC-6" edge="1" target="WXV94lYlLDjN6gnBJHbP-8">
          <mxGeometry relative="1" as="geometry">
            <mxPoint x="130" y="80" as="targetPoint" />
            <Array as="points">
              <mxPoint x="122" y="80" />
            </Array>
          </mxGeometry>
        </mxCell>
        <mxCell id="lp30ke_QN_qT75AE9xBC-11" style="edgeStyle=orthogonalEdgeStyle;rounded=0;orthogonalLoop=1;jettySize=auto;html=1;entryX=0.658;entryY=-0.025;entryDx=0;entryDy=0;entryPerimeter=0;fillColor=#e51400;strokeColor=#FC003A;strokeWidth=3;" parent="1" source="lp30ke_QN_qT75AE9xBC-6" target="WXV94lYlLDjN6gnBJHbP-9" edge="1">
          <mxGeometry relative="1" as="geometry" />
        </mxCell>
        <mxCell id="lp30ke_QN_qT75AE9xBC-12" style="edgeStyle=orthogonalEdgeStyle;rounded=0;orthogonalLoop=1;jettySize=auto;html=1;entryX=1;entryY=0.75;entryDx=0;entryDy=0;fillColor=#e51400;strokeColor=#FC003A;strokeWidth=3;" parent="1" source="lp30ke_QN_qT75AE9xBC-6" target="WXV94lYlLDjN6gnBJHbP-11" edge="1">
          <mxGeometry relative="1" as="geometry">
            <Array as="points">
              <mxPoint x="520" y="230" />
            </Array>
          </mxGeometry>
        </mxCell>
        <mxCell id="qmw6B0IrS7JW3fWLSJjM-5" style="edgeStyle=orthogonalEdgeStyle;rounded=0;orthogonalLoop=1;jettySize=auto;html=1;entryX=0.5;entryY=1;entryDx=0;entryDy=0;strokeWidth=3;strokeColor=#FC003A;" edge="1" parent="1" source="lp30ke_QN_qT75AE9xBC-6" target="WXV94lYlLDjN6gnBJHbP-17">
          <mxGeometry relative="1" as="geometry">
            <Array as="points">
              <mxPoint x="520" y="350" />
              <mxPoint x="120" y="350" />
            </Array>
          </mxGeometry>
        </mxCell>
        <mxCell id="qmw6B0IrS7JW3fWLSJjM-6" style="edgeStyle=orthogonalEdgeStyle;rounded=0;orthogonalLoop=1;jettySize=auto;html=1;strokeColor=#FC003A;strokeWidth=3;" edge="1" parent="1" source="lp30ke_QN_qT75AE9xBC-6" target="WXV94lYlLDjN6gnBJHbP-22">
          <mxGeometry relative="1" as="geometry">
            <Array as="points">
              <mxPoint x="520" y="350" />
              <mxPoint x="-15" y="350" />
            </Array>
          </mxGeometry>
        </mxCell>
        <mxCell id="lp30ke_QN_qT75AE9xBC-6" value="" style="ellipse;whiteSpace=wrap;html=1;aspect=fixed;strokeColor=#FC003A;strokeWidth=2;fillColor=#FC003A;gradientColor=none;" parent="1" vertex="1">
          <mxGeometry x="510" y="70" width="20" height="20" as="geometry" />
        </mxCell>
        <mxCell id="lp30ke_QN_qT75AE9xBC-17" value="BCI System" style="text;html=1;strokeColor=none;fillColor=#fad7ac;align=center;verticalAlign=middle;whiteSpace=wrap;rounded=0;" parent="1" vertex="1">
          <mxGeometry x="30" width="120" height="30" as="geometry" />
        </mxCell>
        <mxCell id="fKmO6XITlAZP44xQ1bdY-1" value="&lt;font color=&quot;#fc003a&quot;&gt;Attacks&lt;/font&gt;" style="text;html=1;strokeColor=none;fillColor=none;align=center;verticalAlign=middle;whiteSpace=wrap;rounded=0;" parent="1" vertex="1">
          <mxGeometry x="450" y="50" width="60" height="30" as="geometry" />
        </mxCell>
        <mxCell id="qmw6B0IrS7JW3fWLSJjM-8" value="&lt;font style=&quot;font-size: 12px;&quot;&gt;Actuation&lt;/font&gt;" style="text;html=1;strokeColor=none;fillColor=none;align=center;verticalAlign=middle;whiteSpace=wrap;rounded=0;strokeWidth=2;" vertex="1" parent="1">
          <mxGeometry x="180" y="260" width="100" height="30" as="geometry" />
        </mxCell>
        <mxCell id="qmw6B0IrS7JW3fWLSJjM-9" value="Environment" style="text;html=1;strokeColor=#001DBC;fillColor=#0050ef;align=center;verticalAlign=middle;whiteSpace=wrap;rounded=0;fontColor=#ffffff;" vertex="1" parent="1">
          <mxGeometry x="-120" y="240" width="70" height="20" as="geometry" />
        </mxCell>
        <mxCell id="qmw6B0IrS7JW3fWLSJjM-11" value="" style="shape=mxgraph.signs.healthcare.brain;html=1;pointerEvents=1;verticalLabelPosition=bottom;verticalAlign=top;align=center;fontSize=12;fillColor=#f0a30a;fontColor=#000000;strokeColor=#BD7000;" vertex="1" parent="1">
          <mxGeometry x="40" y="84" width="50" height="36" as="geometry" />
        </mxCell>
        <mxCell id="qmw6B0IrS7JW3fWLSJjM-13" value="" style="group" vertex="1" connectable="0" parent="1">
          <mxGeometry x="630" y="30" width="120" height="108" as="geometry" />
        </mxCell>
        <mxCell id="qmw6B0IrS7JW3fWLSJjM-14" value="" style="group" vertex="1" connectable="0" parent="qmw6B0IrS7JW3fWLSJjM-13">
          <mxGeometry x="-30" y="-4" width="120" height="108" as="geometry" />
        </mxCell>
        <mxCell id="lp30ke_QN_qT75AE9xBC-2" value="" style="rounded=0;whiteSpace=wrap;html=1;fillColor=none;strokeColor=#FC003A;fontColor=#ffffff;gradientColor=#ffffff;strokeWidth=2;" parent="qmw6B0IrS7JW3fWLSJjM-14" vertex="1">
          <mxGeometry width="120" height="108" as="geometry" />
        </mxCell>
        <mxCell id="lp30ke_QN_qT75AE9xBC-1" value="" style="shape=image;verticalLabelPosition=bottom;labelBackgroundColor=default;verticalAlign=top;aspect=fixed;imageAspect=0;image=data:image/png,iVBORw0KGgoAAAANSUhEUgAACxIAAA06CAYAAAD/x++IAAAACXBIWXMAAC4jAAAuIwF4pT92AAAAGXRFWHRTb2Z0d2FyZQBBZG9iZSBJbWFnZVJlYWR5ccllPAAB7dVJREFUeNrs3S10W3eeBuB/bGK2Gha21yxsZVY216xsHTasGrasHjYsGjTL3EEd5izKDrKDcoKkRVtml5VZgYuqsg3a/f3n3kzz4cSyfCXdj+c55z1q2jln2jfWbXL60+tHCQAAAAAAgCaMI6P3Xv85UtR/rXjvj1e1qLOM/Pjej+eqBgAAAKAJj1QAAAAAAABwL2WqjoX/uX4t0v2PhB/qOlUHxfnA+DJVx8YAAAAAcC8OiQEAAACgvd4tWmblR3/ttw3/f+WDtF/e+/Gy/nPv/3VHasDQvFsXzs/gf0m/Hg230bvD4v/46PkNAAAAAJ/lkBgAAAAAdufdoXAZ+af3fjxu+d/3ok72Xx/9uY8PkAG69lzOz+R/qV+Ljv5z5OdxXin+y3vPawAAAAD4hENiAAAAANiOIlUHar9Nvx6q9d28fv2v937s0Bhok7LOu2fzqIf/jPmZmw+Kn/vpBgAAAOBjDokBAAAAYHPKyL/Wr2N1fGBRJx+4/ZKqI+N3fw5gU959kCMfDp8M7J89f5Dj3UGxZy0AAAAAf+eQGAAAAACaVUa+SdWB2kgda5mn6sjtTXJgDDzMqH4e/9Zz+QPPI3/ybAUAAADAITEAAAAAPFwRmaTqgLhQx0bkJc3rOj+m6vhtrhbgFnl1OB8N/2uyBn+X58lBMQAAAAAAAAAAwFrKyEXk/2RnuYqcR07rnw9gmE7qZ8HPnotrJXdX+DICAAAAAAAAAAC42yRykxyetfm4+Kz+ebJGCv00qt/jPszRXPIR9rTuFgAAAAAAAAAAgI9MkgPirh7HzVJ1IFf6MobOcjy8neR/z534cgMAAAAAAAAAAKhMkgPivq4W52M565vQXo6Hd5f8AYzClyAAAAAAAAAAADBUk+SAeEgLnOf1z3nhSx92yvFwuzL1JQkAAAAAAAAAAAxJmaolRgdkwz4stlgM25Xfb46H27viPvYlCgAAAAAAAAAA9FmRqlVaR2Ny2xFdPiwuvU2gUWX93P3Zc8Y6MQAAAAAAAAAAwK5Mk0M2WT15NfU0VcfnwP0U9TP3xrOksx+s8OwDAAAAAAAAAAB6oUzVUZTjMFk3+RgyrxWfeDvBZ40iE8/b3uTn+ucTAAAAAAAAAACgk/JRWz7+dBAmTR/X5bXiSf01BkNXRs6Txfe+5tyzDgAAAAAAAAAA6JoyVSuyjsBk08nrq6eRwtuOASnqr3vP2eE858a+7AEAAAAAAAAAgLazQiy7zE399efgjr46SdUit/f7MNfYJ94CAAAAAAAAAABAW5XJOqY4KoamFZGp56vUOfOWAAAAAAAAAAAA2maaHHeJo2JokvVh+VxmqfoOAAAAAAAAAAAAADtVRK6Soy7p3lFx4e1LC+Xj0NNkfVhWe5b5cAQAAAAAAAAAALAzeS3z5+SYS7qbfASfjzYLb2d2rIyce0/KPfNz/bUDAAAAAAAAAACwVXnR1RGX9CkXkYm3NluWv+asustD49kFAAAAAAAAAABsRZEcvUn/Fz7zMuzY250NPkenyaK7NJszby0AAAAAAAAAAGCTyuTwTYaVm8hpZOTtT0PP0HPvK9lgzr3NAAAAAAAAAACATZgmB1oy7FxETjwKWMMkWXKX7WWWfPgBAAAAoFUeqQAAAACADsvHSHnh0AElVBaRv0SeR5bq4AvPzrxm/W1y1Mn2XUeOPaMAAAAAAAAAAICHKJIVTZEvJR/Zlx4VfPTcPPfekBYk//vbETsAAAAAAAAAALCWMvJzcoglsurB3sRjY/DPzJn3grQs+d/jY29PAAAAgN16pAIAAAAAOmaSqkVN4H6Wkb9Evqv/mGE8L79NjjVp93PpOHKtCgAAAAAAAAAA4C5nyYKjSBPJx/iFR0ovjSLTyI2vc0mWiQEAAAC4g0ViAAAAALogH8blI+KJKqBR88if6le6rUi/LhCP1EHHWCYGAAAA2BGHxAAAAAC0XT6ImyVrhbBJ88h/RJ6ronOKyLPkgxZ0n2NiAAAAgB1wSAwAAABAm+Xj4YtUHcoBm7dI1ULxc1W0Xpmq9eETVdAjjokBAAAAtswhMQAAAABtlY+I8xLxSBWwdYvkoLitylQtEJeqoKccEwMAAABskUNiAAAAANooL2yeJ0fEsGuL5KC4LSaRb5IDYobBMTEAAADAljgkBgAAAKBtJqk6IgbaY5EcFO/ymZgXiAtVMDCOiQEAAAC2wCExAAAAAG0ySY6Ioc3yQd8fInNVbOV56ICYocvHxIf1KwAAAAAb4JAYAAAAgLbIB8QTNUAnzFN1UGwptFmjyGnkm+SAGN7Jz5m8TOyYGAAAAGADHBIDAAAA0AaOiKGbnkf+FFmo4kHeHRB/W/8x8CHHxAAAAAAb4pAYAAAAgF1zRAzdlg/7/hL5Ljnyuy8HxLA6x8QAAAAAG+CQGAAAAIBdckQM/bGI/CFyqYo7OSCG9TyP/F4NAAAAAM1xSAwAAADALuTDuVlkrAronXmqDv0Wqrj12eeAGB7meXJMDAAAANCYfRUAAAAAsGWOiKHfilQdy+Yhi7k6/vHc+2PkReTryIFKYG3j+j31WhUAAAAAD2eRGAAAAIBtckQMw7JI1XLofMDPPAvEsBn52fJcDQAAAAAP45AYAAAAgG1xRAzD9V3kT5HlgJ53Dohh855GLtUAAAAAsD6HxAAAAABsgyNiYJH6v07sgBi2K3844ThyrQoAAACA9TgkBgAAAGDTHBED7+vjOrEDYtid/Cw5StWHFQAAAAC4J4fEAAAAAGySI2LgNnk99PepHyui+YD4WXJADLt+puRl4qUqAAAAAO7HITEAAAAAm+KIGLjLH1K1UNxFk1QdEBd+GqEVLiNP1QAAAABwPw6JAQAAANgER8TAqvLxX14n7sqS6CQ5IIa2el4/TwAAAABYkUNiAAAAAJrmiBi4r+tUHf9dt/jv8SRylhwQQ9vlZ8lzNQAAAACsxiExAAAAAE27So6IgfvLi8T5APCyZX9fZaoWiEs/RdAZx5G5GgAAAADutqcCAAAAABp0nhwRA+vJa+YXkWlL/n7KVK2rz5IjYuiaC78eAQAAAFiNRWIAAAAAmpKPiCdqABrwPFXrxLtQpGqB2PMMuu06VcvES1UAAAAAfJ5DYgAAAACa4IgYaNo88jRt7wiwSA6IoW8u6+cIAAAAAJ+xrwIAAAAAHsgRMbAJReTryN8i/7vB/59R5I/1s+wrtUOvPEnVqM5cFQAAAAC3s0gMAAAAwENMU7XgCbAp15HjtJll4vwM+zZVx8RAf+VV4ks1AAAAAHzKITEAAAAA65qkasETYNOaPibOz6/8IYhCtTAIy/oZcq0KAAAAgA85JAYAAABgHZPkiBjYriaOicvIWWSsTvAMAQAAAMAhMQAAAAD3dxK5UAOwA+seAubD4XxAXKoQBu0y8lQNAAAAAL/aVwEAAAAA95CP8fIR8YEqgB14HHkS+duK//siVQfEf63/GBi2/Pz4JfKDKgAAAAAqFokBAAAAWFU+Ip5FRqoAduy7yB++8Nfzc+o08q1nFnCLvGw+VwMAAACAQ2IAAAAAVpMP8W6SgzygPX4feX7Ln59EniULxMDnLSOH9SsAAADAoDkkBgAAAOAu+Xg4LxGPVQG0SD4AzKui1/WPy8iZZxWwovzsOFIDAAAAMHT7KgAAAADgCxwRA211EPkq8jpyHvn3yGO1ACt6XP8657UqAAAAgCGzSAwAAADAl+TjvIkaAICeehq5VAMAAAAwVA6JAQAAAPgcR8QAQN8tI0eRhSoAAACAIXJIDAAAAMBtTiNnagAABuA6VcfEAAAAAIOzrwIAAAAAPjKJfK8GAGAgHkdGkdeqAAAAAIbGIjEAAAAA7xtHrtQAAAzQ08ilGgAAAIAhcUgMAAAAwDv5iHiWqkU+AIChWUYO61cAAACAQXBIDAAAAECWj4fzEnGhCgBgwOaRYzUAAAAAQ7GvAgAAAIDBy0fEeYn4iSoAgIErUjXEM1cFAAAAMAQWiQEAAAA4j0zUAADwD0eRazUAAAAAfeeQGAAAAGDYziKnagAA+MAiVcfES1UAAAAAfeaQGAAAAGC4JqlaIwYA4FOXkadqAAAAAPpsXwUAAAAAgzSOvFIDAMBnPYm8iVyrAgAAAOgri8QAAAAAw5OPiGeRkSoAAL5oGTmKLFQBAAAA9JFDYgAAAIBhycfD+Yh4rAoAgJXMI8dqAAAAAPpoXwUAAAAAg/Iq8pUaAABWVqRqnGeuCgAAAKBvLBIDAAAADMd5ZKIGAIC1HEWu1QAAAAD0iUNiAAAAgGGYpOqQGACA9eQj4uPIUhUAAABAX+yrAAAAAKD3ysiFGgAAHuRx5CDyWhUAAABAX1gkBgAAAOi3InIVGakCAKAReZV4rgYAAACgDxwSAwAAAPRXPh6eRcaqAABozCJyFFmqAgAAAOi6fRUAAAAA9NaLSKkGAIBG5Q9rPY68VAUAAADQdQ6JAQAAAPppGvk3NQAAbET+jg8/Rn5SBQAAANBlj1QAAAAA0DsnkQs1AABs1DJyWL8CAAAAdJJDYgAAAIB+yet4s1R9y20AADbrMvJUDQAAAEBXOSQGAAAA6I98PHwVKVQBALA1+ZD4Ug0AAABAFzkkBgAAAOiPvERcqgEAYKuWkcP6FQAAAKBT9lQAAAAA0AtnyRExAMAu5O8Kca4GAAAAoIssEgMAAAB03yQ5XgEA2LWnkUs1AAAAAF3ikBgAAACg28aRWaqW8AAA2J1l5LB+BQAAAOgEh8QAAAAA3ZWPh/MR8VgVAACtkBeJn6oBAAAA6Ip9FQAAAAB01otIqQYAgNZ4Evkx8pMqAAAAgC6wSAwAAADQTdPIMzUAALTOMnJYvwIAAAC0mkViAAAAgO45iXyvBgCAVjqo81oVAAAAQNtZJAYAAADoliJyFRmpAgCg1Y4jczUAAAAAbeaQGAAAAKA78vHwLDJWBQBA6y0iR5GlKgAAAIC22lcBAAAAQGd8H/laDQAAnZA/BHYQea0KAAAAoK0sEgMAAAB0wyRyrgYAgM7Jq8TXagAAAADayCExAAAAQPuNI7NUrdoBANAt+Yj4SA0AAABAG+2rAAAAAKDV8vFwPiJ+rAoAgE7Kv47L4z5zVQAAAABtY5EYAAAAoN0uIidqAADotGWqVokXqgAAAADaxCExAAAAQHudRs7UAADQC/PIsRoAAACANtlXAQAAAEArlZEXagAA6I0i8iZyrQoAAACgLSwSAwAAALTPKHJTvwIA0B/LyGH9CgAAALBzFokBAAAA2udV5IkaAAB65yDyOPJSFQAAAEAbWCQGAAAAaJdp5JkaAAB67TgyVwMAAACwaw6JAQAAANqjjMzUAADQe4vIoRoAAACAXdtXAQAAAEArjCL/napvdw0AQP9/7ZcHf+aqAAAAAHbJIjEAAABAO+Ql4lINAACDsYwcpWqdGAAAAGAn9lQAAAAAsHPT5IgYAGBo8irxuRoAAACAXbJIDAAAALBbZarWiAEAGKankUs1AAAAALvgkBgAAABgd/IK3U39CgDAMC0iR5GlKgAAAIBt21cBAAAAwM68ijxRAwDAoOUPlb2NzFUBAAAAbJtFYgAAAIDdmEaeqQEAgNphqtaJAQAAALbGITEAAADA9pWRmRoAAHjPPHKsBgAAAGCb9lUAAAAAsFX5W1e/ql8BAOCdIvImcq0KAAAAYFssEgMAAABs10XkRA0AANxiGTmsXwEAAAA2ziIxAAAAwPac1gEAgNsc1HmtCgAAAGAbLBIDAAAAbMc4cqUGAABWcBS5VgMAAACwaQ6JAQAAADZvFJml6pgYAADuMo8cqwEAAADYtH0VAAAAAGzc95Gv1QAAwIqKyI+Rn1QBAAAAbJJFYgAAAIDNOolcqAEAgHtaRI4iS1UAAAAAm2KRGAAAAGBzisiryIEqAAC4p1HkbWSuCgAAAGBTLBIDAAAAbM5VZKwGAAAe4DBV68QAAAAAjdtTAQAAAMBGTJMjYgAAHu5cBQAAAMCmWCQGAAAAaF4ZmakBAICGHEfmagAAAACa5pAYAAAAoFmjyFWkUAUAAA1ZRA7VAAAAADRtXwUAAAAAjXoR+UoNAAA0KH9YLQ8EzVUBAAAANMkiMQAAAEBzJpFzNQAAsAHLVK0SL1UBAAAANMUiMQAAAEAzishF5EAVAABsQP515uPIS1UAAAAATbFIDAAAANCMq8hYDQAAbNhR5FoNAAAAQBP2VAAAAADwYNPkiBgAgO04UwEAAADQFIvEAAAAAA9TRmZqAABgi55GLtUAAAAAPJRDYgAAAID1jSJXkUIVAABs0SJyqAYAAADgofZVAAAAALC2F5Gv1AAAwJblD7TlwaC5KgAAAICHsEgMAAAAsJ6TyIUaAADYkWWqVomXqgAAAADWZZEYAAAA4P6KyKvIgSoAANiR/GvRx5GXqgAAAADWZZEYAAAA4P5mkVINAAC0wFHkWg0AAADAOvZUAAAAAHAvp8kRMQAA7XGmAgAAAGBdFokBAAAAVjeOXKkBAICWeRq5VAMAAABwXw6JAQAAAFaXj4jHagAAoGUWkUM1AAAAAPe1rwIAAACAleRvGX2iBgAAWmgU+SXygyoAAACA+7BIDAAAAHC3MjJTAwAALbZM1SrxUhUAAADAqiwSAwAAAHxZXnd7Vb8CAEBbHUTeRuaqAAAAAFZlkRgAAADgyy4iJ2oAAKAj8irxQg0AAADAKiwSAwAAAHxePiCeqgEAgA7J30njpRoAAACAVVgkBgAAALhdPsC4qV8BAKBLjiNzNQAAAAB3cUgMAAAAcLuLVC0SAwBA18xTdUwMAAAA8EX7KgAAAAD4xGkdAADooiLyY+QnVQAAAABfYpEYAAAA4ENF5CoyUgUAAB22iByqAQAAAPgSi8QAAAAAH7qIPFEDAAAdlz8Y90vkB1UAAAAAn2ORGAAAAOBXp5EzNQAA0BPLVK0SL1UBAAAA3MYiMQAAAEBlHDmPHKgCAICeyL+2fRuZqwIAAAC4jUViAAAAgMpVqo6JAQCgT/Ia8VFkoQoAAADgYxaJAQAAAFKaRn6nBgAAeiivEo8iL1UBAAAAfMwiMQAAADB0eYX4Sg0AAPTcYbJKDAAAAHzEIjEAAAAwdK8ij9UAAEDPFZG/qQEAAAB4354KAAAAgAGbpmqRGAAA+u4kUqoBAAAAeN8jFQAAAAADlQ+Ir9QAAMCAzCPHagAAAADecUgMAAAADFU+IrZGDADA0ORD4rkaAAAAgMwhMQAAADBE08gzNQAAMECLyKEaAAAAgGxfBQAAAMDA5BXiF2oAAGCgRpE3kWtVAAAAABaJAQAAgCHJRxNXkUIVAAAM2CJZJQYAAACSRWIAAABgWP4c+VoNAAAMXP6A3S+RH1QBAAAAw2aRGAAAABiKMjJTAwAA/N0yVavES1UAAADAcFkkBgAAAIYgL669ql8BAICUDiJvI3NVAAAAwHBZJAYAAACG4CxyqgYAAPiAVWIAAAAYOIvEAAAAQN+Vkb+qAQAAPnFQ57UqAAAAYJgsEgMAAAB9dxMp1AAAAJ+VV4kXagAAAIDhsUgMAAAA9Nk0cqIGAAD4olHkpRoAAABgeCwSAwAAAH01jlypAQAAVmKVGAAAAAbIIjEAAADQV68ij9UAAAArsUoMAAAAA2SRGAAAAOijaeSZGgAA4F6OItdqAAAAgOFwSAwAAAD0zThypQYAALi3eeRYDQAAADAcDokBAACAvslHxGM1AADAWvIh8VwNAAAAMAx7KgAAAAB6ZJocEQMAwEM8UwEAAAAMh0ViAAAAoC/yAfGVGgAA4MGsEgMAAMBAOCQGAAAA+iIfEVsjBgCAh5un6pgYAAAA6Lk9FQAAAAA9cJocEQMAQFPKOgAAAEDPWSQGAAAAuq5I1RrxSBUAANCY68iRGgAAAKDf9lUAAAAAdNxF5IkaAACgUY8jb1J1UAwAAAD0lEViAAAAoMtOI2dqAACAjVhEDtUAAAAA/WWRGAAAAOiqIvIicqAKAADYiFGySgwAAAC9ZpEYAAAA6KqLyIkaAABgoxbJKjEAAAD0lkViAAAAoIvyAfFUDQAAsHFWiQEAAKDHLBIDAAAAXZMPGW7qVwAAYPMWySoxAAAA9JJFYgAAAKBrXkTGagAAgK2xSgwAAAA9ZZEYAAAA6JIyMlMDAABs3SJZJQYAAIDesUgMAAAAdEVeQXtVvwIAANv/9bhVYgAAAOgZi8QAAABAV5xFTtUAAAA7s0hWiQEAAKBXLBIDAAAAXVBG/qoGAADYKavEAAAA0DMWiQEAAIAuuIqM1QAAADu3SFaJAQAAoDcsEgMAAABtN438Tg0AANAKVokBAACgRywSAwAAAG2WV4iv1AAAAK2ySFaJAQAAoBcsEgMAAABt9iJSqAEAAFrFKjEAAAD0hEViAAAAoK1OI2dqAACAVlokq8QAAADQeRaJAQAAgDYqUrVGfKAKAABoJavEAAAA0AMWiQEAAIA2uoicqAEAAFptkawSAwAAQKdZJAYAAADaJh8QT9UAAACtZ5UYAAAAOs4iMQAAANAm+RDhpn4FAADab5GsEgMAAEBnWSQGAAAA2uTPkVINAADQGVaJAQAAoMMsEgMAAABtUUZmagAAgM5ZJKvEAAAA0EkWiQEAAIC2uIg8VgMAAHSOVWIAAADoKIvEAAAAQBtMI8/UAAAAnbVIVokBAACgcywSAwAAALtWpGqNGAAA6C6rxAAAANBBFokBAACAXZtFSjUAAEDnLZJVYgAAAOgUi8QAAADALk0ip2oAAIBesEoMAAAAHWORGAAAANiVfGRwU78CAAD9sEhWiQEAAKAzLBIDAAAAu/J95Cs1AABAr1glBgAAgA6xSAwAAADsQhmZqQEAAHppkawSAwAAQCdYJAYAAAB2IR8Rj9QAAAC9ZJUYAAAAOsIiMQAAALBt08gzNQAAQK8tklViAAAAaD2HxAAAAMA2FZEbNQAAwCAcR+ZqAAAAgPZySAwAAABs0yxSqgEAAAZhnqpjYgAAAKClHBIDAAAA2zKJnKsBAAAGxSoxAAAAtJhDYgAAAGAbRpGb+hUAABiOebJKDAAAAK21pwIAAABgC86SI2IAABiisg4AAADQQhaJAQAAgE0rIzM1AADAYM2TVWIAAABoJYfEAAAAwKZdRcZqAACAQcuHxHM1AAAAQLvsqwAAAADYoGnkd2oAAADCSxUAAABAu1gkBgAAADalSNUa8UgVAABAOIws1AAAAADtYZEYAAAA2JSLyBM1AAAAtfwhQ6vEAAAA0CIWiQEAAIBNOEnVITEAAMD7rBIDAABAi1gkBgAAAJqWV8Yu6lcAAICPf79glRgAAABawiIxAAAA0LSzyKkaAACAz7BKDAAAAC1hkRgAAABo0jjyXA0AAMAX/BKZqwEAAAB2zyIxAAAA0KRZpFQDAADwBctUrRIvVQEAAAC7ZZEYAAAAaMokcqoGAADgDgeRt8kqMQAAAOycRWIAAACgCaPITf0KAABwF6vEAAAA0AIWiQEAAIAmfB/5Sg0AAMCK8irx/0R+UAUAAADsjkViAAAA4KHKyEwNAADAPS1StUoMAAAA7IhFYgAAAOChLiKP1QAAANzTKPImcq0KAAAA2A2LxAAAAMBDnEbO1AAAAKxpkawSAwAAwM5YJAYAAADWVUReRA5UAQAArMkqMQAAAOzQngoAAACANeUl4pEaAACAB/pGBQAAALAbj1QAAAAArKGMzNQAAAA05DgyVwMAAABsl0NiAAAAYB03kUINAABAQ+apOiYGAAAAtmhPBQAAAMA9TZMjYgAAoFllHQAAAGCL9lUAAAAA3EMROY8cqAIAANiAlyoAAACA7XmkAgAAAOAeLiInagAAADbkMLJQAwAAAGyHRWIAAABgVfmAeKoGAABgg0bJKjEAAABsjUViAAAAYBX5P+ZfRQpVAAAAG/abyFINAAAAsHkWiQEAAIBV/DFVi8QAAACb9jYyVwMAAABsnkViAAAA4C5F5EYNAADAluQ14sNklRgAAAA2ziIxAAAAcJeLVB0TAwAAbMNBskoMAAAAW2GRGAAAAPiSk1QdEgMAAGzTIlWrxAAAAMAGWSQGAAAAPmeUqiPikSoAAIAd/H7kTeRaFQAAALA5FokBAACAz5lGnqkBAADYkUWySgwAAAAb5ZAYAAAAuE0RuVEDAACwY08jl2oAAACAzXBIDAAAANxmFinVAAAA7Ng8cqwGAAAA2AyHxAAAAMDHTiIXagAAAFoiHxLP1QAAAADN21cBAAAA8J5Rqo6IR6oAAABa5KUKAAAAoHkWiQEAAID3TSPP1AAAALTMYWShBgAAAGiWRWIAAADgnSJyHjlQBQAA0DL5u6ZYJQYAAICGWSQGAAAA3rmInKgBAABooWWqVomXqgAAAIDmWCQGAAAAsjLy72oAAABaKn/nlLeRuSoAAACgORaJAQAAgOwmUqgBAABoMavEAAAA0LA9FQAAAMDgTZMjYgAAoP1GkRM1AAAAQHMsEgMAAMCwFZGrVP0HeQAAgLZbpGqVGAAAAGjAvgoAAABg0M4jYzUAAAAdkT8E+WPkJ1UAAADAw1kkBgAAgOEqIzM1AAAAHTOPHKsBAAAAHs4hMQAAAAzXVbJGDAAAdFM+JJ6rAQAAAB5mTwUAAAAwSKfJETEAANBd36gAAAAAHs4iMQAAAAzPKHJTvwIAAHTVYWShBgAAAFjfvgoAAABgcL6PfKUGAACg4/KHI1+qAQAAANZnkRgAAACGpYzM1AAAAPTAMlWrxEtVAAAAwHosEgMAAMCwnEcKNQAAAD1wEHkbmasCAAAA1mORGAAAAIZjkqpDYgAAgL5YpGqVGAAAAFiDRWIAAAAYhlHkVaoWuwAAAPr0e503kWtVAAAAwP3tqQAAAAAG4Vmq/gM7AABA33yrAgAAAFjPIxUAAABA7xWRGzUAAAA9dhyZqwEAAADuxyExAAAA9N8sUqoBAADosXmqjokBAACAe3BIDAAAAP12ErlQAwAAMACHkYUaAAAAYHX7KgAAAIBeexUZqQEAABiA/Hufl2oAAACA1VkkBgAAgP6aRp6pAQAAGJDfRJZqAAAAgNVYJAYAAIB+KiLnkQNVAAAAA/I2MlcDAAAArMYiMQAAAPRTPiKeqAEAABiYvEb8GzUAAADAaiwSAwAAQP+Uke/UAAAADFD+rixvIteqAAAAgLtZJAYAAID+uYqM1QAAAAxUPiI+UgMAAADcbU8FAAAA0CuT5IgYAAAYtvx7olINAAAAcDeLxAAAANAfo8hN/QoAADBkl5GnagAAAIAvc0gMAAAA/XEWOVUDAADA3x1GFmoAAACAz9tXAQAAAPRCEflPNQAAAPxD/m4tL9UAAAAAn2eRGAAAAPphFinVAAAA8A/LVK0SL1UBAAAAt9tTAQAAAHRemRwRAwAAfCwvEk/UAAAAAJ9nkRgAAAC67yZSqAEAAOATi1StEgMAAAC32FcBAAAAdNpp5HdqAAAAuFVeJX4TuVYFAAAAfMoiMQAAAHRX/g/iN/UrAAAAt5tHjtUAAAAAn3JIDAAAAN11HpmoAQAA4E5HySoxAAAAfGJfBQAAANBJ48hf1QAAALCSg8hLNQAAAMCHLBIDAABAN80ipRoAAABWdhhZqAEAAAB+tacCAAAA6JyT5IgYAADgviYqAAAAgA9ZJAYAAIDuuYkUagAAALiXZeQ3agAAAIBf7asAAAAAOmWaqkViAAAA7ucg8iZyrQoAAACoWCQGAACA7hilao14pAoAAIC15CPiIzUAAABAZU8FAAAA0BlnyRExAADAQ4wjpRoAAACgYpEYAAAAuqGMzNQAAADwYJeRp2oAAAAAh8QAAADQFfmIuFQDAABAIw4jCzUAAAAwdPsqAAAAgNabRE7VAAAA0KjXKgAAAGDoLBIDAABAu40iV5FCFQAAAI1ZpmqVeKkKAAAAhmxPBQAAANBqeYm4UAMAAECj8oc2T9QAAADA0FkkBgAAgPYqUrVGPFIFAABA4xapWiUGAACAwbJIDAAAAO31LDkiBgAA2JQiUqoBAACAIbNIDAAAAO00TtUaMQAAAJtzGXmqBgAAAIbKITEAAAC00yxZxuL/2btb7jbSNI/DJYkYSmxhiQ202UD5E0T5BBYc1oHLPHBZlu0whWUGOUZzjGwYFjXrRlJgmJoZ7l0tz0w6b9ZLvTxVdV3n/I/4j8l6cgcAAKjDNLaRAQAAgD4aSQAAAADJmcf+WwYAAIDa3EkAAABAH7lIDAAAAOlZx3IZAAAAarHNdleJt1IAAADQN0MJAAAAICl/zTwiBgAAqNM42/3PMAAAANA7LhIDAABAOoofr9dPnwAAANRnk+2uEgMAAECvuEgMAAAA6XideUQMAADQhDw2kwEAAIC+cZEYAAAA0nAe+yADAABAY97FXsoAAABAn3hIDAAAAGm4z1y/AgAAaNo0tpEBAACAvhhJAAAAAI2bxf4qAwAAQBLuJAAAAKAvXCQGAACA5q1juQwAAACN22a7q8RbKQAAAOiDoQQAAADQqFeZR8QAAACpGMfmMgAAANAXLhIDAABAc4ofqNdPnwAAAKRhFbuQAQAAgD5wkRgAAACac515RAwAAJCa89hMBgAAAPpgJAEAAAA0Io/9XQYAAIBk3UoAAABA1w0kAAAAgEbcxOYyAAAAJGsa28gAAABAl7lIDAAAAPWbxf5HBgAAgKT9FnuQAQAAgC5zkRgAAADq9yF2LgMAAEDSNtnuKjEAAAB0lovEAAAAUK9F7C8yAAAAJG8c+xhbSQEAAEBXuUgMAAAA9Sl+hC6uEedSAAAAtMJD7FIGAAAAumooAQAAANTmVeYRMQAAQJvMYucyAAAA0FUjCQAAAKAWxTXit7EzKQAAAFql+B53KwMAAABdNJAAAAAAarGMLWQAAABonW1s+vQJAAAAneIiMQAAAFSv+G9w/yYDAABAKxUXiT/F3ksBAABA17hIDAAAANW7j81kAAAAaK1NtrtKDAAAAJ3iITEAAABUa5btHhIDAADQbpexBxkAAADokpEEAAAAUKniEfFYBgAAgNYrvtv9QwYAAAC6xEViAAAAqM4itpQBAACgM6axjQwAAAB0hYvEAAAAUI3iUtU/Y2dSAAAAdMqdBAAAAHTFUAIAAACoxKts95gYAACA7lhIAAAAQJe4SAwAAADly2PLzDViAACArim+532MraQAAACgC1wkBgAAgPJdZ64RAwAAdNWVBAAAAHTFQAIAAAAo1XnsgwwAAACddpG5SgwAAEAHjCQAAACAUr2N5TIAAAB02lnsVgYAAADazkViAAAAKM8sdi8DAABA521j06dPAAAAaC0XiQEAAKA8xSPisQwAAACdV1wk/hR7LwUAAABt5iIxAAAAlGMRW8oAAADQG5tsd5UYAAAAWstDYgAAADhdcYV4nblGDAAA0DeXsQcZAAAAaKuhBAAAAHCyV5lHxAAAAH10JQEAAABt5iIxAAAAnCaPfcg8JAYAAOiraWwjAwAAAG00kgAAAABO8jr2ZxkAAAB667fYgwwAAAC0kYvEAAAAcLzzbHeNGAAAgP7aZLurxAAAANA6LhIDAADA8d7GchkAAAB6bRz7OfaLFAAAALSNi8QAAABwnFnsXgYAAADCQ+xSBgAAANrGQ2IAAAA4zofYuQwAAAA8mcY2MgAAANAmIwkAAADgYIvYX2QAAADgC3cSAAAA0CYuEgMAAMBhxtnuGnEuBQAAAJ/ZxiYyAAAA0CZDCQAAAOAgrzKPiAEAAPha8Q9PFzIAAADQJi4SAwAAwP6KH4XXT58AAADwpYfYpQwAAAC0hYvEAAAAsL/rzCNiAAAAvm8WO5cBAACAthhJAAAAAHvJY3+XAQAAgGecxW5lAAAAoA0GEgAAAMBelrGFDAAAADxjG5s+fQIAAEDSXCQGAACA581i/ysDAAAAeyguEv8aW0kBAABA6lwkBgAAgOfdZ7vHxAAAALCP4hHxhQwAAACkzkNiAAAA+LF57EYGAAAADlQ8JHaVGAAAgKSNJAAAAIAf+mdsLAMAAAAHOovdygAAAEDKXCQGAACA71vEljIAAABwhG1s+vQJAAAASXKRGAAAAL6tuEJcXCM+kwIAAIAjFN8nf42tpAAAACBVQwkAAADgm15lu8fEAAAAcKxrCQAAAEjZQAIAAAD4SvGAeJ15SAwAAMDpLmMPMgAAAJCikQQAAADwlf+L/VkGAAAASnIrAQAAAClykRgAAAD+KM9214gBAACgLJPYVgYAAABS4yIxAAAA/NEy9icZAAAAKNGn2HsZAAAASI2LxAAAAPAfs9i9DAAAAJRsE5vKAAAAQGo8JAYAAID/KB4Rz2QAAACgApexBxkAAABIyVACAAAA+N0s84gYAACA6lxJAAAAQGpcJAYAAICddSyXAQAAgApNYlsZAAAASIWLxAAAAJBli8wjYgAAAOr5/gkAAADJcJEYAACAvhvHPmQeEgMAAFC9TWwqAwAAAKlwkRgAAIC+e5V5RAwAAEA9iu+fMxkAAABIxUgCAAAAeqy4Rvw2diYFAAAANbqVAAAAgBQMJAAAAKDH/hq7lgEAAICaTWJbGQAAAGiai8QAAAD0VR67kQEAAIAGfIq9lwEAAICmuUgMAABAXy1jCxkAAABowCY2lQEAAICmeUgMAABAH53HPsgAAABAgy5jDzIAAADQpJEEAAAA9NDbWC4DAAAADbuVAAAAgCa5SAwAAEDfzGL3MgAAAJCASWwrAwAAAE1xkRgAAIC+WWauEQMAAJCGT7H3MgAAANAUF4kBAADok0W2e0gMAAAAKdjEpjIAAADQFA+JAQAA6JN15hoxAAAAabmIrWQAAACgCUMJAAAA6IlF5hExAAAA6flJAgAAAJriIjEAAAB9MI59yDwkBgAAID3b2PTpEwAAAGrlIjEAAAB98CrziBgAAIA0Ff/4dS4DAAAATXCRGAAAgK4rfpBdP30CAABAilaxCxkAAACom4vEAAAAdF1xjdgjYgAAAFJ2/jQAAACo1UgCAAAAOiyP3cgAAABAC5zFbmUAAACgTgMJAAAA6LBlbCEDAAAALbCNTZ8+AQAAoBYuEgMAANBVeeyNDAAAALREcZH419hKCgAAAOriIjEAAABddR+byQAAAECLFI+IL2QAAACgLh4SAwAA0EWzbPeQGAAAANpmGtvIAAAAQB1GEgAAANBBy1guAwAAAC11JwEAAAB1cJEYAACArpllrhEDAADQXtvYRAYAAADq4CIxAAAAXVM8Ih7LAAAAQEudxT7GVlIAAABQtaEEAAAAdMgilssAAABAy11JAAAAQB0GEgAAANAh68xDYgAAALphGtvIAAAAQJVcJAYAAKArXmUeEQMAANAdCwkAAAComovEAAAAdME4210jHksBAABAR2yy3VViAAAAqIyLxAAAAHRBcY3YI2IAAAC6JI/NZQAAAKBKLhIDAADQdq4RAwAA0FXvYi9lAAAAoCouEgMAANB2rhEDAADQVXPfeQEAAKjSSAIAAABaLI/dyAAAAECHfYq9lwEAAIAqDCQAAACgxZaxhQwAAAB02CY2lQEAAIAqeEgMAABAW+WxtQwAAAD0wGXsQQYAAADKNpIAAACAliquEf9JBgAAAHriVgIAAADK5iIxAAAAbTSL3csAAABAT2xj06dPAAAAKI2LxAAAALRRcY04lwEAAICeOIv9GltJAQAAQJlcJAYAAKBtZplrxAAAAPRP8Yj4QgYAAADK5CExAAAAbVM8Ip7JAAAAQA9NYxsZAAAAKMtIAgAAAFpkHvtvGQAAAOixOwkAAAAoi4vEAAAAtMk6lssAAABAT21jExkAAAAoy1ACAAAAWmKReUQMAABAv42fvh8DAABAKUYSAAAA0BI32e4HUwAAAOi7f0gAAABAGQYSAAAA0AKvYq9lAAAAgN9NYxsZAAAAOJWLxAAAAKSuuEJcXCM+kwIAAAB+91vsQQYAAABONZQAAACAxBXXiMcyAAAAwL9dSQAAAEAZBhIAAACQsOIB8TrzkBgAAAC+dJm5SgwAAMCJXCQGAAAgZa4RAwAAwLe5SgwAAMDJXCQGAAAgVXnsQ+YhMQAAAHzLNjZ9+gQAAICjjCQAAAAgUa9jf5YBAAAAvuks9mtsJQUAAADHcpEYAACAFOWxtQwAAADwQ8Uj4gsZAAAAOJaHxAAAAKRoGVvIAAAAAM+axjYyAAAAcIyRBAAAACQmj72RAQAAAPZ2JwEAAADHcJEYAACA1NzE5jIAAADAXraxiQwAAAAcw0NiAAAAUjKL3csAAAAAB3kZeycDAAAAhxpJAAAAQEKWsVwGAAAAOMhZ7B8yAAAAcCgXiQEAAEjFLHONGAAAAI41iW1lAAAA4BAuEgMAAJAK14gBAADgeJ9i72UAAADgEC4SAwAAkIJZ5hoxAAAAnGITm8oAAADAITwkBgAAIAXrzDViAAAAONVFbCUDAAAA+xpKAAAAQMMWmUfEAAAAUIafJAAAAOAQLhIDAADQNNeIAQAAoBzb2EQGAAAA9uUiMQAAAE1aZB4RAwAAQFnGT9+1AQAAYC8jCQAAAGjQTbb7kRMAAAAozz8kAAAAYB8DCQAAAGjIq9hrGQAAAKB009hGBgAAAJ7jIjEAAABNKK4QF9eIz6QAAACA0n2MvZcBAACA5wwlAAAAoAHFNeKxDAAAAFCJnyQAAABgHwMJAAAAqFnxgHideUgMAAAAVbqMPcgAAADAj7hIDAAAQN1cIwYAAIDqXUkAAADAc1wkBgAAoE6uEQMAAEA9trHp0ycAAAB8k4vEAAAA1Mk1YgAAAKhH8f17LgMAAAA/4iIxAAAAdcljHzIPiQEAAKAuD7FLGQAAAPgeD4kBAACoyzK2kAEAAABqNY1tZAAAAOBbRhIAAABQgzz2RgYAAACo3W/Z7jIxAAAAfMVFYgAAAOrgGjEAAAA0Y5PtrhIDAADAVzwkBgAAoGp5bC0DAAAANOYyc5UYAACAbxhJAAAAQMVex85lAAAAgEbdSgAAAMCXXCQGAACgSnnmGjEAAAA0bRubPn0CAADAv7lIDAAAQJVust1jYgAAAKA5Z7FfYyspAAAA+JyLxAAAAFRlFruXAQAAAJLwELuUAQAAgM95SAwAAEBVikfEMxkAAAAgGdPYRgYAAAD+ZSgBAAAAFZhlHhEDAABAauYSAAAA8DkXiQEAAKiCa8QAAACQnk22u0oMAAAAv/OQGAAAgLLNst1DYgAAACA9F7GVDAAAABRGEgAAAFCyZSyXAQAAAJJ0FruVAQAAgIKLxAAAAJRplrlGDAAAACnbxiYyAAAAUHCRGAAAgDLdxP5LBgAAAEhWcZH4Y2wlBQAAAEMJAAAAKMkidi4DAAAAJO+FBAAAABQGEgAAAFCSdSyXAQAAAFphGtvIAAAA0G8uEgMAAFCGReYRMQAAALTJXAIAAABcJAYAAKAMrhEDAABAu6xiFzIAAAD0m4vEAAAAnGqReUQMAAAAbXP+NAAAAHpsJAEAAAAnuomNZQAAAIDWeYzdyQAAANBfAwkAAAA4wSK2lAEAAABaaRubyAAAANBfLhIDAABwCteIAQAAoL3OYj/HfpECAACgn4YSAAAAcKRFLJcBAAAAWu2FBAAAAP01kAAAAIAjFFeI15lrxAAAANAFk9hWBgAAgP5xkRgAAIBjvMo8IgYAAICumEsAAADQTy4SAwAAcCjXiAEAAKBbVrELGQAAAPrHRWIAAAAO5RoxAAAAdMt5LJcBAACgf0YSAAAAcIDiAfHb2JkUAAAA0Cm/xR5kAAAA6BcXiQEAADiEa8QAAADQTVcSAAAA9M9AAgAAAPZUPCBeZx4SAwAAQFddZq4SAwAA9IqLxAAAAOzLNWIAAADoNleJAQAAesZFYgAAAPbhGjEAAAB03zY2kQEAAKA/XCQGAABgH64RAwAAQPcV3/0XMgAAAPSHi8QAAAA8xzViAAAA6I93sZcyAAAA9IOLxAAAADzHNWIAAADoj3nm7wAAAAC9MZIAAACAHyh+OHwbO5MCAAAAeuNT7L0MAAAA3eciMQAAAD/yOnOFCAAAAPrmSgIAAIB+GEgAAADAd+SxtQwAAADQS9PYRgYAAIBuG0kAAADAdxTXiM9lAAAAgN66kwAAAKDbXCQGAADgW/LMNWIAAADos022u0oMAABAhw0lAAAA4BuuJQAAAIBey2MzGQAAALptJAEAAABfyGNvZAAAAADCrQQAAADdNZAAAACALyxjCxkAAACg97axiQwAAADd5SIxAAAAn8sz14gBAACAnbPYx9hKCgAAgG4aSgAAAMBnriUAAAAAPvNCAgAAgO4aSAAAAMCTPLaWAQAAAPjCJLaVAQAAoHtGEgAAAPDkdexcBgAAAOALn2LvZQAAAOgeF4kBAAAo5JlrxAAAAMC3rWIXMgAAAHSPh8QAAAAUlrGFDAAAAMB3TGMbGQAAALplJAEAAEDv5bE3MgAAAADPuJMAAACgW1wkBgAAwDViAAAA4DmbbHeVGAAAgA7xkBgAAKDf8thaBgAAAGAPF7GVDAAAAN0xkgAAAKDXXsfOZQAAAAD2cBa7lQEAAKA7XCQGAADorzxzjRgAAADY3zY2kQEAAKA7hhIAAAD01rUEAAAAwAHGsbkMAAAA3eEiMQAAQD/lmWvEAAAAwOHexV7KAAAA0A0eEgMAAPTTMraQAQAAADjCJLaVAQAAoP1GEgAAAPROHnsjAwAAAHCkX2MrGQAAANpvKAEAAEDvXEsAAAAAnOBKAgAAgG4YSAAAANAreWwtAwAAAHCiaWwjAwAAQLu5SAwAANAvrhEDAAAAZZhLAAAA0H4uEgMAAPRHnrlGDAAAAJRjFbuQAQAAoN1cJAYAAOgP14gBAACAspw/DQAAgBYbSQAAANALeeyNDAAAAECJHmN3MgAAALTXQAIAAIBeuI/NZAAAAABKtIlNZQAAAGgvD4kBAAC6b5btHhIDAAAAlO0y9iADAABAO40kAAAA6LxlLJcBAAAAqMitBAAAAO3kIjEAAEC3zTLXiAEAAIDqbGMTGQAAANrJRWIAAIBuc40YAAAAqNJZ7OfYL1IAAAC0z1ACAACAzpo9DQAAAKBKVxIAAAC000ACAACAzrqJzWUAAAAAajCJbWUAAABoFxeJAQAAuinPPCIGAAAA6uPvEAAAAC3kITEAAEA3XUsAAAAA1OhKAgAAgPYZSAAAANA5eWwtAwAAAFCzaWwjAwAAQHu4SAwAANA9rhEDAAAATZhLAAAA0C4uEgMAAHRLnrlGDAAAADRjFbuQAQAAoD08JAYAAOiWZWwhAwAAANCQaWwjAwAAQDuMJAAAAOiMPPZGBgAAAKBhdxIAAAC0g4vEAAAA3eEaMQAAANC0Tba7SgwAAEALeEgMAADQDXlsLQMAAACQgIvYSgYAAID0jSQAAADohNexcxkAAACABDzG7mQAAABIn4vEAAAA7ZdnrhEDAAAA6djGJjIAAACkbygBAABA611LAAAAACRkHJvLAAAAkL6RBAAAAK2Wx97IAAAAACTmMXYrAwAAQNoGEgAAALTaMraQAQAAAEjMNjaRAQAAIG0uEgMAALRXnrlGDAAAAKTpLPYxtpICAAAgXUMJAAAAWutaAgAAACBhLyQAAABI20ACAACAVspjaxkAAACAxE1iWxkAAADS5CIxAABAO7lGDAAAALTBXAIAAIB0uUgMAADQPnnmGjEAAADQDu9iL2UAAABIk4fEAAAA7bOMLWQAAAAAWmIa28gAAACQnpEEAAAArZLH3sgAAAAAtMjH2HsZAAAA0jOUAAAAoFWuJQAAAABa5koCAACANA0kAAAAaI08tpYBAAAAaKFpbCMDAABAWlwkBgAAaA/XiAEAAIC2mksAAACQHheJAQAA2iHPXCMGAAAA2msVu5ABAAAgLS4SAwAAtINrxAAAAECbnT8NAACAhIwkAAAASF4eeyMDAAAA0HKPsTsZAAAA0uEiMQAAQPp+kgAAAADogLkEAAAAaRlIAAAAkLRxbP30CQAAANB2F7GVDAAAAGlwkRgAACBtrzKPiAEAAIDuuJIAAAAgHS4SAwAApMs1YgAAAKBrNrGpDAAAAGlwkRgAACBdrhEDAAAAXZPH5jIAAACkYSQBAABAkooHxG9jZ1IAAAAAHfMYu5UBAACgeS4SAwAApMk1YgAAAKCrXCQGAABIxEACAACA5BQPiNeZh8QAAABAd72MvZMBAACgWS4SAwAApMc1YgAAAKDrXkgAAADQPBeJAQAA0uIaMQAAANAH29hEBgAAgGa5SAwAAJAW14gBAACAPij+/rGQAQAAoFkuEgMAAKTDNWIAAACgT97FXsoAAADQHBeJAQAA0uEaMQAAANAn88zfQgAAABo1kgAAACAZN7EzGQAAAIAe+TW2kgEAAKAZLhIDAACkYZG5wAMAAAD0zwsJAAAAmjOQAAAAIAnrWC4DAAAA0EOT2FYGAACA+rlIDAAA0LxF5hExAAAA0F9zCQAAAJrhIjEAAEDzXCMGAAAA+uwhdikDAABA/TwkBgAAaNYitpQBAAAA6LlpbCMDAABAvUYSAAAANOomNpYBAAAA6LmPsfcyAAAA1GsoAQAAQGMWsVwGAAAAgOxKAgAAgPoNJAAAAGjMOvOQGAAAAOBfprGNDAAAAPVxkRgAAKAZi8wjYgAAAIDPzSUAAACol4vEAAAAzXCNGAAAAOCPVrELGQAAAOrjITEAAED9ZrF7GQAAAAC+Mo1tZAAAAKjHSAIAAIDaLTPXiAEAAAC+5WPsvQwAAAD1cJEYAACgXrPMNWIAAACA71nFLmQAAACoh4fEAAAA9SoeEc9kAAAAAPiu4iHxSgYAAIDqDSUAAACozSzziBgAAADgOVcSAAAA1MNFYgAAgPq4RgwAAADwvE1sKgMAAED1PCQGAACoxyzbPSQGAAAA4HkXsZUMAAAA1RpJAAAAUItlLJcBAAAAYC+PsTsZAAAAquUiMQAAQPXy2FoGAAAAgL1tYlMZAAAAqjWUAAAAoHLXEgAAAAAcJI+dywAAAFCtkQQAAACVymNvZAAAAAA42GPsTgYAAIDqDCQAAACo1DK2kAEAAADgYJvYVAYAAIDqeEgMAABQnTy2lgEAAADgaBexlQwAAADVGEkAAABQmdexcxkAAAAAjvYYu5MBAACgGi4SAwAAVCPPXCMGAAAAONUmNpUBAACgGkMJAAAAKnEtAQAAAMDJ8sz/+AQAAFCZkQQAAAClG8f+FjuTAgAAAOBkj7E7GQAAAMrnIjEAAED5XmW7x8QAAAAAnG4uAQAAQDUGEgAAAJSqeEC8zjwkBgAAACjTy9g7GQAAAMrlIjEAAEC5XCMGAAAAKN8LCQAAAMrnIjEAAEB5XCMGAAAAqMY2NpEBAACgXC4SAwAAlMc1YgAAAIBqFH9zmcsAAABQrpEEAAAApbmJnckAAAAAUInH2K0MAAAA5RlIAAAAUIpFbCkDAAAAQGW2sYkMAAAA5XGRGAAAoBzFNeKxDAAAAACVKf4nqJ9jv0gBAABQjqEEAAAAJ1vEchkAAAAAKvdCAgAAgPIMJAAAADjZOvOQGAAAAKAO29hEBgAAgHK4SAwAAHCaReYRMQAAAEBdxrG5DAAAAOUYSQAAAHCSm2z3AxYAAAAA9XiM3coAAABwuoEEAAAAR5vF7mUAAAAAqNU2NpEBAADgdC4SAwAAHG8Zy2UAAAAAqNVZ7OfYL1IAAACcZigBAADAUWZPAwAAAKB+LyQAAAA43UACAACAo9xnHhIDAAAANGUbm8gAAABwGheJAQAADjfLPCIGAAAAaNI4NpcBAADgNB4SAwAAHO4nCQAAAAAa90ICAACA0wwkAAAAOEgeW8sAAAAA0LhtbCIDAADA8VwkBgAAOMy1BAAAAABJGMfmMgAAABxvJAEAAMDe8tgbGQAAAACS8Ri7lQEAAOA4AwkAAAD2towtZAAAAABIxjY2kQEAAOA4HhIDAADsJ4+tZQAAAABIzsvYOxkAAAAON5QAAABgLwsJAAAAAJL0QgIAAIDjuEgMAADwvHG2u0Y8lgIAAAAgOdvYRAYAAIDDuUgMAADwvFeZR8QAAAAAqSr+bjOXAQAA4HAjCQAAAH6o+CHqbexMCgAAAIBkPcZuZQAAADiMi8QAAAA/5hoxAAAAQPpcJAYAADjCQAIAAIAfWsdyGQAAAACSdxFbyQAAALA/F4kBAAC+b5F5RAwAAADQFlcSAAAAHMZFYgAAgO9zjRgAAACgPTaxqQwAAAD7c5EYAADg2xaZR8QAAAAAbZLHzmUAAADY30gCAACAb7qJjWUAAAAAaJXH2J0MAAAA+xlIAAAA8JVZ7F4GAAAAgNbZxKYyAAAA7MdDYgAAgK8Vj4hnMgAAAAC00kVsJQMAAMDzhhIAAAD8wSzziBgAAACgza4kAAAA2I+LxAAAAH/kGjEAAABAu21iUxkAAACe5yExAADAf5zHPsgAAAAA0HoXsZUMAAAAPzaUAAAA4N9+kgAAAACgE64kAAAAeJ6LxAAAADt5bC0DAAAAQCdsYlMZAAAAfsxFYgAAgJ1rCQAAAAA6I4+dywAAAPBjIwkAAAB+/2HpjQwAAAAAnfIYu5MBAADg+1wkBgAAyLKFBAAAAACdM5MAAADgxwYSAAAAPTeOrZ8+AQAAAOiWaWwjw/+zd//IbRxZAIebZrKZqBNodALCJ+DcQPQJzD2BdAPX3mB9AnmjDVcON/Iw22zB0JGGN4Ayhdu901MzgECKfwACM/19Va8aBGUHL5R/9QwAALCdi8QAAEDpPgQRMQAAAMBcXVoBAADA3VwkBgAASuYaMQAAAMC8LeP8aA0AAADbuUgMAACULF2kEREDAAAAzNciTmUNAAAA251aAQAAULB/BSExAAAAwNzdxvmPNQAAAHzLRWIAAKBUV8E1GgAAAIAS/GwFAAAA251YAQAAUKjPQUgMAAAAUIq3cVprAAAAWOciMQAAUKLLICIGAAAAKMmlFQAAAHxLSAwAAJTovRUAAAAAFOWdFQAAAHzrxAoAAIDC1HH+sAYAAACA4ryOs7IGAACAwakVAAAAhfkYp7IGAAAAgOL8GWdpDQAAAAMXiQEAgJJUcT5bAwAAAECRPsX5yRoAAAAGQmIAAKAk6RrxlTUAAAAAFOt1nJU1AAAAdE6tAAAAKEQV5zdrAAAAACjan3GW1gAAAND5wQoAAIBC/GIFAAAAAMV7ZwUAAACDEysAAAAKcBbnc34BAAAAKJv/Tg4AAJC5SAwAAJTgQxARAwAAANC5tAIAAIDOqRUAAAAzlwLif8b5i1UAAAAAEH2N87s1AAAAuEgMAADM31VwjRgAAACAgYvEAAAA2YkVAAAAM/c5TmUNAAAAAIz8FOeTNQAAAKVzkRgAAJizqyAiBgAAAOBb76wAAADARWIAAGDeXCMGAAAAYJtVnNfWAAAAlM5FYgAAYK7qICIGAAAAYLuzOAtrAAAASndqBQAAwEx9DEJiAAAAAO72Nc6/rQEAACjZiRUAAAAzVMf5wxoAAAAAuEcb5601AAAAJfvBCgAAgBl6bwUAAAAAfEcVZ2ENAABAyYTEAADA3FRxLq0BAAAAgAfw90gAAEDRhMQAAMDc/GIFAAAAADzQOysAAABKdmIFAADAjFRxPlsDAAAAAI/wNk5rDQAAQIlcJAYAAObkygoAAAAAeKRLKwAAAErlIjEAADAXZ6G7RnxmFQAAAAA8wjLOj9YAAACUyEViAABgLj4EETEAAAAAj7cI/l4JAAAo1KkVAAAAM/Ex+A8+AAAAADzNn6G7TAwAAFAUF4kBAIA5uIpTWQMAAAAAT/TOCgAAgBKdWAEAADADn4OQGAAAAIDneR1nZQ0AAEBJXCQGAACmrg4iYgAAAACer7YCAACgNKdWAAAATNzHICQGAAAA4Pm+xvndGgAAgJKcWAEAADBhizj/tQYAAAAAdmAV57U1AAAAJRESAwAAT1U/8s+fhS783aWL4H85CQAAAMDu/BbnNnR/77QvyzhfvvNn2jzbrPK/AwAA4NmExAAAMF33hbmL/Pttzu/53ff+WQAAAADgeDVbvkvh8c0D/2xjhQAAUBYhMQAA7F+V53vfJRcP/OcBAAAAAPZt2/XjzYvK2/5MY3UAADANQmIAANhu27XfzUu9r7b8mSqIfgEAAAAAxlJovNr4+cs9v2+sDAAAXoaQGACAudqMfjd/Pt/4uQoCYAAAAACAY9SMPrdxbkc/i5ABAOAZhMQAAByzzfi3Hn3evAZcBSEwAAAAAACDNk/v+o7fpRB5aV0AAJRISAwAwEuowhD5pjB4HACPLwNv/g4AAAAAAF7a+MpxG4YLyJvBcWNVAABMnZAYAIDHqsIQBY8/b14Irq0KAAAAAIBC3BUft8HlYwAAjpiQGACAevQ5hcD9deDxpeDx9wAAAAAAwPOMo+L0+eaO74XHAADslZAYAGB+qjBcCRYGAwAAAADA9N0VHrdhuHg8/gwAAA8iJAYAmIZx+Fvn91X+PuTfLawJAAAAAAAIXXS8Gn3+kj83+XXtGACA/xMSAwAczjj+HYfCF/mtwnBZGAAAAAAAYB/aMFwyFh0DABRGSAwAsHtVGALgOr9vtnwHAAAAAAAwJW0YouPr/I5D4/HvAQCYACExAMDDVUEgDAAAAAAA8BBNfts4t/lzCo5XwZVjAICjISQGAOjU+V3EOYvzKn8efwcAAAAAAMBujePimy3fCY4BAPZISAwAzF0KgPsguM5vf0V4/DsAAAAAAACOl+AYAGAPhMQAwNTVG+956ALhKg8AAAAAAADlaPLbxrkN65FxHx4DAJAJiQGAY5auBY+jYJeEAQAAAAAAeK42T3Kd3z4yHv8OAGD2hMQAwCHVG+9FfvuAGAAAAAAAAA6lyW+KjL+EITIeXzkGAJg0ITEAsC/91eD+fbXxMwAAAAAAAExdk9/N2LgfAICjJiQGAJ5KKAwAAAAAAAD3G18vvs7vcvT9yooAgEMSEgMA9+nD4Dr/fJHf2moAAAAAAABgJ9o8KSq+CeuR8dJ6AIB9EhIDQNn668FVnjf57QNiAAAAAAAA4PCa/LpqDADslJAYAOavj4L792L0MwAAAAAAADB947D4SxAaAwAPJCQGgHnoI+E6zquwfmUYAAAAAAAAKJvQGADYSkgMANMhFgYAAAAAAAD24a7QuLEaAJg3ITEAHJcqTx8NX+R3YTUAAAAAAADAgTT5vQ7rl4yXVgMA0yYkBoDDqMMQCJ+H4dIwAAAAAAAAwJS0o7kN65HxynoA4LgJiQFgf/pQOM2b/FZ5AAAAAAAAAErQhC4ovgnr0XFrNQBweEJiAHi+Kk8dumC4/wwAAAAAAADA3fqrxddhuGLcBpExALwYITEAPFx/UTi956PPAAAAAAAAAOyWyBgAXoCQGAC+JRgGAAAAAAAAOF7jyLjN038HADyCkBiAklV56jhvRp8BAAAAAAAAmKYmdGHxbRji4sZaAGA7ITEApahDd1X4TX7TnFkLAAAAAAAAQBHaMFwu7iNjV4wBKJ6QGIC5qcIQCp/nt7IWAAAAAAAAAO7QhPUrxm1+AWD2hMQATFkd1q8M11YCAAAAAAAAwI70UfFNEBgDMFNCYgCm4CwMoXAfDS+sBQAAAAAAAIADaPNcjz431gLAFAmJATg242j4PH+urAUAAAAAAACAI9eG7mKxC8YATIaQGIBDEg0DAAAAAAAAMHd9VJwC4yYMV4wB4OCExAC8FNEwAAAAAAAAAAya0EXGt/ltrASAlyYkBmBf6tDFwuf5c2UlAAAAAAAAAHCvNnRR8U1++2vGALAXQmIAdqEK65eGaysBAAAAAAAAgJ1YhSEqHgfGAPBsQmIAnqIOQzic3jMrAQAAAAAAAIAX1YQuKL7Nb2MlADyWkBiA76lCd2X4InTR8MJKAAAAAAAAAOAobV4ubqwEgPsIiQHYtAjr4XBlJQAAAAAAAAAwWX1Q3MfFSysBoCckBiBFw3UYwuEzKwEAAAAAAACAWWtCFxRf57e1EoAyCYkByiMcBgAAAAAAAADG2tAFxelqcZMHgAIIiQHmTzgMAAAAAAAAADxWCoub4GoxwKwJiQHmp4pzGYTDAAAAAAAAAMDutKELi/urxUsrAZg+ITHA9KVQeBwOV1YCAAAAAAAAAOzZKgwXi9MrLAaYICExwDTVcd7ld2EdAAAAAAAAAMCBCYsBJkhIDDANVViPh8+sBAAAAAAAAAA4YsJigAkQEgMcr3Rp+DJ08bCrwwAAAAAAAADAlLVhCIs/hS40BuDAhMQAx6UPh9Pr6jAAAAAAAAAAMFfpQnET5/f8AnAAQmKAw0qx8DgeBgAAAAAAAAAoTbpO3IQuKnatGOAFCYkBXp54GAAAAAAAAADgbula8T9CFxW31gGwP0JigJchHgYAAAAAAAAAeLwUFTehC4uX1gGwW0JigP0RDwMAAAAAAAAA7E4buivFomKAHRESA+xeHw9fWQUAAAAAAAAAwF60cX4NXVjcWgfA0wiJAXZjEefn0MXDZ9YBAAAAAAAAAPBimtBdKU5R8co6AB5OSAzwdCkYTteH34cuJAYAAAAAAAAA4HBSRJxi4nSpeGkdAN8nJAZ4vBQNp3g4RcSuDwMAAAAAAAAAHJ8UEqeg+DerALibkBjg4a6C68MAAAAAAAAAAFOSrhSnoPjv+TMAI0JigPtVYQiIXR8GAAAAAAAAAJimFBF/ivO3OK11AHSExADbVXF+CV1EDAAAAAAAAADAfKTrxCkodqEYKJ6QGGBdHbqAuLYKAAAAAAAAAIDZShHxr6GLigXFQLGExACdOgiIAQAAAAAAAABK08b5a5zGKoAS/U8A9u5VS44sO8Dw7pFBs0k/Qcc8gXJYM0VDI5XgoMp+AknQSBI0kvQEqoJGU2Ie1CFks8lmzRxiZs5mY+Zz+kR2VkqqUl3yEpfvW2uvE1XDNqpZ69duITEwdfM0r0NADAAAAAAAAAAwZRdRgmLXiYFJERIDU1VFuUC8sAoAAAAAAAAAAKJcJ36SZmkVwFQIiYGpmaV5FiUiBgAAAAAAAACAT+XLxGfWAEyBkBiYkpM0r6NcIwYAAAAAAAAAgKuIiYFJEBIDU5CvEL+LEhIDAAAAAAAAAMBNiImB0RMSA2OX4+EcEc+sAgAAAAAAAACAW1il+XOa1iqAsRISA2OVw+HXaRZWAQAAAAAAAADAHTVpfrAGYKyExMAYVWn+mmZuFQAAAAAAAAAA3NOfwlViYKQeWAEwMjke/s8oMTEAAAAAAAAAANzXxzT/ZQ3AGP3BCoARWaT5Kc3MKgAAAAAAAAAA2JHvrAAYq3+yAmAkFmneWQMAAAAAAAAAADs2twJgrFwkBsbyx5qIGAAAAAAAAACAfWitABgrITEwdFWan6wBAAAAAAAAAIA9+WgFwFgJiYGh+2uamTUAAAAAAAAAALAnSysAxuobKwAG7GWaF9YAAAAAAAAAAMAe/XOalTUAYyQkBoaqSvP3cI0YAAAAAAAAAID9uUjzxBqAsfqDFQAD9TRExAAAAAAAAAAA7Ne5FQBj5iIxMFT/G0JiAAAAAAAAAAD2p03zJ2sAxsxFYmCI6hARAwAAAAAAAACwX6+sABg7ITEwRLUVAAAAAAAAAACwR02aM2sAxk5IDAAAAAAAAAAAANueWwEwBUJiAAAAAAAAAAAA2HiVZmkNwBQIiQEAAAAAAAAAAKDIAfFLawCmQkgMDNHKCgAAAAAAAAAA2LHcpPxoDcCUCImBIWqsAAAAAAAAAACAHXse5SIxwGR8YwXAQP13msoaAAAAAAAAAADYgbNwjRiYoAdWAAxUleZ7awAAAAAAAAAA4J6aNE+sAZgiF4mBoaqiXCUGAAAAAAAAAIC7Wqb5Ic3KKoApcpEYGKr8x1uVZm4VAAAAAAAAAADcQe5P/hwiYmDCXCQGhqwKV4kBAAAAAAAAALi9HA/nS8RLqwCmzEViYOh/0OV/EFFbBQAAAAAAAAAANyQiBui4SAwM3SzN36NcJwYAAAAAAAAAgOuIiAEuERIDY1Cn+ckaAAAAAAAAAAC4hogY4BMPrAAYgTbKZeLvrQIAAAAAAAAAgC8QEQN8gYvEwJj8Pc3cGgAAAAAAAAAAuEREDHAFITEwJlWUmHhmFQAAAAAAAAAARPkvXT8JETHAFwmJgbGp0/xkDQAAAAAAAAAAk5fj4XyJeGUVAF/2wAqAkWnTfExzYhUAAAAAAAAAAJMlIga4ASExMNY/BGdpvrcKAAAAAAAAAIDJOUvzL2n+YRUA1xMSA2P1tzRVmrlVAAAAAAAAAABMxqs0z60B4Ga+sQJg5N6lWVgDAAAAAAAAAMDo/RjlGjEANyQkBqZATAwAAAAAAAAAMF6rND+kWVoFwO08sAJgAt6nqdLMrQIAAAAAAAAAYFRyPJwj4l+sAuD2hMTAVIiJAQAAAAAAAADG5SzNX9L8j1UA3M03VgBMzLs0C2sAAAAAAAAAABi052neWAPA/QiJgSkSEwMAAAAAAAAADNMqzZM0jVUA3J+QGJgqMTEAAAAAAAAAwLAs0/wQJSYGYAeExMCULaIExQAAAAAAAAAA9NubNM+tAWC3HlgBMGH5X6l9TFOn+dY6AAAAAAAAAAB6J18f/kuat1YBsHsuEgNEzNP8lGZmFQAAAAAAAAAAvZGPxD1J01oFwH78wQoAfvuj88/dCwAAAAAAAADA8b2K0nO0VgGwPy4SA2zki8Tv0pxYBQAAAAAAAADAUayiXCFurAJg/x5YAcDv/pHm36MExd9bBwAAAAAAAADAQV2k+SHNL1YBcBhCYoDP/S3NxzR1mm+tAwAAAAAAAABgr/IV4n9N8zzKITgADuQbKwC40jzNX9NUVgEAAAAAAAAAsBfLND92LwAHJiQGuN4sSkxcWwUAAAAAAAAAwE69SvPSGgCO54EVAFwr/+cyzqP8w4vaOgAAAAAAAAAA7q1N8yTNmVUAHJeLxAA3V0e5TjyzCgAAAAAAAACAO3kT5RLxyioAjk9IDHA7OSLOMXFtFQAAAAAAAAAAN9am+TFNYxUA/fHACgBu5R9pzqP8Q4zaOgAAAAAAAAAAvipfIf5Lml+sAqBfXCQGuLs6ynXimVUAAAAAAAAAAHymDVeIAXpNSAxwPzkizjFxbRUAAAAAAAAAAL/LV4hfpVlZBUB/CYkBduNZmtfWAAAAAAAAAABMXBuuEAMMhpAYYHfmad51LwAAAAAAAADA1LhCDDAwQmKA3cuXiZ9ZAwAAAAAAAAAwEcsoV4iXVgEwLEJigP2oo1wnrqwCAAAAAAAAABipfHn4bZqXVgEwTEJigP2ZRblOvLAKAAAAAAAAAGBkmihXiFurABguITHA/p1EuU48swoAAAAAAAAAYODyFeLnac6sAmD4hMQAh5Ej4hwTn1gFAAAAAAAAADBQZ1Ei4pVVAIyDkBjgsFwnBgAAAAAAAACGZhklIG6sAmBchMQAh+c6MQAAAAAAAAAwBPny8Ns0L60CYJyExADH4zoxAAAAAAAAANBXF1GuELdWATBeQmKA48oR8Ys0z6wCAAAAAAAAAOiBNs2PaRqrABg/ITFAP9RRrhNXVgEAAAAAAAAAHMEqzds0L60CYDoeWAFAL7RpztP8X5SoGAAAAAAAAADgUC7SPOleACbERWKA/pmneR2CYgAAAAAAAABgv9o0P6ZprAJgmlwkBuif/4lynfjXNN+n+dZKAAAAAAAAAIAdWqX5tyhXiFvrAJguF4kB+q2Kcp34xCoAAAAAAAAAgB04S/M8SkwMwMQJiQGGoU7zLkpYDAAAAAAAAABwW02aV90LAL8REgMMxyzNszQvrAIAAAAAAAAAuKE2SkB8ZhUAfEpIDDA8VZTrxLVVAAAAAAAAAABXWKV5m+ZN9w0AnxESAwzXSZrXUcJiAAAAAAAAAIC1syhXiFurAOA6QmKAYZuleZbmhVUAAAAAAAAAwOQ1UQLixioAuAkhMcA4VGnepamtAgAAAAAAAAAmp03zPM2FVQBwG0JigHE5SfM6SlgMAAAAAAAAAIzbKs3bNC+tAoC7eGAFAKPyS/d/EPI/FJmn+dZKAAAAAAAAAGCU3qR5kuY/rAKAu3KRGGC8qjQv0iysAgAAAAAAAABG4yLN8zStVQBwX0JigPGr07yOcqEYAAAAAAAAABimJs2r7gWAnRASA0zHIkpQPLMKAAAAAAAAABiMNsoF4gurAGDXhMQA05Ij4mdpXlgFAAAAAAAAAPRaG+UC8ZlVALAvQmKAaaqixMQLqwAAAAAAAACAXlmleZvmTfcNAHsjJAaYtjpKUFxbBQAAAAAAAAAcXb5ALCAG4GCExABkiyhBcWUVAAAAAAAAAHBwZ1Ei4tYqADgkITEAl71M8zTNzCoAAAAAAAAAYO8u0jwPATEARyIkBuBTOSLO14mfWQUAAAAAAAAA7EUT5QJxYxUAHJOQGICrVFGC4oVVAAAAAAAAAMBONCEgBqBHhMQAfE0dJSiurQIAAAAAAAAA7qRN8zzNhVUA0CdCYgBuqk7zLsqlYgAAAAAAAADg69ooF4jPrAKAPhISA3BbiygXiiurAAAAAAAAAIAvakNADMAACIkBuKuXaZ6mmVkFAAAAAAAAAPymDQExAAMiJAbgPnJE/CwExQAAAAAAAABM2yrN2yhHuQBgMITEAOxCjohfRImKAQAAAAAAAGAq1gHxm+4bAAZFSAzALlVRguKFVQAAAAAAAAAwYgJiAEZBSAzAPlQhKAYAAAAAAABgfATEAIyKkBiAfaqjBMW1VQAAAAAAAAAwYAJiAEZJSAzAIdQhKAYAAAAAAABgeATEAIyakBiAQ6pDUAwAAAAAAABA/wmIAZgEITEAx1CHoBgAAAAAAACA/hEQAzApQmIAjqlO8zrN3CoAAAAAAAAAOCIBMQCTJCQGoA8WUS4UV1YBAAAAAAAAwAG1aV6lObMKAKZISAxAnyxCUAwAAAAAAADA/rUhIAYAITEAvbQIQTEAAAAAAAAAu9eGgBgAfickBqDPFiEoBgAAAAAAAOD+2hAQA8BnhMQADMEiBMUAAAAAAAAA3F4TJSBurAIAPickBmBIFmlO09RWAQAAAAAAAMA1mhAQA8BXCYkBGKI6yoXi2ioAAAAAAAAAuOQszXkIiAHgRoTEAAxZHYJiAAAAAAAAAEpAnC8Qt1YBADcnJAZgDOoQFAMAAAAAAABMzSpKQPw2BMQAcCdCYgDGpA5BMQAAAAAAAMDY5YA4x8Nvum8A4I6ExACMURUlKF5YBQAAAAAAAMBotFEC4rMQEAPATgiJARizKgTFAAAAAAAAAEPXpnkVJSAGAHZISAzAFFRRguKTNDPrAAAAAAAAABiEJkpA3FgFAOyHkBiAKckR8bM0T0NQDAAAAAAAANBXZ2nOQ0AMAHsnJAZgitZB8WmUa8UAAAAAAAAAHNcqzUWUC8StdQDAYQiJAZi6RZoXISgGAAAAAAAAOIYcEL9N86b7BgAOSEgMAMUiyoXi2ioAAAAAAAAA9q6Ncn34zCoA4HiExACwrY5yobi2CgAAAAAAAICda6JcIL6wCgA4PiExAHzZPM3TKJeKAQAAAAAAALifszTnUUJiAKAnhMQAcL0qyoXikzQz6wAAAAAAAAC4sVWUgDhfIG6tAwD6R0gMADeTI+JnUa4UC4oBAAAAAAAArtZGiYfPosTEAEBPCYkB4PYWUa4UV1YBAAAAAAAA8LsmzXmUgBgAGAAhMQDc3UmUC8W1VQAAAAAAAAATdhYlIG6sAgCGRUgMAPdXpzmNcqkYAAAAAAAAYApWUQLit2la6wCAYRISA8DuVFEuFC/SzKwDAAAAAAAAGKE2zas0F1FiYgBgwITEALB7OSJeRImKK+sAAAAAAAAARqCJcn34wioAYDyExACwX4s0p2lqqwAAAAAAAAAGJl8czuFwvkDcWgcAjI+QGAAOo44SFC+sAgAAAAAAAOi5Nsr14bMoMTEAMFJCYgA4rCrN0yhB8cw6AAAAAAAAgB5p0pxHCYgBgAkQEgPAceSIeBElKq6sAwAAAAAAADiisygXiJdWAQDTIiQGgOM7iRIU11YBAAAAAAAAHEgbJR4+S7OyDgCYJiExAPRHleZFlEvFAAAAAAAAAPvQRAmIL6wCABASA0D/zNI8S3MaJS4GAAAAAAAAuI98cTiHw6+iXCIGAPiNkBgA+m0RJSiurQIAAAAAAAC4pTZKPJwj4pV1AACfEhIDwDDM0zyNEhYDAAAAAAAAXCeHw2/TNFYBAFxHSAwAwzJL8yzKleLKOgAAAAAAAIBOvjic4+GzKJeIAQC+SkgMAMO1iBIU11YBAAAAAAAAk9WkOY8SEAMA3IqQGACGr0rzIs1JlIvFAAAAAAAAwLjl68MXUS4QL60DALgrITEAjEeOiBdpnkaJiwEAAAAAAIBxadO8ihIRr6wDALgvITEAjFMdJSg+sQoAAAAAAAAYvLM052kaqwAAdklIDADjVsXmSvHMOgAAAAAAAGAw2jRvo0TErg8DAHshJAaA6VikOY1yrRgAAAAAAADop4soAXFjFQDAvgmJAWB65lEuFJ+EK8UAAAAAAADQB22a8yjXh1vrAAAORUgMANOVI+IcE79IU1kHAAAAAAAAHFy+PnzevQAAByckBgCyOs1pmoVVAAAAAAAAwF614fowANATQmIA4LJ8pXiR5mm4UgwAAAAAAAC75PowANA7QmIA4Cp1lKD4xCoAAAAAAADgTtpwfRgA6DEhMQDwNVWUK8Wn4UoxAAAAAAAA3ITrwwDAIAiJAYDbyNeJT8OVYgAAAAAAAPhUm+ZtlHi4tQ4AYAiExADAXVThSjEAAAAAAABkZ1GuDzdWAQAMjZAYALgvV4oBAAAAAACYmjbK9eGzNCvrAACGSkgMAOxKFa4UAwAAAAAAMF45GL6IEhAvrQMAGAMhMQCwD/k68eMoYTEAAAAAAAAMWZPmPEpE7PowADAqQmIAYJ9mUWLip+FKMQAAAAAAAMORg+GzKNeHW+sAAMZKSAwAHEqd5jTKteKZdQAAAAAAANBD+erw+vowAMDoCYkBgEPLEXGOifOV4rl1AAAAAAAAcGRtlMvDZ1EuEQMATIaQGAA4phwS5yvFi3ClGAAAAAAAgMPJwXC+OpwD4qV1AABTJSQGAPpikeZxlGvFAAAAAAAAsA9NmvMo14cBACZPSAwA9E0VJSo+7b4BAAAAAADgPtrYxMOtdQAAbAiJAYA+q6MExQurAAAAAAAA4BZWaS6iBMSNdQAAfJmQGAAYglmakzRP08ytAwAAAAAAgCs0UeLhHBGvrAMA4HpCYgBgaKooQfFJ9w0AAAAAAMC0tVHi4bPuGwCAGxISAwBDlmPix2kWVgEAAAAAADAp+dpwvjr8Ns3SOgAA7kZIDACMwSxKVJwvFc+tAwAAAAAAYLRyPPw+yvVhAADuSUgMAIxNFSUoPum+AQAAAAAAGLZ8cfg8SkTcWgcAwO4IiQGAMcsx8eM0C6sAAAAAAAAYlDZKOJwD4qV1AADsh5AYAJiCWZSoOF8qnlsHAAAAAABAL62ixMPvuxcAgD0TEgMAU1NFuVB82n0DAAAAAABwXJfj4ZV1AAAcjpAYAJiyfJ04XynO14pn1gEAAAAAAHAwyzTnUeLh1joAAI5DSAwAUCzSPI4SFQMAAAAAALB7bZRwOAfES+sAADg+ITEAwLZ8mXiR5jTKxWIAAAAAAADubhWbeLixDgCAfhESAwBcrYpNVFxZBwAAAAAAwI2t4+ELqwAA6C8hMQDAzeTrxE/TnES5WgwAAAAAAMC2HA2/796VdQAA9J+QGADg9nJM/DjKtWIAAAAAAIApW8bm8nBrHQAAwyIkBgC4u3yZeB0Vn1gHAAAAAAAwEW2UePgsxMMAAIMmJAYA2I0qSkx8mmZuHQAAAAAAwMi0Ua4O54B4aR0AAOMgJAYA2L0qzSJKVFxZBwAAAAAAMFCr2MTDjXUAAIyPkBgAYL/ydeIcFOdrxZV1AAAAAAAAPbeOh993LwAAIyYkBgA4nDo2UfHMOgAAAAAAgB5ZXx4WDwMATIiQGADgOHJM/DhExQAAAAAAwPFcvjy8sg4AgOkREgMAHFeOiC9HxQAAAAAAAPskHgYA4HdCYgCA/hAVAwAAAAAA+yAeBgDgi4TEAAD9tI6KT9PU1gEAAAAAANzSMs15lHi4tQ4AAL5ESAwA0H9VbKLiuXUAAAAAAABXEA8DAHArQmIAgGGpQlQMAAAAAABsiIcBALgzITEAwHBVISoGAAAAAIApEg8DALATQmIAgHGoQlQMAAAAAABjJh4GAGDnhMQAAONThagYAAAAAADGQDwMAMBeCYkBAMatClExAAAAAAAMiXgYAICDERIDAExHFaJiAAAAAADooxwNv+/elXUAAHAoQmIAgGmqQlQMAAAAAADHJB4GAODohMQAAFQhKgYAAAAAgEMQDwMA0CtCYgAALqtCVAwAAAAAALuSY+F1PNyEeBgAgJ4REgMAcJVZlKj4cfcCAAAAAABfdzkevrAOAAD6TEgMAMBNiIoBAAAAAOBqbZRo+EOIhwEAGBAhMQAAt7WOih9178xKAAAAAACYoDZKNHyeZmkdAAAMkZAYAID7unypWFQMAAAAAMCY5WA4h8M5IG6tAwCAoRMSAwCwS5cvFVfWAQAAAADACORo+EOIhwEAGCEhMQAA+zJPcxqiYgAAAAAAhmWVpknzPko8vLISAADGSkgMAMAhVFGC4hwWz60DAAAAAICeybFwjobX8TAAAEyCkBgAgEOr0tRpHkeJiwEAAAAA4BjaKNHweZqldQAAMEVCYgAAjmkWJSZ+1L0zKwEAAAAAYI9yMJzD4RwQt9YBAMDUCYkBAOiTy1FxZR0AAAAAAOxAjobfd+/KOgAAYENIDABAX83TnKapu28AAAAAALiJHAtfjocBAIArCIkBABiCKravFQMAAAAAwGXLNE2a8+4bAAC4ASExAABDM4vtqHhmJQAAAAAAk5SvDX/o3tY6AADg9oTEAAAMXZ3mcZSouLIOAAAAAIDRWkWJht9HuT68shIAALgfITEAAGMyjxIWn3bfAAAAAAAM2zJKNHzefQMAADskJAYAYKxmUa4U52vFdfczAAAAAAD9l68Of+je1joAAGB/hMQAAExFHSUqznFxZR0AAAAAAL3RRrk6/D5KPAwAAByIkBgAgCmqYvtaMQAAAAAAh7VMcx4lIF5aBwAAHIeQGACAqZvF9rXimZUAAAAAAOzcKsq14Q/du7ISAAA4PiExAABsm8fmWvHcOgAAAAAA7ixfGm7SvO9eAACgZ4TEAABwtSo214rz61oxAAAAAMDV8pXhJjbhcGslAADQb0JiAAC4uTo2UbFrxQAAAAAArg4DAMCgCYkBAOBuqnCtGAAAAACYHleHAQBgRITEAACwG3W4VgwAAAAAjJOrwwAAMFJCYgAA2L0qXCsGAAAAAIbL1WEAAJgIITEAAOxfHa4VAwAAAAD9lq8Or8PhxjoAAGAahMQAAHBYVbhWDAAAAAAcXxslGP6Q5iLKFWIAAGBihMQAAHBc+ULxSZSw2LViAAAAAGCfmthcHV5aBwAAICQGAID+yNeJ69hcK66sBAAAAAC4hxwLN7G5OgwAALBFSAwAAP2VLxTXaR5FuVoMAAAAAHCdVWxfHW6tBAAAuI6QGAAAhqOOzbXiuXUAAAAAALF9cXhpHQAAwG0IiQEAYJhmUa4U52vFdZrKSgAAAABgEnIs3MQmHgYAALgzITEAAIxDvlBcRwmLT6wDAAAAAEajjU043HQ/AwAA7ISQGAAAxqlO87h759YBAAAAAIOSLw2vw+GldQAAAPsiJAYAgPGbxXZYXFkJAAAAAPRKE5twuLEOAADgUITEAAAwPVVsh8UzKwEAAACAg8pXhpvYxMMrKwEAAI5BSAwAAMyjBMWP0pxYBwAAAADsXBubcPgihMMAAEBPCIkBAIBP1bEJi2vrAAAAAIBby6FwDobXF4dbKwEAAPpISAwAAHxNvlK8jorn1gEAAAAAn8nhcBObcHhpJQAAwBAIiQEAgNuYxfa1YmExAAAAAFN1+eKwcBgAABgkITEAAHAfVWyHxZWVAAAAADBSTWzC4cY6AACAMRASAwAAu1SFsBgAAACAcWhCOAwAAIyckBgAANinKoTFAAAAAAxDE8JhAABgYoTEAADAIVUhLAYAAACgH5oQDgMAABMnJAYAAI6pCmExAAAAAIfRhHAYAABgi5AYAADokyqExQAAAADsRhPCYQAAgGsJiQEAgD6rQlgMAAAAwNetosTCP4dwGAAA4MaExAAAwJBUsQmL590AAAAAMD3rcHh9cXhpJQAAALcnJAYAAIZsFtsXi4XFAAAAAOPUxvbFYeEwAADADgiJAQCAMVmHxTkoXsfFAAAAAAxPG9sXh1srAQAA2D0hMQAAMHZ1bF8tBgAAAKB/8oXhJjbh8MpKAAAA9k9IDAAATE2+VlzHJiyeWQkAAADAwTWxiYYb6wAAADgOITEAADB1VWyHxZWVAAAAAOxUvi7cxCYcXloJAABAPwiJAQAAtuULxXWUsHh9vRgAAACAm1t2sw6HWysBAADoJyExAADA19XdPOzemZUAAAAA/K6JEg0vu++VlQAAAAyDkBgAAOD25t3kq8V1mspKAAAAgIloY/va8NJKAAAAhktIDAAAcH/5QnEd23ExAAAAwBisrwyvLw63VgIAADAeQmIAAID9yFFxHSUszt+VlQAAAAA9t4oSDf/cvY2VAAAAjJuQGAAA4DCq2FwsXkfGAAAAAMe0vja8DodbKwEAAJgWITEAAMDx1LEdF1dWAgAAAOyJa8MAAAB8RkgMAADQH1WUoHgdF9dWAgAAANxRE+Xi8Ifuba0EAACATwmJAQAA+i1HxXWah7GJjAEAAAAua2NzbXgZrg0DAABwQ0JiAACAYZnFJi5+1H3PrAUAAAAmYxWbS8NN972yFgAAAO5CSAwAADB8VWxfLa6tBAAAAEajiRIL/9x9t1YCAADArgiJAQAAxmkdFK/j4rmVAAAAQO8tYxMN57exEgAAAPZJSAwAADAddWzHxZWVAAAAwNG0sX1puLESAAAADk1IDAAAMF2z2FwuftR9z6wFAAAAdm4VJRr+ECUYXna/AwAAgKMSEgMAAHBZFSUoziMuBgAAgNu7HA0vu2mtBQAAgD4SEgMAAPA1VWzHxbWVAAAAwG9EwwAAAAyakBgAAIC7WIfFD7u3thIAAABGTjQMAADA6AiJAQAA2JVP4+I8M2sBAABggETDAAAATIKQGAAAgH2qYhMVPwpxMQAAAP0jGgYAAGCyhMQAAAAcWhXiYgAAAI6jjRIK/xyiYQAAABASAwAA0As5JM5BcZ3mYfddWQsAAAD3sI6EczTcdD+vrAUAAAA2hMQAAAD0WR0lKl7HxXMrAQAA4AuaKKHwx+5trAQAAAC+TkgMAADA0KyD4stx8cxaAAAAJiFfFM6h8Ico14aX3QAAAAB3ICQGAABgDKr4PDCurAUAAGDQciDcpvk5NheHV9YCAAAAuyMkBgAAYMzqKFHxd91bWwkAAEDvrK8M58nRcBslHAYAAAD2TEgMAADA1FThejEAAMCxfHpluO0GAAAAOAIhMQAAABR1bF8vzjOzFgAAgDtZXxn+EJtYuLEWAAAA6BchMQAAAFyt6qaO7cAYAACAjSY2V4aX3aysBQAAAPpPSAwAAAC3l2PiqnsfxSY4BgAAGLMcCLexHQy31gIAAADDJSQGAACA3aljExULjAEAgKFqu/kQm1h4aS0AAAAwPkJiAAAA2K9ZlMvFeb679D2zGgAA4Mja2ATD6+/GWgAAAGA6hMQAAABwHAJjAADgUNoQDAMAAABfICQGAACAfvlSYFx1AwAAcJ1lmlUIhgEAAIAbEhIDAADAcNSxiYofhcAYAACmKgfDbZqfL30vrQUAAAC4LSExAAAADN/6anF+H0a5alxbCwAADF4TJRL+eOm7tRYAAABgV4TEAAAAMF5VN3WaP0YJjfPMrAYAAHqj7eZDmlWUy8LL7hsAAABgr4TEAAAAME11bELjh7G5aAwAAOxHE5vrwsvue2ktAAAAwDEJiQEAAIDLqvj8ivH6dwAAwPXWl4RdFwYAAAAGQUgMAAAA3FSdZhYlLv4uNleMZ1YDAMCEtLG5JvxrlEvD62gYAAAAYFCExAAAAMAu1LG5XPwwSlxcWwsAAAO1DoPbNB8vfYuFAQAAgFEREgMAAAD7tL5gXIXIGACAfvlSLJx/11gNAAAAMBVCYgAAAOBY1pHx+v0uSmy8/h0AANxXG5tLwr/GJhJurAYAAABASAwAAAD0V33p/WNsXzYGAIC19SXhD93PTWyuDQMAAABwDSExAAAAMERVbF8vfti9tdUAAIzOOgpu03yM7SvDK+sBAAAAuDshMQAAADBGdZSwOIfG62vG658BAOifpntdFQYAAAA4ICExAAAAMDXroLjq5rtL35X1AADsxfp6cH5/vfRzYzUAAAAAxyMkBgAAANhWfTLr0NhFYwCAq10VCq9fAAAAAHpISAwAAABwO+ugeP3+MTaBcW09AMAIrYPg7EP3Np+8AAAAAAyQkBgAAABg9+ruXQfHD7u36gYAoE/WV4PbNB+7t43tgBgAAACAERISAwAAABzep1eNs0fdu/49AMAutLGJgn/uftd07zogBgAAAGCihMQAAAAA/VR1IzYGAK7ShkgYAAAAgHsQEgMAAAAM1+XIuO7e7+LzABkAGJ6me9s0H6NEwctP/jcAAAAAuBchMQAAAMD4rS8Yf+m6cdUNAHAY60vBl68Ir3/XdgMAAAAAByEkBgAAAGCt7t4qNnHxw/g8QgYAPtd075cC4cvXhAEA4P/Zu/PkqK60f/AHS4AYJTELsElXxdsR3dERqP7sjo4gWUHBCkqsoGAFwAqMV4C8AuMN/EhWgHi736h3LBIP5REQkwEDpb5PDlYiJCGJHO7w+UQcp5AwyvvcVOrcc7/3uQAAuSFIDAAAAMBm1dJy0LjeeZxMy0Hj3q8DQJE103KH4AgCP0pvh4J7vw4AAAAAhSNIDAAAAMAgRbh4qvNxvfPYGzrW6RiAYet2CQ63ej7f6DzqHgwAAABAZQgSAwAAAJAXtbTcybj341NrfB4AQjMtdwWOx3urfL43PAwAAAAAdAgSAwAAAFBUtbQcKu7tbNzb8TjUlQqgUBo9H/d2DO4NAzfTckgYAAAAANgiQWIAAAAAqiQCxlOdj3vDx+FMz8e1pPMxwIdqprfDvkLBAAAAAJAzgsQAAAAA8H71no9XBpBPpbdDx71hZYCii7DvQs+fm9m41/Pn3kBwaCgZAAAAABSHIDEAAAAADFb9PX8+nd4OHgsiA/20Mggcbq34c+M9fwYAAAAASkqQGAAAAADybWUH5JTeDRtPrvJ3Vvv/gOJodkavCAQ/WvG5xgb+PwAAAACAVQkSAwAAAEB1rBUurq/yuVPZqK3yeR2T4V2NVT4XnYDvrPL5hc7XejWT8C8AAAAAMAKCxAAAAABAP6wXMK6v8/+dWedruiqzVc20fjB3tc6+vV9bXONrDaUFAAAAAMpEkBgAAAAAKLKNho23EkqeTP0NMtfS6l2e86LRx39rrW6862mmjXXljX97wUsfAAAAAAAAAAAAAAAAAAAAAAAAAAAAAAAAAAAAAAAAAAAAAAAAAAAAAAAAAAAAAAAAAAAAAAAAAAAAAAAAAAAAAAAAAAAAAAAAAAAAAAAAAAAAAAAAAAAAAAAAAAAAAAAAAAAAAAAAAAAAAAAAAAAAAAAAAAAAAAAAAAAAAAAAAAAAAAAAAAAAAAAAAAAAAAAAAAAAAAAAAAAAAAAAAAAAAAAAAAAAAAAAAAAAAAAAAAAAAAAAAAAAAAAAAAAAAAAAAAAAAAAAAAAAAAAAAAAAAAAAAAAAAAAAAAAAAAAAAAAAAAAAAAAAAAAAAAAAAAAAAAAAAAAAAAAAAAAAAAAAAAAAAAAAAAAAAAAAAAAAAAAAAAAAAAAAAAAAAAAAAAAAAAAAAAAAAAAAAAAAAAAAAAAAAAAAAAAAAAAAAAAAAAAAAAAAAAAAAAAAAAAAAAAAAAAAAAAAAAAAAAAAAAAAAAAAAAAAAAAAAAAAAAAAAAAAAAAAAAAAAAAAAAAAAAAAAAAAAAAAAAAAAAAAAAAAAAAAAAAAAAAAAAAAAAAAAAAAAAAAAAAAAAAAAAAAAAAAAAAAAAAAAAAAAAAAAAAAAAAAAAAAAAAAAAAAAAAAAAAAAAAAAAAAAAAAAAAAAAAAAAAAAAAAAAAAAAAAAAAAAAAAAAAAAAAAAAAAAAAAAAAAAAAAAAAAAAAAAAAAAAAAAAAAAAAAAAAAAAAAAAAAAAAAAAAAAAAAAAAAAAAAAAAAAAAAgD7apgQAAABQSLXOWMtUNmY3+G9NbuLv5sFCNh5t8O821vnaYuffAgAAAAAAgEoSJAYAAIDBiXDu1AY+t1aQdzNhYPqr2RkrrRZijs8trvhcQwkBAAo5X/9Q5oEAAABAoQgSAwAAwOpq6e2OvytDBqdWfF3ol/U009vB5Pj4Xs+fV4aRG0oGABRMfYtfW21uvZ5BhH/zajNzwvfdteN9d+NY7eI4AAAAoAIEiQEAACi73qDByrDvmZ6PBYHJq2ZaDiFHuONOz9caa3wMALCe+nv+vHKubM5cXWsFkFfOS7tWCyQLKQMAAECOCRIDAABQNPU1Pu4NOlSpSxms1Bv2aKblzsfdAMf7utEBAMXSO/c1P6YoVoaLVwsmN97z/wAAAAB9IEgMAABAHtQ7j70dznpvbyz4AIPRGy7uBjcaK74GAIxG79y4O18+3fm8zsDw7nz1Vs/HKy+eM7cFAACANQgSAwAAMEj1zmMtLYeCz6zyOSC/mj0juht3Qxk6GwPAh+mGgbuP3QvphIRhsFYLGT9aMfdN5rvk/PeHYDwAANA3gsQAAABsRS0th4Drncdud7TerwHl1w1YNFM7aNxcMQDAvHk5MHwmCQpDUTV6Pr61yucFjxmWm9n4IhvzSgEAAPSDIDEAAAArrXcL5W4AAmCjut2Lb6W3Q8dNpQGgRGLeXOuM02k5PAxUU2+oOOa991bMjUNDmdiim53fO1ezcUU5AACADyVIDAAAUD21FcMtlIFR6YaK76TlcHFDWQDIsXrPPPpMcjcO4MP1ho7j8VHn4+68uDtPhq5ukDjMZ+OCkgAAAB9CkBgAAKB8uoHgWno7KNwdAHnXDVPEuNfz8aLSADAk3fl0PAoMA3nR6Dx2A8crQ8jmy9Vwd8XvpNj3Z+1/AABgqwSJAQAAiikCDREYrnf+fCbpKAyUn4AxAINQ78yjT6d2MKuuJECBNTsj5sh3Op/rzpm7X6PYllb5XOzjC2k5WA4AALBhgsQAAAD5VU/L4WBdhQHW1g0Y30rtYEQ3YAwAvbpz65hnn07LXYcBqqaZ3g0bNzqPLtTLv6V1jovOOhYCAAA2S5AYAABgtHo7C3fDwt3PAfBhuoHiO0n3YoCqERoG+PC5dPeCvUdpOXzcHYzO0nu+Hp2J55UJAADYKEFiAACAwaultwPCZ5LOwgCj0kzL4eJGEi4GKIuVoeFZJQEY+Ly6O+4lQeNhWtrA37majStKBQAAbIQgMQAAQP90u5zFY7e7cF1ZAHKvmYSLAYqkO+c+k5YDxADkb47dnWc/6pljN5Tmgy1t8O/Np3Z3YgAAgHUJEgMAAGxeb2D4dM/HAJRHM7VDDhEuXkgCDwCjnn/X03JwuKYkAIUX8+vFzny7mXQz3oylTdb5fHKhJAAAsA5BYgAAYDVTyQmGIDAMQK9GertzcVNJAAZyLNIbHK4rCUDldLsX3+o8LiQh415LW6jnefUDAADWIkgMAACsdCW1T9ifrdA21zqjno1TqR1cEBgG4H26t2aOgIOuxQBbn4vPpuXQsHk4AOvpDRk3O6P7uapY2sL/E/U526kVAADAWwSJAQCAXtezMZfaQaiyBonrqR1WiA7D3cDwlF0PQJ/E79DeYLEO/wBvq6W3uw3XlASAPs7Fm9m4l5a7GJcxOLu0xf8vjk0uZWPeSwUAAOglSAwAAIQI0n6Zlm8b3EjFDxL33hI5QsO1pLsZAMPXDRTfScvBBoAqqSXBYQBGq9kZZelivPSB/3+Eia95WQAAAF2CxAAAQARub6Z3Q7ZFOl6opeXuwt1OwzW7FoAcaqblrsWNJFgMlE/Mw+tJcBiA/Isg8UJn3Ov5OO8B46U+/Bvz2bjgJQAAAARBYgAAqLYI3EYn4lqBjhd6Ow2f6Xw8ZVcCUFDNJFgMFNtUZ27+5yQ4DEA5rBYwbuTo+S316d+JbTqfituZGQAA6BNBYgAAqK4I4EYn4rVCuNMpHycS6p2h0zAAVdBMgsVA/p1Lyx2HZ5UDgArN1ZudufpC5+OFETyPpT7+W/H8zzvuAACAahMkBgCAaprLxmdp/U6+Z9Pouq1EMOFyEkoAgG73s26wWLcwYBRm09vhYQBgWczTP8/GjSF9v6U+/3txjHE2jSYUDQAA5MC4EgAAQOXMZeN6zp9jLQkRA0Dq/D6McbHz5zi5/1VqhxUaygMMcD7eGxyeUhIAWFO9M0cvqvg9H3ctu5SNebsTAACqR5AYAACqJboQX9zg362N8HnqgAIAq+sGi6Nzf3QOa6R2t+LoftZUHmCLIkBUz8afO481JQGATSn6WlbMBa53Hq/ZnQAAUC2CxAAAUB1xMmBuE3+/pmQAkGtxkv9cZ8TFQs3UDhZ3OxYvKhGwjtn0dtdhAGDryjL3juOK09m4YJcCAEB1bFMCAAAove7tCWc3+f9dzcaVET3nWjbu2nUA8EEaaTlUrNs/EHPsemoHh891jhMAgP4Y5nn3pSEdS5xPLk4EAAAHNAAAQOFtNUQc4hbp50f43JfsPgDom2bSrRiqqJ6NP3ceZ5UDAAYi5tbTQ/x+w1ozi4sRzzp2AACA8hMkBgCA8oqgQISIt9pprJHaJwtGRZAYAAYnfs9HqDguHGoqB5RGLb0dHtZ1GACGM7ce5hraMNfMFjvb5g4nAABQYoLEAABQTh8aIg6NNNog8d3UDkIAAIPVTO1A8a3OI1As9aTrMACM0rDv6jXsi+8jTHzBsQIAAJSXIDEAAJTPXDaul+CYIYLQdbsTAIYqQgKNtNyt2G2MIX/iYsFz2TjTedR1GABG62o2rgzx+43qLl4RJp63uwEAoHwEiQEAoFwuZuOzkhwzCBIDwOjFLYy/SO1QcVM5YGSi03CEhv+cdB0GgLy5lI1rQ/x+SyPc1vnUDhQDAAAlIkgMAADlEV2I5/r8b36aRhcaikD0RbsVymt8fDxtz8Z6Pvroo7Rzx46RPcc3//xn+u2339779169fp1eZwNKLuYEESiObsUN5YCBii7D9dQODus6TOVsdA64I/s7Y9nfHZWX2Tzxn9l8cT3x9ZcbmE8ChXZ2yPPjpRFvbxwTRJjY3UsAAKAkxpUAAAAKL0IFEbqdG8C/XUujCxI/smshP1aGOVYLd4yPjbfCwev9f1W0VsDkxcsX73zu+YsXG/p/YURiXnCxMyI00A0V31Aa6NvPWLfrcF05KOIcMeyamHjn703snNjQ/2uemFoXp71+83rdv2eOCLlTtUDtuc685WwSJgYAgFLQkRgAAIotQsQ30+Bubzzsjiq9rmTjsl0M/dcb2ujtCvzRto9aXd26VguBMForQyO9YeTersg63zECvaFiYQLYuAjinEnLgRwYiZgbftTp7LvyrhG9IWDh33zqvRgt7qbxz6V/vjM/FD6GgRr2OfelnGx3zPtj7XDBSwAAABzUAAAAo1HLxpdpcCHicCkb10a0fec62wdsUG/ooxsC3rF9ORQiGFxd3XBJhEd+e9UOGAuWMEARJPgitUPFTeWAd+bw9bTcdXhKSRiEtS4c650b9oaHMTfszgd754jAhkSYdnrI33MpZ9t/IblLCQAAFJogMQAAFFOEh6MT8aCDB1dTuzPwKNQ72wh0dMMe0TV4LB47QRAhEPqlt5Nxt5vdmwiYdD7X2+0ONihCxd1OxTqVUeW5e1wk9+c02IsAqYjfLxjrzAl77yphXki/54XdsHF3TujOF/CORmp35R2mpRzWIcLE814OAABQTONKAAAAhVNP7U69updBCUUwpBsOHh8bb3WQEwhhWOJ11g0nrdfBuhsqiW51r9+8/r1znQ52rGK2My6ndnfiCBRHt2KhYspsKr3ddbimJGxUt3tw97EbEu7tMAzDnhfuSbvf+Xo3UNydD3bnhy48o4IWlaDlejbOpHagGAAAKBgdiQEAoFjmUnthflgaafhdVXot2eWUVZyU7wZEJnZO/B4YgTLoDRULlrCGCFxEqLjbrRiKrpbaXYfPdB5h3Xng73eV6ASFzQUp41wwOhi/etN+7M4HoYRGcTevPK+Xxdz+QhKwBgCAQhEkBgCA4riS2t38hqmRBInhg3Q7CscQGAbd61hVb6i4kYQOKI56ancdjuBwTTno5S4T8K5uwPjFyxe/zwfjEQruUjauDfl75n29LO4+cta8HgAAikOQGAAAiiG6EM+N4Ps2s/HpCLdbkJhCWRkaFhaBzdG9jo7eTsXCB+TJVGqHhiM8XO/8mQrrBoWjo/BY9rGLxmBr4oKymPc97wkYQ4FEYLYxxO83m43bBajLYqc2C14iAACQf4LEAACQbxFOiBDxKG+PPMrjhpupHdKAXGoFhicm0q5OaFhoBAaj28W4FSx+1Q6X6GBcGREmvtV5bCoHIzCblsPDs8pRXdFhOOZ6ERR2wRgMfu4Xc70IFrcCxuZ95Nuf0nDDsvXUXi8rgggTn0/DDVoDAABbIEgMAAD5FSHiODEw6sCCIDF0RGBkz+7drfBIhEmA0ep2rPvtVTtgontx6UVA44skVMzg5+ARHD7TedR1uGK6XYZbweGx8Va34fgzMFox13vx8kU7YCxYTL4Me92snooTJO66kI15LxUAAHBgAwAAbE6Eh6+nfHQ9G3ZnlV5fptF2Y6bioutchEj27NrdetR1DvIvgsWt7sXCxWXXTO1A8RfJ7ZLpz9y7ntpdh+vKUR29oeEd23e4wwQURLdj8bPnv7YeY/4HIxIdd6eH/D1jrnKzgLW6lo1LXjIAAJBPgsQAAJA/EWSIEwJ56X52No3uFoRXsnHZS4Jh6nYd3r1rt+5zUBIRLmmFil/9ll50wsWUSrMzV/kqtcPF8D4xz66n5eBwTUmqM8+bmJhIO7fv0GkYSiTmdr8+/zU9+/VX8zyGLeagZ4f8PWPucrOg9ZpP7TDxopcOAADki0vrAQAgX+ay8VnK1y2U3c6Z8h8cj4+nqX37WwFiXeignD/j+/buTft6Puf22KVS68yhYkQoIcLEtzqPQgp0xcV6caeLP6d83PWDIYhOwzEmdrYfgXLa2bkwYHpyqnUBWQSKnzx7KlTMMJhrbs5cZx52Vu0AACBfnB0FAID8mMvG9Rw+r1jgH1V3v1KdVJiamkqzs+3cSjzGn8OpU6dSrVbb1L+1sLCQHj161Pq40Wi89cjGxK2sW8HCPXt1o4MK6obLpifbf46gSXQrft4JF8ctsynmr9u0HCqOeVX8cux2Km4qT6XE5KqejTOpHSB2cVyF3tsFh6G64gKyyf37WyPmdxEofvL0qbndZidUnfWL3nWMycnJ3z/eiGazme7du9f6eHFxsbWOEeIx/lwSd7xaNi1eRLezcT5eDsoBAAD5sE0JAAAgF6IL8cWcPrer2bgyou9dTwW8XWOcWIsR4eAzZ868deJt0OJEXZyUu3PnTitYLFz8rgiVRHg4QsQAa9GxuJQiqBC/GL/qPFI+ERg+05lD6jpcAXExWNxRQnAYeJ8IE0eo2LzuXbF2EWsWsX7RXc/oXvg80IlZJ1B869at1lpGjAKuYVzKxrUhf8+Y59wswUsv0uTnzcsBACAfBIkBAGD0olveXI6fX3TwOz+i711POT85Eifc6vV6On36dOtxWIHhjYqTcjdu3EhfffVV67HKIjg8uW+/7sPApkUHuwidPHv+a+sxbplN4S125ji3Oo9urVxMMfHqDQ9TctFpNALDe3btbj3GHSYANiPmcQ8eLaZnv/5a6S7FsZbx17/+NZfrGBEw7r1AutvJOKfOpuEHYWPOc7NEL8cL2Zj37gQAAKMlSAwAAKMT7V2+TPkPPTRS+8TIKNSycTdXO21qqnWi7c9//nPrMU6+FUV097l69Wqan5+vzA9ZhEum9k9mY7+gSR8tLS0pApUWt8l+8eJFq6tdfEwpREIlOhXfSG6xnGeznblzNzg8pSTl1+06vHvXbheEAX0TIeJHTx6nxcePKxUojnWMy5cvtx6LIi6QjkBxdC6OC6RjbSNH/jSCuWPsvJsle2lGV+dL3pkAAGB0BIkBAGA0IvQQi/5FuOVyI40uSBxykVicm5trhYfPnTtX+BdfnHi7cOFC62RcWW0fH0+T+yfT/r17BYiBgXr1+nWro92zX5+5VXZ59HYrjnlQU0lGRnC4oiIwvG/P3laAOLoQUz3btjl9xfA8efo0PVh82JrXldlnn32WLl68WPjtiA7FX3zxRV5CxaN4s4o50c0SvkTnUztM7E4hAABQkYMbAACoughERCfimmOHDRlZkDi6DUennggPRyfiMoluPmfPni3dD1cEiA9MT6f9e/cV8vnr9AvFFt3sHj99mp48faJTcblEl7lGWg4WCzcMdp5cT4LDldQKD2dzuAgPbxceBkagzIHi69evty6QLptY2/j8889boeIRiDnh9Ai+b8yRbpb0xzDm3WfNtwEAYPgEiQEAYLgiHBGL/UULRYzy2OFuGnLoenZ29vcAcZlFkDhOupVBdB2enpxMU/sndSAGcqHdqfhZWnz0qPTd7SpIsLg/ptLbweHZJDhcOREYjvBw3EVC52HoHHzrxjxyi48fpfsPH7YuEiuDWOO4fft2qfdZdCa+evVqmp+fH+a3jXngKK7QjrnTzTLvzmyc78y5AQCAIbEyBwAAwzOXjesFfe61NLrbejfTkILE0XU4bvVZxi49a21vGRycnm4FiMfGxlb9ui6/wChEOC7em2I8f/EiPX7yJD399VlpAikVN9sZ3XuD9waLF0Y4ZypK3U6ndgBmVkmqK+4esX/f3rRrYpdiAPk7Vs7mb/E+1Q0UO/bPv7ijVHRd/stf/pIuXbqUFhaGkkF1MdmAdmdqB6XPd+bYAADAELisGQAAhmMuFTdEHKLDSmNE3ztOHtQH/U2iQ8/NmzcrcYItxEm1P/3pT4Xeht27dqWjh4+49TVQGG/evEmPnz5Ni48WdSkut2ZqB4q7weJGBWtQS8vB4TPDmMuRf60LLCbb4Tx3kABWk8duzK9evUo/P7ifnj57VujaPnz4sDLrHYuLi60w8RC6E1/NxpURbGLcPuvLirwtXMjGfAIAAAbO2VYAABi8CBDPKcOWRQCnPshvUMUQ8fnz5wv7/COEcuzIER3sgMKJzunTk5Ot8fzF81aHu1+fP1eY8ql1xrkV85kYd3o+LksXu5inRWD4VOex7iVAr5izxfvent27N/3/5jFUCFTL9u3b0/Gjx1pztx9++qmwF4NFsDY69lZBrO3Etkag+MaNG4P8VqOay1Xprg7XO/PqK96NAABgsKzCAQDAYJUlRDyqLiup830vD+ofjxNMd+/erUyIOE6iXbhwoXVCrYgOHjjQCqLoYgcUwtL7/8rL316mh48epcdPnqhX9TQ741bPx3kNGNfScpfhmDSd6fkcrGr/vn1pMhsu/gLKJC4Eu//wQSGf+9zcXGXCxCHWPT799NNBrn+M6u5dV9IA18lyaj61uxMDAAADoiMxAAAMRgQsbqZqdQkppOhGXIUQcbPZbHUgGnA3noHZuXNnOnb4SPa4w4sWKI4NXMLfen87cqR1ocT9Bw8Eiqul1hn1Vb7W6Dze6jz2BowbA5i3zq54TpNpOTRsPsumRID44PSB1l0kGOzvEGD4Dh6YTnv37E4/379fuDtLzM/Pt0K1ESauwjpIbOO5c+da2z0gi34ihmauMyc9q+4AADAYVvIAAKD/atn4MpUrdHFqhN97YZD/eFE7825UBIivXr06yBNnA3fowIFWGAUgLG2kzW8BReAuAsXxnhe3zS5aMIW+q694XPNXfWdsVjckDH2ze9eubM42nXbt0oEYKLe4EOzk8ePt7sQPitWdOC4ubjQa6fLly+nixYul31exJjJAC34ahirmr9G04YLaAwBA/7mmHQAA+qu7qF22YEYjtbt+jEK9U9OBuXnzZqrX66XaYREc/uKLL1onCIsqTs7OtLoQ7/TOAlROBIl/uv9LevnypWIAuda9EEKAmH7Z5tQVBRJzte9//qmQc7ZarZb++te/prm5uVJ2KI51kQsXLgzqn4+r0qdHtGlXsnG5wj92UftYoxQmBgCAPrIaAwAA/VNP7U7EZezu1kglDhLHCbMIE8/OFruJdHQW+uqrr1qPRe+0PLl/fzp66HD66KOPvLPAECwtLSlCTj18tJh+efAg/fOf/1QMIFdinhZd1KcnNbcG+OmXX1rztqI6d+5c+stf/tJ6LLpYD4k7M127dm2Q36aRRrdOdiVVO0jcFSnxeWUAAID+ECQGAID+mMvGdccPAzPwhFuEiYt2a8+FhYVWx+Fbt261wsNlMPbRR2nm6NG0d89e7yoAHREi/v7HH9OTZ08VA8iFvXv2pJkjR130Bf0+6N7mtF2RxVzth2zO9qbgF4BFmPjMmTOtOzcV6YLrZrPZujNTBIiHcHF1LMKcH9GmXkmCxF1XO/UAAAA+kBUJAAD4cJE8/czxw0ANrVVm99aeceIsPs6TCA1HeDiCw/Fx0bsOrzSxc2eaOXqs9QhlodMv/fTr8+fp+59+TK9evVIMYCTioq9jR4+mfS76AljVq9ev0nfff59evHxZiu2Ji64jTByh4ggXxzpJntZKuhdYR4A4Ph6iUQZY4/sKEi+bT+3uxAAAwAcQJAYAgA8TXYjnKrKtf8rGwoi+90iSeHGyrNuJJz6OE2jD0A0J37lzp3UiLLrqDPmE2NBN7t+fjh4+0gqnALC26HD3y/376cHiQ8UAhirCw3HnCF2IgUEoUzfmN2/epB9/+Tk9evy4lPuqGy7uhopPnz79++cGuW4SayWxPnLv3r3fL7Qe4QXWl7JxbUTf+0oSJF4pFs3OZmNRKQAAYIvH5UoAAABbEmdGogvxXIW2ORbkGyP63jezUR/5Tl9xsixEyHiz4mTXo0ePWh/HSbAYIU6EVdHhg4eycdC7Chumyy+k9OTp0/T9jz8U/tbZQP7FhV5x14i9e/YM7XuWKVAIVFdc+PXjzz9Xbrt710zW6mDcDR93g8Er9YaEc7pWMso1sitJkHg1ESa+kEbXBAEAAArNahwAAGxehIgj2Dpbse0+n40bI/reuQgS018RSjl65Eia2j+pGABbEN3uvv3+H+nZr78qBjAQu3ftTiePH3fXCIAtevLsafr+Bxd/ldAo79oVjQ0u2gWrivT52SRMDAAAmzauBAAAsCkRHr6eqhci7m77qILEbk1YMmMfjaXaJx+niZ0TipETuvxCAd9Lx8bSqZMfp5/v38/GLwoC9FXcMeLQAXeNGDbdmKFc9u/dl3Z8vCPd++ZrYeJyGWVQdVb51xTNH26ndmfieeUAAICNEyQGAICNi4X66Iw7pRRDdycb55ShHCI8fGJmJnvcqRg5IrQCxXXk0KG0Z/fu9M1336U3/3yjIMAHie7Dx4/NpH179yoGQF+OgXemP5yqpW/+8V168fKlghSfi93zL5pA1LJxRSkAAGBjBIkBAGBjIsQai9BVDhGf9jLgQ01MTKRPP/6k1UWzKnT6BYYhgsR/rNXS199FQOWFggBbm6vt3Jk+Pn4ibd++XTEYOhe2UWY7duxItU9OpebXX5urFd+CEhTC5WycSu3uxAAAwHsIEgMAwPvNpXaIuOpGGaLW7aUEWiHiTz5JYx+NVWq7BSKAYYmASrzPfv/Tj2nx0SMFATZl39596cSxY5W64AtgmKLjey2bqwkTF541quKYS+3OxOftNwAAWJ8gMQAArO9KanewoL3wPiq6vRRcO0R8qn/BFF1+AVYV77MnZ463Hu8/eKAgwIZMTU6mE8dmFAJGyAWI1TCezdHiwq+733ydXrwQJi6oO0pQKPVs3EztMHFTOQAAYI3jVSUAAIA1RRfiOWX4XU0J2Iq+h4iDk+wA65o5cjTt2jmRvv3+H4oBrOvEzEyanpxSCIAhGeuGib8WJi4onW2LZzYbt7NxNmlWAAAAq/pICQAA4B1xFj06VcwpRW40laCYIkT8h1On3CIbYNi2bUtTU1Pp5PHj3oOBNUUHcyFiIA/zlqqNsbHx1gW3ccxM4QiiFpP1XgAAWO/QXAkAAOAt3UXlWaVYVXTuaIzoey8pf7EIEQNltFTA30YvXr5Id+/dS2/evLEDgZaYn0Un4v179+XvybnzBFAhMT+7+/U9nYmL5U9ptGHiWLes2w0f5FI2rikDAAAssyIHAADLIjz8ZTZqSrEmQWI2ZNfERPr0VC2NjbkRDkAeRDjl78LEQGqHiHXBBMiHuHYi5mcxTxMmLs5uG/H3v500QOiH+WxcUAYAAMjHgQ4AAORFLMBHRw/39V3fKDt23E1C3oUQ4ZQ/nKq1wsQAG7HkWpGhECYGhIjzTTNmqK7fXr1K//33v5un5d9iNqZHfvhEvzSycb6zXwEAoNLGlQAAANJcNj5LQsQbMcoaNZMgce4JEQNbsc217kOxa2JX6z367/eaQipQ2XmaEDFAHu3Yvr31Hu2ir9xbUIJSqad2Y4kIEzeVAwCAKhMkBgCg6uaycV0ZNmxSCVjP8WMzafeuXQoBObC0pFEV74oLPYSJoXqEiMk7FxVB+6Kvj4+fSM1vvlaM/NK5tnziLnW3s3E2CYoDAFBhgsQAAFRZdCG+qAybMjvC7x2L+XW7IL+OHTmSDkxp7A15sc390VlDXPDxx9qn6X+ad4WJoSI+Pn68FVADIN/279uXjh87lv7xww+KkU93lKCUYjErOhNfysa8cgAAUEWCxAAAVFV0IZ5ThkJ5pAT5dWB6Oh07clQhqASdfimD6EwcXeS/+e5bxYCSi+6W+/ftVwjIKRd/sdLhg4fSixcv04PFh4qRPzoSl1eEia93Hq8pBwAAVSNIDABA1XQ7TMwqxZbUlYCVIox24tiMQlAZwh6UxcHp6daN5L8WJobS+vjEiXRgalohAAomuhI/f/E8Gy8UI18WlKD04g52p7NxQSkAAKgSQWIAAKpEiLjYnKzJobGxsXTq5MdpfNzhJR9Gl18YjegoHwGVn+//ohhQtp/vqWkhYiDXXKC3tjjG/vSTU+k//ue/05s3bxQkP3Qkroa5bNSycd4+BwCgMsfoSgAAQEVEeDhCxFNK8cH+lEYT6q139iE5EiHiCKEBUGz3vv0mPXjo9tlQFpP796fax58U6jkLFAK869Hjx+nu1/cUIke/rnLwHFyFOzyx/nk2CRMDAFABWkYBAFAFQsT9pY60HJw+kA4eOKAQOabLL7BRJ2eOp+fPX7RuoQ0U266JifTJiZOCuQA5ttH36KnJyXT40KH08y/uHpEDeQiT1u2GoYo15bupHSZ2pzQAAEpNkBgAgLKby8Z1ZeirUQWJG0qfHzt27Egnjx9XiJwTIAI2Km6f/S9//GP6t3//m9tnQ4GNjY2lT0+daj1izgaUQ1zw9fTpMxd8jZ4gaTXFOmg0qLiQjRvKAQBAWQkSAwBQZhez8Zky9F1047BwXnF/rH3aCp1VlU6/QBmNj42l/+0Pf0x/+6//VAwoqD+cqqWdO3YqBEDJnPr44/Tv5mijtqgElRVh4i9TO0w8rxwAAJSRIDEAAGUVXYjnlAH67/ixY2n3rl2VroGucUBZ7d69O318/ET65h/fKQYUTHSs3Ltnj0Jgbg1lnKNlx+AzR4+l73/8QTFG544SVF6sN59J7UAxAACUiiAxAABlEx0iogvxnFIMzJkRfu9GNup2wei0Tl4emxnMP67LL0AuHDl8OP364nm6/+CBYkBRDoL2T7Z+dgEor5mjR9Pi40fp+fPnijEaOhIT5lJ7/fmC1wQAAGUiSAwAQJnEIu7NbMwqBQzGqU9ODe4f14kMYH1DvOAiuhI/efo0/fbbb+oOObdjx47WLe+B4tGNmc2qffxJ+tt//odCjMaCEtBxLn4cs3E2CRMDAFASgsQAAJRFLRtfJiHiYRhljS3Oj9DRw4dbHYkBGJEhho3GxsfTHz/9Q/rbf/y7ukPeD4Q+/iSNj1vqB6iCOCY/fuxY+scPPyjG8FmTolesj95N7TCxkDkAAIVndREAgDKIhdvoRDylFEMxyjrfSe2uHwzZzh070vGZGU2DgVIaYqPfQomgyscnTqZvvvtWMSCnIky2b+9ehQCKx8Hllh05fCT98uCBO0cMXx7Cohoo5Ev37ngXsnFDOQAAKDJBYgAAiq6e2p2IhYiHq5aN5gi+byMbZzr7nSH6+OTJNDY2phBAKcmxrO3okcNp8dFievL0qWJAzkTYf+boMW/EABUTx+a1T06l//zv/1KM4clLN2Lrn/kT+yTWpiNMPK8cAAAUlSAxAABFNpeN68owErU0uiBxjFikj87Ef0lCxQO3b+++ND3pXBWwOUtJm9+y+PTUqfRv//7v6c2bN4oBOREhslOfnBLABSigfrx179+3t9WR3sVeQ7OgBLxHrFFH84MLSgEAQBEJEgMAUFRXsnFZGUZm1KnS6AQz3xm1bPw1tYPl0q4D8MnJk4oAbNq2JNxWFjt37EwnZmbS199+qxiQE8ePzbQ6ElOC35d+XQJbFBd7/eu//ZtCDMeiErABc6m9NnnBawYAgKIRJAYAoIiiw8OcMozUbDZu5OS5NLNxKRtXs3ExtUPFAsV9cujgwbRn926FgJxYWtLll9E4evhIerj4KD15+kQxYMQiQHz0yGGFAKi4HTt2tOZoP/78k2IMTiO1uxF/pRRsUNxBrZaNs0mYGACAAhEkBgCgSCIcGiHic0rBKmJx/ko2riWB4r45MXNcESBHtmlbyAj9oVZLd/6//1chYMRqp04pAuWY17h7AfThmH0m/fLgfnrz5o1i9EesLcWF81+l/FxAT/FEA4a7qR0mXlAOAACKQJAYAICiiEDozdReiGX0zuT4ufUGij9Luldv2cnjx9PEzp0KQSXo9Avvt3PHjtYFJt99/w/FgBE5PjOT9uxytwgA2sbGxtKxI0ey+dn3ivFhGtn4IhvzSkGfdNeyz3deXwAAkGuCxAAAFEGEh68nIWI2JwLFF7LxudfP5rVPRh5VCCpDp1/YmLjI5Jf799PL314qBgxZhPmPHT6iEGDuCW+JY/cffvpJV+KtaWTjaipO0POMXVYo3TBxrE/OKwcAAHlmpQIAgLyL8GcsuE4pRa5ESHe6YM/5SjYu23UbE0Gxk8dPKAQfRJdfKKfHT56kv/3nfygEDNm//OGPaXrKYREA74qOxO4asSnN1A53Ngr2vGONtG73FVLcOe2SMgAAkFc6EgMAkGdz2fgsCRHnURH3yZVs3Ei6E7//QHFsLM0cPaYQfDCd1qCcJvfvT/v37WsFioHhiJ85IWLAMQJrOXY0uhL/qCvxxkQH4ivKwJBdTO311AgTLyoHAAC5O15XAgAAcmoutQOf5Nenqd3BpWhi0f6zzmuMVUSIuPbJJwqRU7r8Annw8reX6fa//qtCwJD8n//7/5F279pVym0TKgToj+hI/O0/dCVex0JqdyFeKPA26Ehcjtfh2SRMDABAzuhIDABAHkXI86Iy5F4tFTNIHAv1ceLoVhJWX9XM0aOKkGPCNkAeTOycaF148v2PPygGDNjhg4fSnt27FQLAsdy6jh05Kki8tvmkEyz5EHdJu52N86nYoXYAAEpGkBgAgLyJYOecMhRCreDPfz61F+yjm4v7RHccPnQ47ZyYqObG6/QLsCknT5xIP//yc3rtFtowMGNjY+nE8eMKUVIuEAP6aXx8PDumP5TNz35RjLdFgPiaMpAjtdRej4wwcUM5AADIxTGlEgAAkBMR5PwyuT1fkdRKsA3d2wl+WZLt+WAzx45Vd+MFOQDWt+KCi/GxsdbvjW+++05tYFBzs6PH0sTOnQoBwIacPH5CkPhtcUeq+RJtz6xdWhqxFn6zhK9RAAAKSpAYAIA86C6cWgwvlsmSbEeEif/kNZhat8zeu2dPX//NJV1+AcpjlQsujh2bSd//8IOuxDAArbD+0aMKQUl/pbiIDwYhLj7Zv29/evzkcdVLsZjaF44vlGy73FGrfOLufKdTu3M2AACMjCAxAACjFsFN3WCLu+/KonuCqdJh4pljM33/NwUEANZX9Asu2l2JZ9I3331rZ0KfHTt6rHWbegDYjCOHDlU9SFzWEDHldTG1Q+KXOq9fAAAYOquQAACMUgQ2I7ipmwZ5UOkwcYRUjhw+7FUAMGRluOBiZqbblfi1HQr9mpu1QvrHFALK+ctfDRiow9mxffPre1W+Y8SFJERM8cyl9npkrE0KEwMAMHRWKwAAGJW51L51G44p8qaWjdupYgH3CBH/yx//6BUNlEbBG/0WTnQk/uZbXYmhXz4+cSKdPHFSIQDYkggSx4VeFRQh4vkyH+Z4dZf/xzcb55MwPAAAQ6YjMQAAozCXhIjJr2Za7kxcmTDx8ZkZex4oFc3+hv97pNWV+LWuxNAPhw+5UwRQxvmZCdrQ5mbHZqoYJL6Wyh0iphpqqb0mGWHihnIAADAsgsQAAAxbBIjnlKE06qmci9rR9SO62HxZhZ04sXNn2rt7j1cz8F5LGmCxhvGxsVZ3+398/71iwAc6cuhw2pnNz8pOoBBgcOL3yJ7sOP/Zr8+qssmNbFwq+TbWvbIrIxobRJi47B22AQDIEUFiAACGSYiYIrmRjavZuFz2DdWNGNiobUnoi7WdODYjSAx98PHJk0K2AGWbR4/gbT0u8rp7rxJB4sXU7t4KZRNr6bVsXFEKAAAGTZAYAIBh6HZRmFWK0ol92ijx9l3JxplU8q4vBw8cFFaBEVpa0uWXcojOdwcPHEj3HzxQDNiiyf37K9GNuOpMvYHhHOtPp7v3mlXY1AgRL9rjlFQ0ODiV2t2JAQBgYASJAQAYtFo2vkxCxGU1VYFtjBNSd8u6rXv27EkTwiowUoL8lMmJmRlBYvgAcacIvxYA6Ie4MCWO+Z89K3VX4mup3Be4Q5hL7bX1s0loHgCAAREkBgBgkGKBMzoRTylFaZ2uwDbGAn10/fiyjBt37MgRIUZKS6dfGL7J/ZOtC1RevHypGLBJEfg6MD2tEJTatuTYA4bp6OHD6e/lDRI3s3HVXqYiuuvssUa5oBwAAPSbIDEAAINST+3gpRBxuVVl/97ojHNl27AIfEFZCcnDaJw4fjz9z927CgGbFGEvIUsA+ung9IH092azrJt3KVWrO2vNK7ryumHi6EwsTAwAQF8JEgMAMAhz2biuDJVQq9C2RsePeipReHpi50Tat3evVzGbossv8D4HDxwUJIYtOHr4iCJAibnIjZEc909MpD179qRn5etK3EjtC76rpOYVTWqvS95O7XXKeeUAAKBfBIkBAOi3i9n4TBkqo1ahbY0uN9HtpjQh+UMHD3gFs2kCEMD77JqYSIcOHEy/PLivGLBBEfKKsBcA9NvU/v1lDBJfsGepuFifrGXjilIAANAPgsQAAPRTLGDOKUPl1LLRrMi2zmfjr6l9K8HCm5ycilSoV3Ae6PILlMzBg4LEsBknZmYUASgtFyOOeF524GD67vvvy7RJ86k661CwnsvZOJUE6wEA6ANBYgAA+iFuqRZdiOeUopJqqVoncKIr8c1S/OBOTnr15oUT60DJHDp4MP3Hf6kDbFSEvKo19TH3AXDsv2VX7VX43VxqNzw4m9p3UwMAgC0RJAYA4ENFiDhClbNKUVm1im1vozPqRd6IvXv2pu3bt5d+Zy3p9AswEuPj460w8S/3dSWG9zl44EDaPm6pHqCs8nDxRISJFx89KkM551N1uxGf8tPEGmJdPtbnozPxgnIAALAVVicBAPgQsUh5PQkRV12tgtsc3W/qRd6AqalqdCPW7Q5gfYO84EKQGDY4L3OXiEoxPwVG9bumJEHiKncjrnkls45umDg6EwsTAwCwaYLEAABsVXdxckopKq+KyYdGKnhX4qnJqS2HGHT5BSiPQQbaDh08lP33PxV565qd+ca9zmPvPOStX+tp/Qv7Zjc4Z59c8e/U7YLhiJ8V4VIABmlyfymWbuZTdbsRw0bEnP92ancmnlcOAAA2Q5AYAICtOJfanYiFiAlV7Uj9eSpwwGZ6aus/voIuAOtzwUXb+Ph42rt3b3r69KlibNxiap/0/yJtvJNY/D+Ndb7e6MNcb6oz7znd+XPNruqPvXv2pImdOxWCanAcASMzNVWKJbzP7UnYkOud+foVpQAAYKMEiQEA2Ky51F6MhK6qBspvpHYnnFrRnvjExEQr3AXAYLjgYtnhg4cEiTcubtV9LbWDwXnSDTQ3ej4X85+4uPAvqboXlfVnIj05JVwJwFDExStPnz0r6tNvpI1fZAWkdDkbp1K7OzEAALyXM8cAAGzGldRehIReVQ6PRDecz4r2pPft3SuvAhSSRr/FMzU1mdI9dXiPZjbOp2KFY+I5X+uMWmpfbPjX5I4lmzY5OakIUAEuMiIPWneKKG6Q+At70B0h2LS5zusmjjUWlQMAgPVYuQAAYKOiC/GcMrCG6VTNBekIyzws2pP+tFZLn5465VULwFD8r1u3FGFtER4+W5J5VMyLLiaB4k35f/6v/9udIgAYim+/+y7999//p4hPPeZJ0/ZgclklH3LMEWHiplIAALAWK5QAALxPhAC+zEZdKVhHdCVuVHC742TWjdS+tXdhTE9N6YgF/G5Jm1+G8Hvn4aIGWKsoU4i4Oy+6ko351L5jwzm7eH179+wVIgZKz7FnfsTdiQrqhr0HHyTWbW93jj0WlAMAgNVYpQQAYD0RIr6Z2ouN8L7XSlXF7TULFZQp8MlDYACEOxi0uI22IPE7yhYi7tVM7Y5n0Z34M7t6vZ+NPX7nADA0U1OFXbr53N6DD38LSO11/kupfeEfAAC8RZAYAIC1RHg4OhHXlIINvl6q2iEmtjtCQIU5I7d9fLtXLAzYkrvOwu9cwPKOMoeIe11L7TtW3EzVvuhs3Z8NwVqA8srjW/zExER68eJFkcrYTDqoQr/EnPx65/GacgAA0EuQGACA1UQo1Al/NmOy4tsfYeK5IjzR6Sk/1jAM25JgGHTtmtilCMsiPHwhlT9E3NUNTTu2WMVeIftqzQ1MDYBczMsKFyS+Ya+1uFsc/RR3DTndOS4BAIAWQWIAAFaaS+3FRCf62Yyqn9C4lQoSJI4wl853FNnSkk6/UDQuYnlLnKyvWlc9YeI1tDsSqwMAwxMXsTxcLNT1TF/Zay3mUPTbXGrfifB8qs5FjgAArEOQGACAXnOpfXszYHNuFOVnZ9euCXuLQhOEh2IaHx9Pr1+/rnoZrqXqdtUTJl7j5wLM34Bh2l6s3z0RbmzYazAw9c78PMLETeUAAKg2K5UAAHRFF+KLysAW1Su+/XFyKwIyue/MrCMxq9HlFxi0fXv3pYeLD6tcgmY2rlb8ZRBzpejI/KWfiG43YnMyAIYrOhIXyA17DAYu1jJvp/ZFfwvKAQBQXYLEAACE6KQ6pwzwQRqpCEFiHYlZhSATwMBFgNYtg9uBoEupfRFjpelGDBWaaydzbfJj+/j2Ij3dW/bY79zRgUG/vm525unzygEAUE1WKwEAqq27SDirFPRBPVX7lpNxgiv3Xb3H46Sh0Ohw6PIL8Lvt2yu9DHktuS33ynqcyca5qhdCuBCAYdtXrI7E5k/LrN0yaHGe4Hrn8ZpyAABUjyAxAEB1CRFDfzWK8CT37dtnTw2LwDbA8u+fvfvSTz//XMVNjy7EV70C3nGhcxxSUwqAMh8SOSbKm+3bC9OReCEbTXsMhi7uHHK6M18HAKBCBIkBAKopTtpHiNht8eineqp2t5gICi2knIfzy3Aid0mnX4DiqW6O6FJnjsC786bz2bhd1QLsmthVvbcBgUIANq6hBDAyc6l9wd95xzIAANUhSAwAUD1CxAzKpBLkO0i8a1c5AitCKADrc8FFbjSyMa8M686bolvz5Spu/K5dE+Y0ACWW5/f46anp9HDxYd5LeMerCEaqntrnEM4mYWIAgEoQJAYAqJa5bFxXBgZkVgnSrc7PWS7tmlg7sCJ0BlAeeQyubKtmS+KrXo3vdSUbf67iPPLVq9f2vvdlgBG9JxXiaTbsqbecVgJGIObod1M7TLygHAAA5SZIDABQHRez8ZkyMEC6XOd+UX3ts4XCDQDrc8EFm9RIAjAbdSEbt6u20U+fPTX/AoDVNTuDZdbcGOVr72Znzn5DOQAAykuQGACgGqIL8ZwyMGA6Euc8SLx9u0NAgK0S+PvQAlZuiy/Z6ZuaP0X35stKAaX8BaoGkDPT09PpwcOHeZ8bAPkRYeIvUztMPK8cAADl5CwyAEC5xSJfdCGeUwqG+JpbrHgNGtmo5/GJ7d+3z3l8IHc0+q2G169eV2lz55MAzGZdy8ZfslGr1FabmAHAam4pAeRSNCs5k9qBYgAASkaQGACgvLq3HdMllmGK11uj4jWI4FDdSwFgY+ToquHx0ydV2tyr9vimxYVo0cX5S6UAyjPHMckhp6/N/N8qwgVZ77K+S17MpfZ5hwtJMwkAgFIRJAYAKKdaap+Et8jMsE0pQbqT22e2bZuT2VARS9r8wqjcyEZTGbZcu0aq0AVZ5mUAsKqGErzDeht5ci61zz+cTcLEAAClIUgMAFA+ER6OTsQWmBnV6+9GxWugcw4wcsJp5O41WZ1N/dze/iDRlfi2MgCYizI449tzfXrYmgoUQ6wB303tMLGfWwCAMhwrKgEAQKnUU7sTsRAxozKpBPldPN8+vr0ItzCF3FpKuvwC62okHfT6MY+aT+1bJlMSAoUA+bJ/3/68zwWAYohzENHQ5ELSWAIAoPAEiQEAymMuG9eVgRGbVYKWhTzWYv++ffYMfABBfOA9ripB3+o4V4nfKgK2AOV7d/fW/qFuKcE7akpAjkWYOBqbRJh4XjkAAIpLkBgAoByuZOOyMpADNSVoaaYcBokjrCKwQh4tLen0C5Tid39DGfpWy6tlP7558uSxPV0Bpt6A96YtzQN4W00JKIBocHImtQPFAAAUkCAxAEDxxSLdnDKQEzUlaLmTjXPKABsj4A7ld//Bg7Jvom7E/XUtG39N7Q5npfTq9WshUwB4V0MJoLDmOvP3CBMvKgcAQLEIEgMAFFcsykWIWFiRvKklHWQaKY9d9CKsIrFSHbr8AgxLnCS/oQx9r+nnyV1XoNBcLAY5/dnM71NbsHeg8OJcRS0bZ5MwMQBAoQgSAwAUU4SIb2ZjVinIoVoSJM7p9juRXymCGwDDMp+cJB+E0nclFrIEgLcIEq+upgQUTJyzuJvaYWI/1wAABSFIDABQPLEQdz0JEZNfNSXIb5BaYOXDLOnyC8C7PleCgYhw9nw2LpZ1Ax8/eZL279tnT0MJbXMRJzl/hebUHftmVTUloIC6jVDOp/ad2wAAyDlBYgCAYonwcCzATSkFOVZTgpZGNup5ekIyxP2ooSICrGe1Cy7uP3hQ5k2+kdyJYZAipF3aIPHrV6+FDQFgmc6lUC7dMPGF1L5AEACAHBMkBgAojrlsfJaEiMm/00rQksNbnG/LbRBWp1+Acljt90zJr8H4wl4fqGZqhw7mlAKguHMB7KMNEiSGcoq7K8Z68SWlAADIL0FiAIBimEvtBTcoAmH3trgl57k8PaE8n851shlgfS64yKVmanckZrCuppIGiZ+/eF76nWeOB8Am5lWLyrAqF+xTBnGXkVgzvuRnHQAgnwSJAQDyL7oQX1QGCmRWCVp00gGgb4ocxrv/4EFZd4tuxMPRzEYjG/Wybdjz5y8EbQHKNWFTgw/7fc/qXLBPWcyl9rrx2SRMDACQO4LEAAD5Fl2I55SBgnGCoy1/C+LbtgmrAPTQ5ZcPNK8EQxNdievKQKGYdwPenzbjlh0DlRBB4tvZOJ80YQAAyBVBYgCAfIog5pfJyXKKK167jYrXoOFlAJBvLq4YjtevXpdxs24knfOGPa+KetfKtFGPnzwWNgWANvMqqI6Y099M7TBxQzkAAPJBkBgAIH8iRBwLabNKAYW3mHLUoTlyKrIqwKBp8stKjx4/KuNmfWHPDl10Jb5epg16Vc6QPbhQB3L/M5rLp9W0Z9ZUVwJKqHsO5EJypxcAgFwQJAYAyJcID0cn4ppSUHD1pKNEWEhO+AAVIztEBcSFQjeUYeii5p+lHF2k9aFevX4lcAkAbQ0lgEqKCwVPZ+OSUgAAjJYgMQBAfkSIOK7Cn1IKSmBSCVqaeXoyEVQRVoHiWtLql4J69Phx2TZp3l4dicVO7S+WZYMel+9nAyrP8RaFeJ2m3L1Om/YKVFrM7+OcyKXOnB8AgBEQJAYAyIe5VLLb9FJ5s0rQck8JgH4RTKGoXr16VbZN+sJeHZnPU4mCxN7bAaClqQRrqikBFTGX2uvJZ5MwMQDASAgSAwCM3lwSIqZ8dNZuW8jTk9mWctl5CEZqKenyC4P066+/lvF3+4I9OzLN1L71eb0sG3T//v108OBBexYoPBdGFGpn5e0Z3bJT1lRTAiokgsS3s3HeMRcAwPAJEgMAjFYEiOeUgRLSkbgtVx00Fh89SocOHrJXoIdwPQzWr8+fl22TdCPOxz6oK0MBfscKFQKwMU0lADpq2biZ2mHihnLA/8/enUbJeZX3ot/inostBlu2nIPBNirbjMYgCQK2g4lbJMxDpExA4Nilm5yEKUFa98NZ95PkT/ees9ZdsnMT5kTtBGMSA2oBtiEBq4TB8oTVsjzLlkqSNVottQbLGlirb+2qFnjQ0EMNe7/v78faR1lnZdj17Op6p//7bADoHkFiAIDeESKm6CrBw6BaSpM5evTXKXYeoqhGdPoFCtmRuN+qJrEGS0JBdsDYu39fOOccL3oB5Cy3y+x9+/amNqW6bxHwHPE8P4aJ57v+AgDoHkFiAIDuO3YjTMdWiq4SPAyKhkMqQRcZYrr6ffOFA2KQuFAdiQdCYrsNlFh/Yywowgf5dXzRC6dBAF109NfJHXtqVuWE+pSAEouNWCqNsVgpAAA6T5AYAKC7Ko2xLAgRUw7xe15ThjAYEnrwY4vpvI3o8gtk5uCzhepIvNyKJuP6UJAg8d59e4VOASizuhIAJ7GoMWaEVndiAAA6SJAYAKB7YqgydiKephSUhO96SzKdC6doSZw9QXAgNwcPFiZIHI/n/VY0GfXQelkr+xc0jx49ajVxvgp0+d5Acsd0gJOpjp73zwl2iAEA6BhBYgCA7ugLrU7EgpWUyUwlaFrTGHNTmEgMqniw/2K6/AJ0zjPFCRIPWM3kxK7ES3P/ELuGhpyfAVBmK5XgpGYoATQda9ISOxMPKgcAQPsJEgMAdF41FOABN0yA4HxLPZWJDO/dazWOQ3gH4OQm88JFgToSL/dNSM6A6ywgqesKO8CQiYMHn01pOrqLnlxFCeA3joWJY2diYWIAgDYTJAYA6KwFjbFEGSipPiVoqqc0mW6GZnX6BSiGiR47CvQCSzyW60icnhg86g+tFzezFrsS/870c6woAF1x8NmkXvQSBgTGIzauWB1anYn7lQMAoH0EiQEAOid2x6oqAyUXb+6WvbtMPZmZdLlBlk6/ACdX9Bcujh49WpSPIkScruVFuOZqdu6ebjGBjLn2Y+IEiYGJiM9eKo2xWCkAANpDkBgAoP1icDJ2Ia4qBTS3nKuVvAb1VCZy9MhR30iAhBT9hYtdu3YV5aPc4NuarBjyHh69BstWYlvMt+PHzTcTgLEaVoKT6lMCOKFFjTEjtLoTAwAwSYLEAADtFR9grwit8CTQ6gxBK0zc81oM7x3WJRgovKJ3+c3JMwefKcoxXKe8tPU3xoKcP8DefXuFbwEyleM19jOxE34aar5BwCRVQ+tZzJzgxQQAgEkRJAYAaJ94w2ppECKG56ooQVNdLQC6wwsT6TiYTkhlMgasZPJix+isg8RHj9o1wjEIoJTnaHWrAbRBfB4Tm7vEzsReAgUAmCBBYgCA9jh2s2qaUsDzzFCCpnoqE5FtACZCk18mYs9wIRpCXW8lkzcYMn9p6+lduwRQASijjUpwUppVwPj+XuLzmTlBmBgAYEIEiQEAJm9uaHUiFiKGF6soQVMyD8eGh4fDtGl+roDxkW9jvGKH1QJ0WT0WUCV9MfC9JOcPELtDvuxlL7OSZHyu4GQBcjlHS+xcixNz8wbG/zezOrQ6E/crBwDA+AgSAwBMTjW0QsTA8eme0lJPZSJHf/1rD/khISNa/VJQBelGfIOVzMZAyD1I/OzB8PKXv9xKAtBRw3v3pjSduhUBOiA+r6k0xmKlAAAYO0FiAICJW9wYi5QBTkr3lJa6EgDHI9hPUSUWUpmoASuZ1blW7GqY7UtsT+/aFX7nnN+xkuB8Djr8fU1qOjoSn1xFCWDC4nObGaHVnRgAgDEQJAYAmJj4VntVGWBM+hqjVvIa1FOZyPDwcPivv/NffSspOF1+odcOPvNM7h9hMHgRKDexg3S2QeLh4b3CiAB03JEjR1OZivOsU6soAUxKdfTvaF483VYOAICTEyQGABif2F11WWgFI4Gx/92UXT2ViRw5etRqUAKCWNBre4azf057g1XMTn9jLMl18gcPHrSCQH5n3V6AyM7edHaNqFsNoAv6GmNFaIWJ/e4AAJyEIDEAwNjFMGS86TRLKWBc4t+MrcFbN6srvZ7E0aNHPexlwkZGdPoFxmbn00/n/hGcu+RneHTd5mY5+b3FaJLmPBMg9R/qZGay0mKc0gwlgLaI96ZXN8ac0Np5BgCA4xAkBgAYm3izKXYirigFjJsHHy31FH5DCtAhkh4SDgLG4sAzz+T+EWpBt6pcLQ+ZBomj2CVy2jSbeQDkc32U35yH07kn4ObEqVWUANrmWJOYhaG1kwkAAC8gSAwAcGoxRBxvMnmiCxNTUYKmeioTEQZNiy6/QNEM5//Syg1WMVuxI/HSbP92BImz5hQbyEHcpSgRuoIC3TZt9Foh/nudcgAAPJ8gMQDAyVUbY0kQIobJmKUETRtTmMTwHk1/UiPYDRRNAYLEA1Yx36/f6Ppl2ZV4eO9w47zAZh4AdM6RdILEdatxSu5HQ2fE5z0zG2O+UgAA/JYgMQDAiVVDxt2sICEefLTUU5jEkaNHShFc1eUXoHd2Pr0z5+nHEKq3bvK2POQaJB721SNPXowDx5oJqFuNU/JiPnRONbR20Zvn+g8AoEWQGADg+OJb6QuUAdqmrzFqJa9BPZWJPPPMM+HlL395oYstzABwcp184WJP3t3vl/t2ZC+GwbN8IXTn0087hwGgDGpKACSgrzFWhFaYuK4cAEDZCRIDALxYfOhcVQZoK12JEwsSv+IVr5jQ/6xOvwDF0KmwYjzGxO73GRvw7cje8Og6ZtmVuAwvfEHBjqhKQDbiCysJHas5OffRoDti5+/VjTGnMQaVAwAoM0FiAIDfijdo4xvoto2D9ot/V2UP5tRTmciRo0cn/D+rSx7AyZX9hYs9w3tynn48VxFsKYbYWTrLIHEMeV348ldYQQCKbI0SnJL709A9x54LLWyMfuUAAMpKkBgAoEWIGDprhhI01Ruj0utJxJDXBeefbzUAOqDsL1zsGc46h7vcN7gwYih8aY4THx7ea/UA5zx0xM6nd6YyFV0/gdRMG71+iP9epxwAQBkJEgMAtMLDMURsyzjonIoSNNVTqMXRI0c99AWyUvYuvznZsWNnztMfsIKFMTy6ntl1Jc41jO/cEiCD3+qQzG+1HSBOraIE0BNLGmNmY8xXCgCgbASJAYCyEyKG7uhTgqZ6CpPYnfe280AJCajlY0++x5gYOhVqKZbYYTq7IHHsFuk3D8C5aSfsSKcjcc236JQqSgA9Ux39G5znGhEAKBNBYgCgzKoh0+1uIVMxsF/2m68bU5jE0SNHgnwKoMkv7XbgmWfCkcYxJlM3WMHCieHwJSHDl0ZjV+KzpnnXNReC30A2v1dpTKNuJYAM9IVWA5o5wf1sAKAkBIkBgLJaEFoPlYHuiR3AayWvQT2FSezeoyMxELxQQNvt3Lkj16nHB8MDVrBwjq1rNbeJP/300+Hss86yggC01Y6dSXQkrluJMZmhBNBz8V72htAKEw8qBwBQdILEAEAZxS7EVWWArqsoQToPzJ45eDC84uUvtyLQASNa/VJSGb+oIkRcXMtzvPbbM+ylL/KgGzPk48jRZHaNEMYbm4oSQBLiNiGxM/F8140AQNEJEgMAZRJv+sQuxFWlgJ6oKEE6D8wOHDggSAwdIlRDWe3YkW1H4uVWr7Diw/7h0WvBfP6Wdu50LAGgrfbsGU5lKhutBpCZeC2xLLTCxP3KAQAUlSAxAFAWx94cn6UU0DMzlSAk8+Qudo0891XnWhEyossvpOzIkSO5diSOx2adpYotrm81pwk/88wzzc6RL/3fX2r1IGEC/+Tk4MFnUpmKjsRjU1ECSE7c6fKq0AoUAwAUjiAxAFAGldB6Y1yIGHprmhI0Dabwe3T0yFErQWYENSBlu9PpcjdeQsTFFztOV3Ob9M6dT4cLzj/f6gHQFgeeSSZIXLcaY1JRAkhSvK6I97hjmHhYOQCAIhEkBgCKLob1YidiAUbovT4laEriJvP2HdvDrCmaRJfdyIguv0B77NixI9ep32D1Cm9g9Pwrq2vCHTt3CBIDydKNOT970tk5om41gMzNDa2w/5wgTAwAFIggMQBQZH2h1YlYiBjSUQkeGg2GBELVCXUjoocEAIB2iS+oZCiek9SsXinEMHE1pwnv2LnT+QQARbsH4LxrbOyqB3n8nW4IrTDxoHIAAEUgSAwAFFW1MZYqAySnEgSJ96YwiQMHDgh9dJBOv0DZbM+zI/GAlSuN5SGzIHHsHOlcDSA9uf40J9KRuO4bNCaaYkA+f6txN8z5ri0BgCIQJAYAimhxYyxSBkhS7NZQK3kNaqn8Ru3evTucffbZvpUdIPgDlMm27dtznfoNVq804oP9uO1wVsGcHTt3hFf911dZvaTP+dQASF9COxJttBpAwcTri7grZgwT9ysHAJAzQWIAoGhiF+KqMkCydFVJSHyYOH369Gzmq8svQJp25NmNuB5sQVs2A7ldK+7YuTOc+ypBYgAm55kDB1KZSs1qjEmfEkB24nOpq0IrUAwAkCVBYgCgKGI4Md6smasUkLSrlCCdB2e79+wOM1772mwKp8svwMn16oWLbTuy7Eh8vW9M6SwPuQWJY0j/rW+1cjg3ByZ3PNm5M5WpDFsNoMDitUZ8TjXf7x0AkCNBYgCgCOLNmRWNMUspIHkVJWhKYmvt3bt3NwMAOv0CFEOvQl3bt2cZJB7wjSmdgVTOwcb8t7Vjh7AmAJMWdyNKhN0gxuZMJYBsxUY3lcaYE4SJAYDMCBIDALmL4eGlQYgYclFRgqb48Kyv15MY2r27+a+ACsDJeeHixDINEcfjcN3qlVIME1dzmvCmzZvDay+4wMpBUlw/kZfdo9f+CZx/MTbuc0P+f8MbQitM7LcPAMiGIDEAkLN4QyZ2Ip6mFJDd327Zb6LWU5jEgQMHfBsBxsALFycWO6Zm6HorV1rLQ2ZB4h2Nv7HXXvBaKwfAhO3esyeFadStBFAix3bRnNcYNeUAAHIgSAwA5KraGEuCEDHkqBIEiTemMpEYAHv1uef6VgJdp8tvMWzbvi3HaQ9YudKKaz+c03VkpmF9oKC8XJWfRLoRR2usxpjpSAzFcCxMPL8x+pUDAEidIDEAkKNqYyxVBshWfCBS9gBPMkHqAwf2N/5fQWKg+wRR8nfkyJGwbfv23KZ9LEhKeQ2EjLoSxy6S8W/tpS99qd9xAMZ/zf/MM6lMZdBqjJnGGVAs8VnWzMZYqBQAQMoEiQGA3MQuxAuUAbI2QwnSCTAN7d4d3iADAoWhyS/dlGk34uVWrvTid6Ca04Q3P/VUeN3FF1s5gB7K9eWJ3XuS6Uhc9y0CSiw+04ovCcQwsRdbAYAkCRIDADmJb25XlQGyV1GCUEtlIkPpbHMKtIHmkHRTht2I4wPbfitXese6UmfT7W/7ju2CxEkecx10gRyOITtSmYqOxGPTpwRQWNXQ2qlvThAmBgASJEgMAOQgPuBdFtxIhaLwt9ySRIBl27ZtkocwFlr9wots3LgxtykPWDWe812o5jLZGAITWgVgInan8fJwzUoANMUg8erGmBe8YAEAJEaQGABIXQzZrQitGyxAsf62y955Id4s7kthIkNDQ2H69Om+lXAyAlzwPPv37w/7DxzIbdrXWzlGLQ8ZBYkPNP7WYhDs7LPPtnIkclrkvAhyOX4cOXIkhanUrcaYVZQASvF3Hp95xTBxTTkAgFQIEgMAKYvh4diJuKIUUMi/71rJa1BPZSIxmHLOOef4VtJ1I7r8QrY2btqU43FXxyeOGRj9TmRzrRm7EnvxC4DxGEqjG3Hz1NFqjFlFCaAUjjXQmd8Y/coBAKRAkBgASFUMGcYbKdOUAgr7N14reQ2SeZCW0MNFSkY3O8jXtm3bcpuybsS8UAwTL8hlsps2bwpvueQSqwbOX2HM9uzZk8pUalYD4LiWNsbMxlioFABArwkSAwApqobWDRSguLwkkFBXxKGhoTAleCBeFCNBl1+g8+obs2ssN2DVeIEbQkZB4m3bt4cjR4+E0156mpUDYIzHjmRe/LIrxNjNVAIonXhNEu+VxzDxsHIAAL0iSAwApKYahIihDK5SguZ22knYml9XSU5CKBzotA0b67lNeSCl4y7JGBz9XlRymfD27TvCjNe+1soBvbnO0I05O4nsPjQcBOPGw4v3UE7V0NrBb47fTACgVwSJAYCUxABxVRmgFCpKkFZHnqHdQ+Gc6edYlZMYGdHpFyDalt8LKMutGicQQ+bZdCXeuGljMkFigUKAtMUQ8ZEjR1KYim7E4yNIDOUVg8SrG2Oe304AoBcEiQGAVAgRQ7lUlKAp3hSelcJEYihMkPjkBGYAWuobN+Y03djNqd+qcQLXh6yCxJucjwD05Fowvznv3j2UylSE4cZnlhJAqVUaY0VohYlrygEAdJMgMQDQa7HLQrwx4iYplE9fcEM0ma3qdg0N9SSYossvQF6GGseL/fv35zTlAavGSdRDQi92nUrsLBk7TE4/+2wr10Oy3EAW52yN40Ui1lgNgHE59sxsfvBSLADQRYLEAEAvVRpjWRAihrKyXWMIK0MrUN1zW3u0Tb2uegAnl9oLFxs21nMr4fW+RZzCDTldk657Yl0457LLrBoAJ7WtR9f4x6Ej8di5Rw48V9zFs9IYi5UCAOgGQWIAoFfijdH4VrUgIZT7d6DsXQLrqUwkdpeMXe5e+tKX+mYCJCS1Fy7q9XpO5RsMwiucWjwfXZLLZDdu3BiuECSmdwclNYAMHOtgn9D5GGPjPjnwQosaY0ZodScGAOgoQWIAoBf6QqsTsZujUG4zlSCdIHEUuxJfWKlYFaAUUuv0m4P40smuoaGcpqwbMWM9H4th4rlZ/B0eONAMh02fPt3KAXBcQ+mcrwkRj09FCYDjqIZWQ445jTGsHABApwgSAwDdVg2tLZkAKkoQailNZsvWrYLEQGlM0VVx3OobN+Y03fiAdcCqMUbLQyZB4mjb9u2CxOC8AU56nEiEIPH4VJQAOIFjO3zO99sKAHSKIDEA0E0LQkZbxgIdN0sJmuohkYdFW7dt9YAcmBRdfovt0ccey2m6MUSsWxPj+b7Ea9Usds15fN268NZLL7VqABzXtm3bUpnKGqsB0DbHwsSxM7EwMQDQdoLEAEC3xC7EVWUAXqASWkHaMquHRILEu3btCoePHA6nvfQ030xgQryMUFz79+8Pu4Z25TTl660a43Csg3UW16xxy/r9Bw6EV77iFVYO6Pz5XXB+l5ut6QSJBd3G5yolAE4hvvi4OrQ6E/crBwDQToLEAECnxRsbsbNTVSmA46gEQeKVjdGXymS2bt0aLrzwQt9MSIkmvyRgfX1DTtMdDIIrjN/ynK5bN9br4dIedSUWKgRIV0Ih4qhmRQA6IjbuqTTGYqUAANpFkBgA6KQYIo5bLc1SCuAE+oIHS0kFnbYIEkN65LVIwKOPPZbTdHUjZiJiR+J6SGSniFN5bN268NZL32rVADp5Gp7hbhvbdCPOWUUJgHFY1BgzQqs7MQDApAkSAwCdEsPDS4MQMXByM5QgrY7MMUic48NSmIiREa1+YSz2798fdu3alct0h0MrEAoTEb87C3KY6NDQUNh/YH945SteadW6yHkykLqtgsQ5qygBME7V0HoGN2f0WhgAYMIEiQGATog3LmIn4mlKAZxCRQnSergWg2KHDx8Op512mpWh8ISBYGw2bNiQ03T7gweoTFzsZr0gl8lu3LhRV2IAnmfrtq2pTGWN1RgX99GBiTr2PC52JvYSBwAwYYLEAEC7zQ2tTsRufgJj0acETbWUarF169Zw0UUXWRUmRJdfKJ5HHnssp+leb8WYhHpoPXzPYmedxx5/XJCYrvECFqQvoRBxCMJs42VXP2CyvyExTDzH7y8AMFGCxABAO1VDK0QMMB6V0AptlFlSn3+LIDGTIGQCxbJv375mt/pM1JxT0AbX53Jdu2toKBw4cCC88pWvtGoAhA31pE6DalYEoKtic5/VodWZuF85AIDxEiQGANplcWMsUgZgAipB6CepLT/Xr18ffv/K9/hmJmQk6PIL9OiYsGFDTtPVjZh2GGiMJSGTXXYeeHBtePcVv2fVoIO8KEcutm7dlspUdMMcvz4lANokvhRZCa1ndgAAYyZIDAC0Q7wxUVUGYILi1mu1ktcgqYds+/bvb44zdLdLxpQgvAD0xpo1a3KZaj20AqAwWcOj36UsrnFj98krf+/dVg2g5A4fORJ2DSWzi0TNigD0VGz6MyO0uhMDAIyJIDEAMBmxQ9OyoGMCMDkzlCC9h2xbtmwJZ775zYUv/MiITr8AJ/L0rl3NF0syoRsx7f4+VXOY6P7G3+iuoaFwzvTpVg1oO92Y81GvJ7WLxBorMm7ujQHtFq9nKo0xL7RelgQAOClBYgBgomKIeEVodRIFmAy/Iy2DKdVi/Yb14ZISBIk9GAc4sUcefSSXqcaHov1WjDafl9VD68F78h5Y+0B4b98c500AJbZl69bUjqOMT0UJgA7oC63nePNGr28AAE7oJUoAAExADLqtDsJ/QPt+U0jsQdtTW7Y0wyITGQAUwyOPPprLVAeCDku0XzZdrjfU6xM+b3OOB3ACU/Ia8ViQiOEgSDwR05QA6BDP8wCAMdGRGAAYr3izIb7B7OYm0C7TRkfZA0BJbf15+PDhZpj4/PPOG/f/rKAJwMmNjIwkP8cn169vHgsyca1vFR3Q3xhLcpho/Ft99LHHwpve+Ear1ilOb4GE7dq1K6XzNiHiiRHwAzrp2A6jC4PdfACAE9CRGAAYj2oQIgY6wwOTBB+2Pbn+SasC0AHd6Bw62bF+w/pcyhm7Edd9q+iA+JJbfy6TXV/fkF33zKwGQMIS6kYcrbQiAEmKz/WWNsYCpQAAjkdHYgBgrKqhdZMBoBNikLhW8hok9/ljN8q+37/KtxPIRg6dfnMQO9o9/MgjuUz3eitGh79f1RwmumHDhrB///7wyle+0qrRVnYbgfStbxwDElKzIuPWpwRAF8VdV2Y2xnylAACeS5AYABiLeGPBW8pAJ81QgqbYlTiZ7sz79u1rjjPOOMPKAFkQdmqPRx7NJkQcj5s1K0aHv2NJnZ+dzKOPPRbe9c53WjWAEokvkezatSulKTk3A0hftTEqjTEvtHZiAQAQJAYATil2Ia4qA9Bhs5SgKbmgSuxK/PbZs60MlJguv+XzkG7E8MLvWRa78zz66KOCxNBGXlAiB1u2bk1pOoNWZEL6lADo0W/PitAKE9eVAwAQJAYATmRaaN1EEO4DusFvTcvKkNjLGw898rAgMZScEE25PP30082RgXpj9FsxumAgtHbpmZb6RPft398MlJ1/3nlWDaAk1q9fn9J0alYEICvxnvzqxpgTvAwCAKUnSAwAHI8QMdCL3504yr6VWnI3bGOY7PCRw+G0007zLYV20uSXRN0/uDqXqd5gteiSeH7a3xgLcphs7EosSAxM1pTgRbIcHD58OKzfsCGlKa20KhMyUwmAHjr2PHBh8LIuAJSaIDEA8EIxPBxvGkxTCqAHvz+1ktcgBomHU/sNfuLJJ8NbLrnENxTaSTaDBMUwSvzNz0A8Vl5nxeii60MmQeJHHn00vOfK94TTTntpmw9bDlwAqUksRBzVrMqEuA8PpPA7tHT0X9faAFBSgsQAwHMJEQO9/g2qKUMzTNyX0oSefPLJcOlb3mJlyMLIiFa/MFExRBzDxBmIoc5hK0YX1RtjoDHm5jDZ2JV41kzNDQEmasqUPF6eWL9hfUrTGXR+NmEVJQASsSS0uqTPVwoAKB9BYgDgmGpovXEM0CszlKApbgXal9KEjgXLTjvtNKtD8nJ56A8pWnXXXblMtd9q0QMxwJ5FkHhwzRpBYucWQAk8uT6pIHHNikxYRQmAhFRHf5fmBS+IAECpCBIDAFHconWJMgA9NksJmmqNsSi1ST2hK3Gp6fILxbf5qafCvn37cphqf2h1h4VenKMN5nDOum//vuZ29xdfdJFVAyioxELE0UqrMiEVJQAS1Bdau5fOCcLEAFAagsQAQOxCXFUGIAGCxC21FCclSFxuOvFB8T308MO5TPVaq0UPXR8y2cnnkUcfESTGOSAUWPydT0zNqkxIRQmARMV79RtCK0w8qBwAUHyCxABQXtNCqwtxVSmAhH6XKkGXwSi5bndPPPFEOHz4SDj9tNOsTpuMBF1+gTTETsQPPfRQDlPtd55AAt/BRSGD0E/sVLl///5wxhlnWDWAgjl8+HBqHYnjPQwdKydmmhIAif9Gxc7E8xtjQDkAoNgEiQGg3Bf/un8CqakEAaGoluJvdAwT60rcPlOCDm9AGh7MI0Qc6UZMKt/DLLoSr14zGK56z+9bMZjIubpuzCRs/Yb1qU2pZlUmzP15IHXxeeKy0AoT9ysHABSXIDEAlE9l9KLfTUogRX3BA6hoZWMsSG1SDz78UHjrpZcmX7yREZ1+AcbjV/ffn8M04/lB3WqRgNiJK+7uk3wHwYcfeSRcftnldpQAKJgnnkwuSLzSqkzYmUoAZCK+THlVaAWKAYACEiQGgHKJ4eHYidiWaUCqZihBUy3FSW3evDns3bcvnJn4Ftm6hwGc3HNfuIjdiOP22BnQjZhUxK3br2+MRalPNP5tr1//ZLjkzZdYNcD1VEHE3/YnG7/tialZmQnT7APISTW0ni/OH70uAgAKRJAYAMqjL7Q6EQsRAymrKEFTvBE7GBJ8oPTEE+vCO97+DisEkLHnBoTuXLUqhynXgoAKabmuMb6Uw/X1qrvvnlSQWKAQIC0PPfxwiudpwmQA5TE3tO7hz/H7DwDFIkgMAOVQDa1thwBS16cEv7E8JBgkvu/++8PvvuN3rQ7ACzy3y28uWp3m9+YwVd2ISU02XYn37dsXHn7kkfCWS3QlBjilDN6deOiR5ILEK31xJqVPCYAMxXvWG0IrTDyoHABQDC9RAgAovMVBiBjIS0UJmmopTmrv3r1h586dVgfgBWLXztzGL1fdmcvxsOYbRoJiV+IsOnA9nF7oLJMfdsMwSjcSF18Oefrpp1Ob1oADBkApxd1ZVoRWh2IAoAB0JAaAYosB4qoyAJmJHQ3qypBuaOq++38VPvKhD1shoCty7PSbg/hSyKbNm3OYqm7EpCqbrsSbn3oqPLXlqXD++edbNYCM3b96dYrHQp0oJ65PCYDMxTDxssaY3xj9ygEAeRMkBoDiXrzHELE3gYEcxSCxjjYtAyn+lq9bty6ED1kcoDti51zaL74UkoFa0I2YtMWuxF8avQZPWgyfCRLj2At5e+LJJ1Obkns3AETxeeRVoRUoBgAyJUgMAMVzbDuhWUoBZGqmEvzGypBgkPjQ4cNh7UMPhrde+lYrBLnS5bfU9u7dG9Y++GAOU9WNmNRl05U4hs/27d8fzjzjDKsGkKHm7/i+falNa6WVmZQ+JQAKpBpazyfnj14nAQCZESQGgGKJ4eGlQYgYyFtFCX6jlurEYgBNkBgyptNgqf3izjtzOQbWrBYZyKYr8apVq8IHP/ABKwanPE1ynkR6Hnr44RSnpSMxAM8VG2JUGmNOECYGgOwIEgNAccTwcOxEPE0pgAL8ntEy2Bj1kGC4etOmTWHfvr3hzDPPtEowSpNfcnA4dpV/cG0OU9WNmFxk05U4htB+74ornL8BZCZ2In7iiSdSm1YtCIlN1lVKABRQvLe/IbTCxIPKAQD5eIkSAEAhVIMQMVAswsS/VUt1Yvfed5/VgeeIzesMI/WRyW93LehGTF5iV+J6DhNdddddVgs48fms/yT5nwcfeijFr8tyfzEAnEB8VhmfWfYpBQDkQ0diAMhftTGWKgNQMDFIrGNBy/LR3/rkrF27NrzvD//QCtFxI1r9QlscOnw43HffvTlMdaHVIjOxI+O1OVybxzBa7Ep8xhlnnPK/N4bXAOi9h9IMEg9YmUnrUwKgwI6Fiec3Rr9yAED6BIkBIG9LGmOBMgAFVFGC30j24VwMpD2wdm1421vfapXoqClTBJmgHe67777mb3fi+oOXichT/O4uyuE89s5Vq8KHPvBBKwaQwTXHuifWhb379qU2rXiuVvetAWAM4suWM4MXhgEgeYLEAJD3xXdVGYCCukoJnieGieemOLHYlXjm295mhTKkyy+USwwQ33vffTlM9VqrRcbiw/FlqU+y1ZX498KZY+hKXFZeYgJS8av7709xWjUrM2l9SgCUSGyING30emlYOQAgTYLEAJCfeLEdH0z2KQVQYBUleJ7lIdEg8cZNm8KOHTvCq171KquUGQEZKJd77703HDp0KPVp9gfd7chbfPmrlsP1euxK/OEP6koMkLLYiXjT5s0pTu0GqwPAOFUbY1ZjzAnCxACQJEFiAMhLDBGvGL3YBiiyyuhvnpuKLTGUsjTVyd1z733h4x/9qFVqGAm6/ALpiQHiDLoRx2O+bsQUQfwe96U+yQcfejC8+/d0JebFvGwG6bhz1Z0pTqveGINWZ9L6lAAoofhsc3VjzHMsAYD0CBIDQF4X2LETcUUpgBL97tWUoSmGqwZDoi+SPLD2gXDVe94TzjzzzNIv1JQgeAGk545f/CKHbsTXB92IKYZ4/tofWh23knbnnXeGD3/oQ1YMIEGHDx8Oj69bl+LUBqxOW7iBApRVJbQaJs0L7v0DQFJeogQAkIVZoxfWFaUASvbbx28lvXXomrUPNLuXdWoAMDF79+4N99x7b+rTjC/MXGe1KJBrQwY7a6x96MGwd99eqwWjOnk9YxjjHffd/6tmmNi9Cfe8AAro2O6rVaUAgHToSAwA6YsX0kuVASihmUrwPLHrz5JUJxdDape9813h9NNP78j/fmFigJMbGRk57v//z++4I4fpZxG6hHGoh1aX7UWpT/SXd94ZPvKhD1sxgMSsffDBVI9vtqJvj2lKANB89hmfASxUCgDoPR2JASBt1SBEDJRXRQmepx4SfmB36NCh8Njjj1slgB45Xie7vfv2NTvGZ3B8042YIrpu9PudtBhU27R5s9UCJxJGQqPZMX5vkh3jB/yxtI2OxAAtC0LrOagXLACgx3QkBoB0xQvnqjIAJdanBC8StxBN9mFT7Ho5a6ZG0kBxnKjLby5+8KMf5jBNnYcoquHR7/ey1Cf6i1/+MvzFJz/52/8PO0EA9Px3OVE3WJ22EJYDeL5qaN3znhPsVgQAPaMjMQCkSYgYoEWHlufrT3lyw3uHw5oHHrBKQGEcr8tvLmPTpk1h48aNqZe4FnS2o9gGRr/nSdu0eVPY9NTm33bDBCjV+V5aY926dal2Ix4MCe+SlBn3ugCO/9u42m8kAPSOjsQAkJbYjWCFC2WA36gED6qeK3ZkiIGUualOcOUdPw8zdSUGTiXzTr85iL/HGbjWSlEC8xtjQ+qTvOXWW8Pn/uazVivIUgO9de+v7kt1aroRt09FCQBO+PsYn5HOCxm8kAkARaMjMQCkd4EsRAzwW34TX2x5ypMbHh7OoQMm0GuptX4r2Fiz9oFQT/+3uD94MEg51EMGofnY/fLBB9f6CRUiBnoo7igRR6LsItE+FSUAOKFjDZeqSgEA3aUjMQCkYdbohfE0pQB4nquU4EXiw7slKR8zVv785+Gaq6+2UtBlI7r80nDo0KHm73DiYod93Ygpk+sa45qQeHDopz/7WXj9G94QTj/tNCtWUlMkqaGnfvHLX6Y6tVpovRhDe8xQAoBTWjp6/bRYKQCgOwSJAaD3+hpjWRAiBjieihK8SAxfxTBxNdUJ1jfWm50wKzM8G4NuEv4huufee5rd4RN3fRBGoXznbwtHr/2Tdejw4WaI7X1/8AdWDKDLYifijel2I77BCrVVRQkAxmRRaL18MV8pAKDzPGECgN6qhtZbtQCc2FmhFb7gt/pCq5N9siqVSqjqSkwBaPJLTmKA+Pr/7+9Tn2a9MWY7tlNSMUg8N/VJfuFznwtnnnmm1aJUvJBFr33rxhtTDRLHc7YLnbu11Z6gqQjAeAw2xhzHIgDoLB2JAaB3FoTW1vQAnNys0NpGk9+K9aiHhLvY1Ou6ElMMMiXk5Cf/8ZMcphm7snr4R1nF739fSDw89KNbbgmf+fSnrRZAl2xMuxvxgHO3thMiBhif+HwgNtWInYkHlQMAOuMlSgAAPRG7EAsRA4zNLCU4ruS3Fh1YvrzZ2cswjjeA9oovbzz62GOpT7MWWmEUKO2famNcm/okY5jt8ccft1pQElP8p+f/ueOOO9x7cI8LgFP/fq7wOwoAnaMjMQB0V+w2EAPEVaUAGLOZSnBc/Y2xKOUJDg8Ph8HBwTBrlvu7vJgwMbRXfHkjA/OtFITrGuOPQqszcbL+46c/DTNeOyOcfvrpVgyggxLvRlwPdohqN92IASb3G7o6tO4t9CsHALSXjsQA0N0L3Pi2bFUpAMalogTHVQ8ZdHVcsXKl7ru6/AIdVmv81saXNxJ37eixCwhhYeoT3Lt3b/j5L+6wUkChpXAN98Mf/TDlEl3vW9J2fUoAMGlx19fFygAA7aUjMQB0x6zRC1stGQHGr08JTihuMTo35QnGYNvqwcEwW1firhAmhvLZ0/idXVGrpT7Nemh1YQVaBkMrXJ/07hL33HtvmPnWt4VXvepVzqMAOmDNAw+E4b17U55iv1VquzOVAKAt4rXUjGDnIwBoGx2JAaDzYnJqRRAiBpjsbykvFjsS11Of5G0//nE4dOiQLr8AnTgQDAzkMM3YfXXYasHzLA6tQHHSfnDLj+zsANABhw4fDj+/4+cpT7Hf+VtHuL8F0D7VxlgdWjvCAgCTpCMxAHRW7BK51EUswKTFBy2DynBccavRJSlPMIaI77r77jCnry/LAguWAKm6c9WqsKFeT32aA6MDeLHYPWt1yhPcsWNHuPvee8Jl73yX1Sow57vQffc0flsT70Z8g1XqiIoSALTVsWZO8drK8wMAmAQdiQGgc6qNsSwIEQO0Q0UJTqg/ZNAl6PYVK8Lw8HCY8pz/ADBx8SWNFbVa6tOMx6eFVgtOKD7ovjb1Sf78jjvC3n37StOZuIwD6P553N333JP68almpTqiogQAbWdnWABoA3eIAKAzFjfGImUAaJtaY8xRhhOK3e+rqU/yzW96c/j0pz5ltQDGaKTxnxP59k03hUcefTT1jxBDxNdZSTil2JU46YfelRkzwtWf+W9WiuIRpKYHlv/wB2HNmjUpTzF2dey3Um03KyS+EwFAATiGAcAE6UgMAO0Xw1xCxADtpZvAyV2bwyQfefSRsKFet1oAYzTlBP959NFHcwgRx052QsQwNvNTn2B948Zw9733tEKXhlGkAV22sfF7mniIOO4oMWClOsLOhQCdF5/RLlYGABi//6IEANA28UbgssboUwqAjvzGVhqjrhTHFevSHzLoSnzrbbeFL3z+81YM6J2RkaynH7fC/t6yZTlMdb4vG4xZDN7HF8OSfil55c9/Ht74xjeGaWfKQUERTBGk7tFv6crUp3h9aIWJab8+JQDoinhdNSO4LwEA4yJIDADtEZ+irQg6ZgJ0UiUIEp/MDSGDIPG27dvCnatWhd+74gorBvRG5qGZG79zUzNMnLgYiBz0ZYNxWdwYV4WEQ0bxt+cHP/hBuObqa6wWwAQMrlnT7PCeuH4r1TFnKgFA11RD63nCvOAFGQAYE0FiAJi8GB5eNnpBCkDn9DVGTRlOqDY6+lKf6O0rbg/vePvbw+mnn27VoEBGMu/0m4P4IsaGDRtSn2a9Ma6zWjAhsWPW6pDw1ucxAHfX3XeHyy+7zGoB2erFe2XxZYyf/MdPUi9Nf/ACdydpQgLQXX2h1QRqnuMbAJyaIDEATM6s0YtQ+3oCdN5MJTil2AGyL/VJxgeo3/v+98Kn/+LTVgwKxPbYnbVt27bmixgZiEFI3X5gYuqNsbAxlqY8yRiEq1RmhHNfdW6BjmG+fEBn/fgnP8lhV4nrrVRHVZQAoOvic9z4suacYOckADgpt8cAYOKqjbEkCBEDdEu9MS5UhlOKL7j05TDRz3z60+GSN19ixeAkdPnlmH/48j82w8SJi52IF1otmLS469HclCd47rnnhurVV9thAmAMYjf3/htuSH2atdAKWdHByzslAOiZ+MJzvF/RrxQAcHyCxAAwMdWQeIcggII6K+hyeCp9oRUmTn8xzzor/O0XviiAAnAKt9x6S/jlnXemPs16Y8x2nIa2iC8sx65ZlZQneflll4UPfuADVitzdhSAzopdiL/yta+F4eHkT5FiiLhmxTrmWEdMAHorhomvUwYAeLH/ogQAMG6xC/ECZQDoifjgpaYMJ1UbHX2pT3TPnj3hZ7f/LHz0Ix+xanSVJr/k5OFHHs4hRBzND0LE0C7Do39TSb8cdtfdd4cLK5Xwpje9yYoBnMCKlStzCBHXg3stnWZXQ4A0xGe8M0evtwCA5xAkBoDxiV2Iq8oA0DOCxGNzbcggSBzFcNwll1wSLrrwQqtG12i8Ry7iCxff/d73cpjqdY7P0Ha10XO6RSlPctny5eFz554bpk2TjyLHc0InhXTW9u3bw1133ZXLPQQ6q08JAJJRDa3dX+YFL0QDwG+4SwIAYxOfiMVOQLOUAqCn+oNuAWMVj1t9OUz0rLPOCn/3xS+GqVOnWrXMjWj1C2319//wD2Hbtm2pT3MwtLbC9vANOiNug570vYhzzz03fP6zn7VSAM9x6NCh8M/9/c0wceLqjeHN3s6zyyFAeuL9jHmjx0IAKD1BYgA4NSFigHTEm3uzlWFM4nFrdS6TvfLd7w4f/chHrBrAqB/+6EfNru0ZmD16fAY6ozJ6Tpd0y9/Zs2aFeXPnWi3IhG7MnXfrbbeFVXl0I44va/dbsY7L5mVvgJKJL0XHl6Pd1wCg9NwpAICTiyGseJPPHp0ArmNytDS0tmrLwtWf+Ux4y1veYtVeQJdfKJ9f3X9/uPm7381hqnEb7MVWDDouJnSXpT7JGCR++2zv/AFsqNfDPy9dmsNU60E34m7ZEzxjAEhVDBMvDF6sAaDkPIAHgBMTIgZIU+wQUFOGMamEDDrYHTP19NPD//gf/6P5L0BZbd26NXz9G98Izx46lPpUa6PHZKA7stgS/fOf+1x49bnnWi0gWVM6/Gj02UPPhv93yZJwKP1zuUg34u7xhjBA+mKY+DplAKC818sAwPFUQ6uLIwDpcUNvfBY3xqJcJnvRRReFz/71X3f8/44uv0CKYnj4+r//+7Bnz57Upxq79cS2o3WrBl0VXxCblfIETz/99PB/LlzY/DcHUzwiAdrsxptuCo88+kgOU43ncboRd0dfaDUsASB9/aH1og0AlI67ZADwYrHDzxJlAEhWf3AzbzxiN+IYOqnkMuGPf+xj4cp3v9vKAaXz1a9/Paxfvz6Hqc5rjAErBl1XCRnsNhE7En/hc5+3WkDp3HnXqnDrbbflMl3diLtnbmMsUwaAbNRC677HsFIAUCYvUQIAeJ7YhViIGCBtFSUYl3jDc2FOE/7BD38Ytm7bZuWAUvn3m2/OJUTcH4SIoVfqofVAO2nbtm8P318mL5W8KVMMw2jj2LZje04h4noQIu6mWUoAkJW+0OokP00pACjVrSIlAICmeDEYA8RVpQBwLVNQ8eZnXy6TPeuss8LCL30pTD19qpUDCmWk8Z8Xuu9Xv2oGiTMw2Bhzgq480GuLG2NR6pN875z3NsYcqwUU3qFDh8I/fvkfw57hbE6R4o9zzcp1TXy7Zq4yAGRnePSYOagUAJSBh+8A0AoRx3CVzgAA+Zgd3MAbr0pjbMhpwhdfdFH47F//jZUDCi2GiP/t5n/PYaoeoEFasnhJ7E/m/XGYPXu21SIpU6Z4NEZ73fjtG8PDjzySy3Rro+d0OGYDcGrxXsj8YGcmAErA3RIAyq4SWh0BhIgB8hJv3vUrw7gtDhl0r3uu91x5Zfj4xz5u5YCTGxnJctpbt20NX/3618Ozzz7r2AuMV3wpenVo3ddI2hc//4Xw6le/2ooBhXT7itvDz26/Pacp60bcg6sVJQDInnsiABSeIDEAZRbDw7EbwDSlAMjOdY2xUBkmZHXI7AWaT/z5n4fffcfvWjmgULZujSHir+USIu4PrYdmQFqyuK9x+umnh7/6P/5SmBgSoBtzez38yMPhWzfemNOUYzfFeVauqyohs92hADih/uDeCAAF5o4BAGXVF1qdiIWIAfJUC7binKgYOFmd04SnTp0aPvc3nw2vec1rrB502ciI5lmdEMPD//f//H9yCREPjh5zh60cJKnaGEtTn2QzTPyXfxVeI0wMFMS2bdvCN/7pm+HQoUM5TfvCxqhbva7qC62XfgAohvhSTgwTu0cCQOG8RAkAKKFq0IkYIHd9SjBhMRB2bU4TjkG7r3ztq7kE7qBQYtc6o70jhk0y6kQcH4x5QAZp6w+t3TqSFn/7vvf97+UWuAMKd27bnhF/y7717Rtz+02L9wHqvgVdN0sJAAplbvCMGYCiXjMrAQAls7gxFikDQCHMDq1QLBMTuxJn9UArdiT+/Gc/1+xQDDnT5be8jr0YsXXr1lymHLe+HrBykIX4MLsv9Um++tWvDv/9L/+q2aG416Z4OgJMQAwPf/2b32x2JM5IfCnswuDlsF5Y0hgLlAGgcOIxNe7e5PkEAIWhIzEAZRK3+hQiBigOXV0mZ35uE47Bu+/8279ZObKnK295OxFnFiKOXeuEiCEfMfif/EPsGLz7xj99Mxw+fKhtnUEnOgAm4ke33JJbiDhaGISIe8W9K4Biih2J48ucc5UCgKJwuwyAslzMLXUxB1A4cQvnhcowKbErzpLcJv3O331n+NQnP2H1eB5NfklZ7ET85a9+JacQcQwQz7NykJ0YVspim93Ymfiv/yqNzsRlNEWSGibk5u9+N/zq/vtzm3Z8yWS21euZDY1RUQaAQosNO/qVAYDcuVsEQNEdeyPUm/8AxVMLre3DmJwstsF+oQ+8//3NAZC6Zoj4K18JW/IJEQ+OHl91rYM89Y2e3yXvNTFM/N//uzAxkIUYII5B4gzF87qaFewZr7wClEN/yHAHQAB4LkFiAIoshoeXBiFiANc0nEx86WZDyKBz3Qt96pOfDO965zutYIeNaPULE5ZhiDiGh2PYZNDqQdaqoXU/JHnCxHT9AlI3ZibgV7/6Vfj3PEPEdnLqrb6Qycs9ALRF3N0phom9mA1AltwxAaCostnOE4BJidtzCjtNXl/I9OGWMDGQqhgi/scvfzmnEHGkYx0URwwSV3OY6LEw8dSpU60akJyHHn44/Mu//muOU48hpguDMFMvVUMmL/YA0DZ2eQIgWy9RAgAKqBqEiAHKQtf59qiFTLsU3fSd74StW7c2O4vlNIBii+HhDEPE84MQMRRJNn/TW7dtC//zf/2v5r9A5+R2zZTC2Nb4Xbr55ptzPg4IMfVWRQkASic+r9gQPLcAIMf7BkoAQMFUg7f8AcrENp3tlU3nuueK3eu++PnPh/POO88KAj23ZcuW8A9f/nKzI7HjKdBj8QXr+KJ1Fg+xp55+evibv/7r8JrXvMbKAT0XX2742te/nts53TG10OqGSG/FY3CfMgCUUnyZZ17wwjYAGREkBqBIljTGAmUAKJVa8HCsnbIKmzxXM0z8hS+E8wRPgB5a++CD4ds33ZRb4KQ/tDrWAcU9v9sQMtm1KZ7TfeyjHw2/+453WDmgbaaM83Holm1bcw4Rx+DS7MaoW/meWx10pAQou3i/pV8ZAMjj2hkAiiHLDooAuK5JUFZhk+eKwZO/jWFinYmBHrj7nnuaIeLMDIbWCzm2vYZiiyGmFTmd3/35n/1Zx8LEU1w+ACexddvW8NV8Q8RR3GXiOiuZhBElACDYBQqATLhjBkDu4kOwZcEWYQBlFjvtDCpDW2UXNjlGmBjohe8PDISVK1fmNm0hYiiXvtHzu2zEIPEn/uzPrRzQNQUIEdeCXZtSEe+rrFYGAEb1h1aY2D0YAJIlSAxAzrLdfh2AttJtpzOqodXxPzutMPEXhYmBjoshkxtv+nZYu3ZtblOPD64uDB5ggfO7xF180UXhmquvDlNPn2r12mGKR0JwIlu3xhDx13IOEcfzuviidd1qJmFuaDVAAYBjvNANQNL+NyUAIFPHOiW+SSkASm97YyxXhraLNzb3NsYHc5v4r3/963D/6tXhzW96czjjjDOsJNARu3fvboZNnnjiidymHh9YxQdXdasIpTy/i0nSvlwmvGfPnvDY44+HGa+dEV4Zz+tiENaY+ACOqwAh4uj/aowfW81kfDLYRRGA5zt39PgQt7TarhwApMadIwBylO126wB0RAxEzFaGjold66o5Tjx2Jv67L/6tzsSQqZGRkWTnFsPD3/znf8oxbHIsRDzoGwbO73I7r/vEn/15eMtb3mL1mLApwtQcRwwRf+VrX809RDzQGPOsZlJiN+K5ygDAcQyPHrdrSgFAStw1ASA31ZDpNusAuLbJmDAxwKjaypXh+8u+n+PUhYiB7M/v3v++9zXG+60e0BYFCRHHc7wLg23SU7M6tBqiAMCJzG+MfmUAIBUetgOQk2oQIgbg+GIwqqYMHRN3AYi7AWT5EKwZJv7bvwvnCxNDU8qdflMWAyY3fvvG8MDatbl+hNi9X4gYeK4sQ04XX3xxqF59TfMcDxgb3ZhfbEsMEX/1K7mHiCP3QxK97FICAMbgusZYqAwApMCdAwBykW0nRAC6It5su04ZOir7MPGf/PEfh8vedZmVBMbtqS1bwje++Y2we/fuXD+CLjdAoc7vzj7rrFC9pmrXCWBCYifiLxcjRHxtYyy2osmJx9XVygDAGPWH1vMNuwsA0FOCxADkQIgYgFPpD62QFJ0VwyYbRv/N0mc+/Zlw+WXCxLSfLr/FVVtZC9/7/vdz/ghCxMCpzu+yfVnsA+9/f3j/+95vFYETemEz5nvuvS9859++U4SPFneamG2FkzS3MZYpAwDjPK7HXQaEiQHo3fWzEgCQsKwfZgHQVfXGuFAZumLW6PE52zDxn/zxn4Q5fX1WEjip2KHuX2/8VnjggQdy/Qjx4VMMEQ9YTeAUsr7/cvHFF4f51WqYevrUU/73TvFEBErt3vvuCzd9pxAh4nieF0PEdauapMWNsUgZABineFyfF1qhYgDoOrfNAEhVJbTe2hciBmCszgre2O+W7MPEsSvxf/vMZ6xk4jT5pVfWPbEufP0b38h5u+t4PIydbDx8AsYq6zDx1KlTw6c+8Ylw6aWXWknguAaWLw8/v+OOonyceJ5Xs6rJis815ioDABMQ7+fMc5wHoBcEiQFIUfbhJAB6woO07h+vV+f8AWa+7W3NMHEMngBEMTh8y623hhW1rA8nQsTARGW/M9Q73/nOMPfjH3d+dxxTtGOmxGIX4nvuvbcoH+fa0Op4S7pWBw1SAJicuMNUvzIA0E3uHAGQmr7QemNfiBiA8fIwrfuqjbE05w9w/vnnhwV/93fhZS97WakWbkSrX3iRdevWhX/91rfC0O7dOX8MIWJgsrIPE5999tnhU5/8ZHjdxRdbTSi5+JLYP375y2HL1q1F+UgDodWlkMQvuZUAgDbwvAOArhIkBiAl1ZB5GAmAnvJAzfF7QmLHuoVf+lIzVAyUz8FjXYhXrMj9o9RHj4NCxMBkZR8mjq76/d8PH3j/+3UnRjfmktqyZUv4p6VLw+68XxJ7rniOF18YG7a6SesbPYYCQDv0h1Z3YgDoOHdPAEjFgsZYogwATEJ8mHaWMvRENRQgTPxnf/qn4YrLL5/w/w5dfiE/sQvxv8QuxENDuX8UwRKg3aaNnt/NzflDxO7EfxG7E7/udVYUSmTtgw+Gb990U7MjcUHEc7zZofXiGGmrBs1SAGgv93wA6ApBYgBSEG+sVZUBgDa4MHiw1ivVUICHZe+dM6cZKAaK7eDBg80uxLevKESzMA+UgE4qxD2bt156afiLT31Kd2JKp4zdmG/78Y/Dj3/yk6J9rNnBrhO5WNwYi5QBgDaL5wHznQ8A0EmCxAD0UuxuE7sQV5UCgDaJW7oPKEPPxGN69mHiN7z+9eGzf/M3giZQUGvWrAk3/Ou/FqVDXX+wxSXQefHezYLcP0Q8t5s3d2647F3vsqJQQPHc7sabbgpr164t2kebP3rORx7im4p9ygBAB8QXyOOL5MLEAHSEIDEAvRJDxPGm2iylAKCNrg2t7i/0TjUUIEw8ffr0Zpj4/PPPt6JQEENDQ+Ff/uVfwuPr1jnmAZT0HC963eteF/547txw3nnnWVUoiC1btoRv/vM/h927dxftoy1sjOuscFY2NEZFGQDoIC8ZAdARgsQA9EIMDy8NQsQAtF8ttN7Kp7eqoSBBkz/70z8N733ve60oZCx2p7v99tvDj265pUgfy0MjoBf6GmNZaL0cnr2rrroqfOgDH7QLBWTunnvuCd8fWFaU3Saeqz/YeSI38fi4RxkA6AIvlwPQdoLEAHRbDA/HTsTTlAIA1zmFVg0FCRPPmjkzXHP1NUImkKFVd60K/37zzUUKltjGEuj5qVEo0Mvh8fzuj+fOC+9617usLGQmnt/FAHEMEhdQfxAizlFfaD37AADnCwBkxwN2ALppbmg9bBIiBqCTZgcBq1RUQ0HCxNOnTw/XXH11eMPr32BVIQOPr3u82YH48ccfL9LHise2GCIetsJAj00bPcebW5QPdN555zUDxa973esKuWBTpngURLFs2bIlfOOfvhl2795dxI9XC3ZaytWCxliiDAB0kXtFALSNu0cAdEs1FCRIBEDybPfuHKBjPvbRj4aPfuSjVhUmaGRkpKP/+4eGhsLN3705DK5ZU7TSxePawuDBEJCWxY2xqEgf6PWve1349F98Opx99tlWFxJ1249/3Bi3FfXjCQPlLYaIFygDAD04f5gfNFcBYJIEiQHohsWhYA+WAEhaf7ClV2oKtSvBBedfEK655prGv+dbWUjEwWefDf9+87+HVatWFfHjxQDxdVYZSFRfYywLBdt96rJ3vSt86IMfEiguAN2Yi2No9+7wjW9+o9mNuKCEiPO3YvS4CADdNjx6HiFMDMCEuYMCQKfF0FBVGQDoonizbLYyJGdWaD1UK0zIJHYn/thHP2ZlSUKnO/2m6tlnnw0/u/1n4Wc/uz0cfPZg0T5evTHmBQ+BgPTF87sYJu4r0oeaOnVqmNPXF/qu6mv+10Dv1FbWwq233dY89ysoIeKCXJYpAQA9ZrdGACZMkBiATokPkWKIeK5SANADZwUP4FJUuDDxBRdcEKrN7sQXWF3oohgajuHhGCI+ePBgET9iLbRCxI5lQE4WhwLuSCVQTK6K0I15aGgofOvGG8O6J9YVeamEiIuh0hgblAGABFw7em0GAOMiSAxAJ8RwUAwJzVIKAHokPoSrKUOS4vnB0qKdJ8TOxB//mO7ERVPWLr8pK0GAOPLAB8hZ3+i5XqVoH+xYoHhO3xyBYuiC2IH41ttuLfrHFCIujthQZZkyAJCI/tDqTgwAYyZIDEC7xVBQvGFWUQoAekgIK22FfOlo+vTpYX51fnjjG95ghaHNYmg4hod/+rNCB4jrodWFeNCKAwU41yvsLlWtQPGcZqhYoBjaL3Yf/t73vh+e2vJU0T+qEHGxLA4F7MoPQNZqwW5XAIyDIDEA7VS47coByNZAaN0kI12FDZjMmjUrfPLPPxHOOWe6VT4OTX4Zj7id9Z2r7ix6gPjYcSt2ivFwByiSuaPne4W8TxRDxJdfdlkzVDx9+tlWGybp2WefDd/93vfCXXffXYaPWwuCPUWzLBT0BRoAsjY4es5RVwoATkWQGIB2qTbGkiBEDEAa4sO4s5QhC0tHzyMK5WUve1n4wz/4g/Dxj33MCsMExADxD374w/DLO+8sw/FqYWhtOQlQRIXuTnxMDBR/+MMfDtPPFiiGiVhRq4Vbbr21GSYugXjeZ6vx4tkQ7NIIQJrivae4C4IdsAA4KUFiANqhGloPhQAgJRcGb9rnYkFovZBUOOdMnx4+8YlPhLfPnt3x/1sjWv1SAI89/nj46U9/GlYPluLZRi20QiSOVUAZFLo78TGvf/3rw0c+9KHmvymYMsUjINK2bt268C/f+lbzJbKS6A9CxEXlghyAlHmRHYBTchcJgMmKoZ8FygBAguLDuX5lyEahwyVvfOMbwx997GPNf4EXi52H//OnPw2bN28uw8eND2+ubYzrrDxQMqXoThxNnz49fOTDHw4z3/a2MHXqVCsPLxADxLED8eONf0tkofO/wuprjBXKAIDzEQByJkgMwGQUcityAAoj3hBbqAxZmdUYy0KBtwONQeK/nD+/GS6Bsts1NBTuHA0QHzx4sCwfuxZ0IQboC617SpWif9AYIr7i8svDnDlzwvSzz7byXaQbc5pi5+Ef3XpruOuuu8r20b3oXGyF3WUJgELqD3ZIAOA43EkBYCJiB5n4hv0spQAgYYONMVsZnGek6N3vfnf4o49/PJwjUEwJ3b96dbMD8erGvyWiCzHAi8/5YvBqUVk+8MyZM8MVl13W/BfKJgaIYwfiVeULEMdzwDmhdX+C4rJrIwC5qTXGvNFzFQBoEiQGYLyEiAFwzUM3lGLnA4FiyiJ2H/7lL3/ZDBDv2rWrbB+/FnQhBjiRyuh5X19ZPnDcmSJ2Kb78ssvsUkGHroLTuQxuBohvuaWMAeIohofnOQcshRVlOo4B4FwFgGLyUB2A8Yjh4XhTbJpSAJCJ2PmnpgzZqoZWsKTw3vTGN4Y/+qM/Cm9s/AtFEsPDsQNxyboPHxO7usQA8YBvAsApzQ2tjo6VMn3o2J242an48st9AyiUx9etC3etWlXWAHEYPf+bH3T5K4sRJQAgU3ZPAOA3BIkBGCshYgByFLeRX6wM2Z+DLAslCZXEQHHsUhwH5GrT5s3hP//zP5vh4YMHD5a1DNeNHoOERwDGJ567fymU7P7T1KlTw6yZM8N73/vecP755/sWkK01a9aE21esCI8//niZy+A+RLnEexarlQGAjMV7Vwsbo18pAMpNkBiAsaiGknQDBKBwYhegecqQvRgkiWHivrJ84HPOOSe87w/fF65897vDy172Mt8Akrdr167wizt/2exAHP/rEquF1sMXnVwAJnfuF7sTV8v44adPn97sUvwHc97b/K8hdc8++2xYtWpV+NmK28PQ0FCZS2E3inKKHfWXKQMABRDvZ12nDADlJUgMwKlUgxAxAPmKD/LOUobCWNwYi8r2oa9sdii+stmtGFISA8P3r17dDA9v2rzJ8Ub3FoB2q4TWPam+shbggvPPD1dcfkUzWCxUTGqeeuqp8LPbbw9r1gyGg88+W/ZyxJfI4kvMdd+M0lkcSnifAoDC6g+tF6MAKCFBYgBOJj6sqSoDAJm7MHiYVyR9odXtZ1rZPnjsUvz+98UuxVfqUkzPNMPD998ffiE8/Fxx++rYsWVYKQA6dv63KJQ4UByNN1Q8ZYrHP7RfDAyvGRxsBog3P7VZQVrieeBCZSitFWU/PgFQOLXQekHKfS6AknEnCYDjKfUWkgAUTnyDvl8ZCneuEl94mlvWAsQw8dvfPju8ffbbfRvouE2bNjU7D9+/+v7mf81vxGNLDBHXlQKgK/qCQHHTBedfEN7whjeEK664ohkwhk4bXLOmMQbDqlWrFOO3Yrgm3m8YUIpS2xNK+KIzAMU//WuMOUGYGKBUBIkBeKF40yu+RT9LKQAoCN2BimtBaIVJSvvQLnYmjqHi91x5ZXjta1/rG1EwIyMjPfu/HUPDjz76WPPf2IWY56mFVoC4phQAPVEdPQesKEVodieeNXNWM1g8a+ZMBQm6MbfL5s2bw52rVjUDxENDQwry4vPBGCKuK0WpxePQBmUAoKBiiDiGiQeVAqAc3E0B4LkqobVVuBAxAEUSb3TNVobCiuctS52/hHDO/8/e3eO2cUUBGL1t1AWWO0tiJZKdQpZxAGYHXoKyAic74BK8gyg78A7MKl2UdPxpQlLpIiCuWEd3ZgjLDiiThOBQM+cAwqhycRs/kd/cd3wcvV4vvvtWVMzuMhaeTCbxWxEQT2K1WhnKf82jDEZGRgFwEC7vfl47B35yOL64KMLi9vl5ERnDLm7+quLhP8TDD8gXld8YA1FuyH9nDADUmBsYABpESAzAWn7pkh96uYYLgDr6OlzDVXfDKDfTEfei4pcv4+z0zEDu+T+3/B6a6+vrGE8nRTi8XC4NZLN5lBuIr4wC4CANqnPgwCg+Vmwrviij4txYfPTVkaHU3D7bmJfF5uFfxcOfly8p/xC28vHBMHwOAUAz5BnoyhgA6k1IDEAaRLmJWEQMQF3lFVwjY6i9i+pM0zKKDzIq7nY60ev1o9/rGUiDZTA8nmQ4PC6efNY8BMQAT8kgBMUPap+3o93OqLhdxMU0V0bD09k0fhcPbyvPhENj4BP5+cMrYwCgIa6iDIoBqCkhMQCXUV4HDgB15ku/5sgXo34MW4E2ypi40+kWz+fPjx/l37Tk9zAJh/c2DwExwFPWqs6Cl0bxMGFxc2QsvA6HZ7NZrFYrQ9mOLcQ85M/wIjMAzfK2Ohu5/RGghoTEAM02DJENAM0winIrMc2R24l/rp5skNuKMyjudrvF1uKjI9ddP1W3t7exWC5jPB4XAXH+zs7mISAGqJNWlDHx63AL11ZOTk6KoLh4tttx/OyZoTxRGQpPZ7OYTqfF9uFbW4d39b46F74xCjbI/1f+MQYAGihfsPo+xMQAtSMkBmiuDGsujQEAf/9Qc8MQj2zt7PQ0Op1O9Pv94ndh8WHKMCRD4SIYXiyK3zMkZm/zEBAD1FmeA/Pq+XyZvmUc28uz4P2w+OTFC+fDA7YOh9dP9pab9n6qzoiwyeDu550xANBQGRFnTOzWBoAa8UU6QPPklycZEb8yCgAa5pvwwVZTtarzz8AodpMx8XpbcT6FI1/eOhrOTcP5XC4W8bdo+LGM7n5+CQExQJPkeTBfMvO52J5yS3GGxfe3FuctF3z5M2LGwpPZLG5uboTDj2Me5VXdI6NgC8Nw2yMAzfa+Oju9NQqAevhXAPbuFriu7EwX8CeZ+NYFI1eSqkHpIzKBLbFh3oJBlmAjH8FBltgMksRukGWWRj5Gt4KsZmnkHdbMCkoGefcMmkpS1oC55Ua5a3kdteW2Levn/Oyf56n6Sk4qQ96adm+t/e5vKRIDDEsuEeev5F3xDcAQ5Y1CriUdtlwYeRw20d3YL37+87eF4l/+8pfxxRdfvC0YMxvnheG//uUvb3++ne+/f/vfM3P5BceTUBIBGLL8PDgON1fMRP7YLBeLf5nmZz/72duf+T/7CG12clH4P/7zP38sDf/1b38TyuycTZ8ND0XBNTwPH6UAQJbLxBMxAHSfIjHAcOTy8NNQIgZguCZRDrUYtlwU2QulkZnJheK8ufiX05+5aMynnZeD//TnP8f/+5//URhenFwQyQXio3BNNQDvG6d5EAphM3exYJz//Kt/+qcf/7t5WFnpxyuvP+fScHpGzKXh8/Iwcz0n2J8+K8J1vAofKQPAxWcq714AOk6RGGAYcnk4byJWlgFgyJo062JgahRlO7HCyBzkzcVvi8XTcnEujAylYHxeCv7rX/8af0mTNwxf/MlS/u5/FmUjvYIIAJ97PhyneRjKYXP38/S8+POf/Sx+Nv2Znxdz4fh/TX8OQS4J/y09H/7HhcLwXz0vLkodpUB8KgpuIL9neS0GAHhP/oA/l4mdvwF0lCIxQP/lckzeRKxEDAClSNyIgQuqNAfTn8zZL37xi7elkVww/t+5JDL92RV/+UkZ+E9/+tPbn7k4nAvEtEod5YrqE1EAcAP5PC1vKR6LYnnONxlnv/rVr378789LyF2StwznZ8a3ZeG//U1heLnPiEfTn3Cbc4QXYgCAD+SPtLZCmRigkxSJAfptHKVEDAAU+Yv4iRj4xHNTLhSPRAGddTb9Oz4XiBtxADAD+cP8XCrOW4orcUBn5WfDI+cBzMhhlPMDAOBD+Xwul4nd/ADQMasiAOitfFW3EjEAvO9LEfAJkygbq3PZvBEHdEo9/Wf3XpQrqv0zDMCsnH+ksjV9Vsz/nvFCHLqjmT4nrocSMbPjbAkAPi1/jJk391eiAOgWG4kB+ikXiMdiAIAP5Jf+m2LgCg7TPIpy8Am0T5PmWZRCSCMOABZsNH1W3A43WkBbnxVtIGZeXvm7HwCuxA2RAB2iSAzQL7no8jx84QcAl8kbK8/EwBWfrfZCoRjaIv/dfZLmm+lPAGiDjTQPQ6kY2qCOdx+bwbzOCV6LAQCu7DjKzS4AtJwiMUB/nF8TsiEKALjUTiigcX3jNAehHALLcLE87EMQANosn8vlQvGDcEYHi1RH2UBci4I5q6K8hwEArm4SpUzsXA+gxVZFANAL+cXEy/CCAgCu+u9NuK5JmvUo17E14oC5O43ygiFvkd+Z/jPoZQMAXfj312GazemzY/53WS0WmPvvaVv+WWNBKhEAwLWNo3yI49Y/gBazkRig+zY8eAPAtdRRXjLCbVRRNhRXooCZyeWrfBV13jzciAOAHsnndnlT8f3pT+d4cHPN9JkxX5PtQzMW7fn073EA4GbPcXlhwKkoANpHkRig28ZpnooBAPwuxNKMohSKFULgZuo034TyMADDUqV5MP3pxhS4mvy8eP7RGSzLq+k5AABwM/lDsFwmrkUB0C5engN01ziUiAHgplx7yqydb5nLpeKROOBSufxxXh62RQ6AocvPjlXYVgwf00QpD0/CR2e04+/rV2IAgJnYnT7jAdASisQA3ZQLxGMxAMCNHaU5FANzUqV5GIogcK6J9zcPAwCfthHvbyyGIbJ9mDbKv+M/FwMAzMxxmn0xALSDIjFA9ygRA8Dt1VG2EsM8nW8pfhSurGaYf89+M/15Kg4AuLEq3m0srsRBj+Vnxifh1gra6zDKLUQAwOxMopSJPf8BLJkiMUB35CLKi1BCAYBZyIdS98TAAo2ifAz2cPpn6Jtc/KjT/CFsjgOAeapCsZh+PUOebx5uxEHLvfD3LgDM7ZkwL35RJgZYIkVigG5QIgaA2dsMWzJZjvxMlwvFeVvxSBx0VBPvisN1KH4AwLJU0+fL82LxmkhoOeVhuuq1v2MBYG7yc+FOeGcDsDSKxADtl18E5BKxAyoAmK18XdaxGGjBs14uFVfhozHarQnFYQDogtH02fLL6fNlJRJaID8/fhPKw3T779ZXYgCAucobiXemz44ALJgiMUC7VWmehxIxAMxDfoG5IwZaZBRlS/H96U9Yprz9o45SHM5/bkQCAJ1VRSkVn5eLfcDGvJ1Nf+f+w/Sna6rpunGap2IAgIXYTTMRA8BiKRIDtNc4HEwBwDzlF5n3xEBL5Q/JqnhXKh6JhDlqopSF/xilPFyLBAB6Lz9rKhczS/kZ8rw47Epq+uZxmj0xAMDCHKU5FAPA4igSA7RTPpB6LAYAmLvN8IKTbhjFu2JxFYrF3NzZ9O+9803Dtg0DAOfyc2YuFH8x/VmJhEtcvMGiDluH6bcX/k4EgIWbRNlODMACKBIDtE/eQjwWAwAsxH6aYzHQQaN4Vyy2QY5PaeL9TcNNKA0DANd/7jx/9vziwp8Znvw8ef4xWv6z4jBD8ncRAMBS5GfPLc+eAPOnSAzQHvn66ryFeCwKAFiYSfiinf48S55vjfty+nNNLINxvmX4vDTcRCl3AADMyyjelYr/Id593OYZtB/Onyf/GO+KwzBU+e+5F2IAgKXJz6O74XZJgLlSJAZoh3zAng+ibJIDgMVq0qyLgZ4axbtyx5fTP3ve7LZ8WJ5Lw3+Id9uFa7EAAC2Tnz/PP3T74sJzqJJxe58x83Pl+S0W58+cQLEXZQkMALA8+fl0K5SJAeZGkRhg+fIh+tNQ6gCAZclF4kYMDEgV70rGCsbtU09/5rLw+abhxt9TAECPnkUv/rz/k//M/Jw/U/ooDa4nv78ZiwEAWiFvJp6IAWD2FIkBlisXNvImYts4AGB5HDxBMYr3t8V9Ge82yXlenY1mOrkg/Mfpf1f/5CcAwJCdP3ueP5v+Q7z76M1z6edd/BDt+3i3XdizJtzcq+nfRwBAOxylORQDwGwpEgMsz3aUL9kdfgPAck2ilImBy42mc14uzr688DxbDTSX87LG+Z/PC8JNvNsiXPt/HwCAmbn4PHr+jJp9ceHPF/83fVJfeNb8/sKz6MVnUmC2f9+8FgMAtM4kvNcBmClFYoDlGEcpEQMAy9ekWRcDzFR14c+jeH970xfx4TanUSxnw9OnChf574XvL/nfNfGuJAwAQPv9dJvxx7Yb3//E/+2sS8nnxd/Lnj8v/m8+9r8HFiMvhHkuBgBopfycvOVZGWA2FIkBFu8wzYEYAKBVcpG4EQO02iiuVza2lQ0AAIDbOAzvcwCgzfL57244Bwa4NUVigMXKW4jHYgCA1skHTRMxAAAAADD1It6/cQcAaJ+8UCJvJlYmBriFVREALES+/i5ffzUWBQC00n0RAAAAAHBBJQIAaL3cxXgZuhgAt2IjMcBiHlzzV+sbogCA1mrSrIsBAAAAgCjvdF6KAQA65SjNoRgArs9GYoD5Oj9oUiIGgHYbTQcAAAAAKhEAQOccpHkqBoDrUyQGmJ9cHs6biEeiAIBOqEQAAAAAQPKlCACgk8ZRehprogC4OkViAA+nAEBxXwQAAAAAhA/OAaDr/x639A3gGlZEADBz43BdBgB0UZNmXQwAAAAAg5aXxLwWAwB03lmarTSnogC4nI3EALP1OJSIAaCrRuHrdAAAAIChq0QAAL2QPw7Km4nHogC4nCIxwOzkAvGeGACg0yoRAAAAAAzafREAQG/kMrEuB8BnKBIDzObB82X4ig0A+sCLIgAAAIBh2xABAPSO26UBLrEiAoBbOb8Kw6ESAPRDk2ZdDAAAAACD9XcRAEBv1Wl20pyJAuAdG4kBbi6Xh1+FEjEA9MnIv9sBAAAABqsSAQD0/t/1eVncSBQA7ygSA9zMxvThck0UANA7lQgAAAAABqkSAQD0Xu57vAyLZQB+pEgMcH3j6UOlEjEA9NN9EQAAAAAM0pciAIBByH2PvDxuLAqAiBURAFxLfoh8KgYA6LWzNPfEAAAAADA4r8MiGQAYmv00x2IAhsxGYoCrexpKxAAwBPllkeusAAAAAIYlnwcpEQPA8DxOsycGYMgUiQE+Lx8a5QLxWBQAMBiVCAAAAAAGxYflADA8+ZbK3bCRGBg4RWKAy+US8YtQIgaAobkvAgAAAIBBcR4EAMORC8RHadbTTMQBDN2KCAA+aZTmefgCHQD8vgQAAABA372K8m4IAOi3SZQScSMKgMJGYoBPG4cSMQAMWSUCAAAAgEEYhRIxAPRdnWYzzW4oEQO8R5EY4NMOo1xjcSIKABikSgQAAAAAg1CJAAB6q0mzNZ1TcQB8SJEY4PMPlDvTB8paHAAwKPdFAAAAADAIX4oAAHrnLMr24bxArhYHwKetiADgWsZpDsL1VgDgdyYAAAAA+uJlmg0xAEBvHKU5jlImBuAzvBQHuJm9KIXiNVEAQK/lmwlOxAAAAADQW/ldz2sxAEAvTKKUiBtRAFzdqggAbiR/ubY+fQD1BRsA9Nd9EQAAAAD0WiUCAOi8Os1Wmt1QIga4NkVigJvLBeLDNJtRvmoDAPqnEgEAAABAr/mQHAC6q4lyu2QuEdfiALiZFREAzMwozdNQOAKAvrkXbiAAAAAA6KuXaTbEAACdkt/b5Bukj0UBcHs2EgPMThPlKzdfugFAv2yLAAAAAKCX1kKJGAC6JheI10OJGGBmFIkBZq+OUibejVIuBgC6zfWWAAAAAP1UiQAAOuMkSoH4MNwkCTBTisQA8zOZPsTue4gFgE6rRAAAAADQSz4gB4D2q6Msc9sJy9wA5kKRGGD+8nUauVB8JAoA6KTRdAAAAADolw0RAEBrNVFugs4l4locAPNzRwQAC/Fm+mD7LM1aOJgCgK75Ps13YgAAAADolYkIAKB18o3Pv4mygfhUHADzZyMxwGI1Ub6Y2wxfzAFAl7jmEgAAAKBfKhEAQOuc3/h8KAqAxVEkBliO/NXc1nR8QQcA7VeJAAAAAKBXKhEAQGucRCkQ70fZSAzAAikSAyxXHWU7cd5S3IgDAFprLbxcAgAAAOgTN1ABwPKdL2HbCZ0JgKVRJAZoh0mUr+uOwtd1ANBWlQgAAAAAesFH4wCwXE2UhWt58VotDoDlWhEBQOvkw6u9NAeiAIBWyV/Fb4oBAAAAoPO20zwXAwAsXF6s9iTNcViyBtAaNhIDtPPB+TDKhuKJOACgNTaifPADAAAAQLfdFwEALNwkSg/iMJSIAVpFkRigvZpwlQcAtE0lAgAAAIDOq0QAAAtTRykQ5/6DAjFACykSA7RfvkZ9azqNOABgqR6IAAAAAKDT8o1TG2IAgLnTdQDoCEVigO6o491Xeh6yAWA5KhEAAAAAdFolAgCYq7x12O3LAB2iSAzQPZPpA/dRuPYDABZtFDbWAAAAAHTZfREAwFzk/kLuMeQFaRNxAHSHIjFAdx/AD6cP4MfiAICFqkQAAAAA0FmVCABg5iZRFqIdhoVoAJ2zIgKAXhilOUgzFgUAzN1Jmh0xAAAAAHTOWprXYgCAmanT7Kc5FQVAdykSA/RLFaVQXIkCAPwuBQAAAMB7ttM8FwMA3FqTZjdKkRiAjlsVAUCv5If0rek04gCAudkWAQAAAEDnPBABANzKWZQC8XooEQP0hiIxQD/V0wf3/ADfiAMAZu6+CAAAAAA6pxIBANzYUZQewkQUAP3iOl6A/ltLs5fm0fTPAMDtNVEOywAAAADohlGaV2IAgGubRCkRN6IA6CcbiQH6L18tchi+DASAWRpNBwAAAIBuqEQAANdSp9kKNyED9J4iMcBwnE0f8HOh+EQcAHBr2yIAAAAA6Iz7IgCAK2nS7EQpEdfiAOg/RWIAD/0AwM14+QQAAADQHT4KB4DL5eVk+2E5GcDgrIgAYPDywdnjcD07AFxXPlC7JwYAAACA1ttI81IMAPBJR2mOo7z7AGBgbCQGIH9JmL8o3PVLAQBcy1qaSgwAAAAArVeJAAA+6rwvcBj6AgCDpUgMwLnJ9BeEI78gAMCVPRABAAAAQOvdFwEAvKdOs5VmJ00jDoBhWxEBAB+RNyw+TjMWBQBcqonyIQ4AAAAA7fV3EQDAW02U5WITUQBwTpEYgMuMohSKt0UBAJ+Ui8SNGAAAAABaqUrzQgwADFy+lfhJmkNRAPBTqyIA4BJNlKtM8pUmtTgA4KN8cAMAAADQXg9EAMDAHUdZinIoCgA+RpEYgKuoo5SJd8PGRQD4qfsiAAAAAGitSgQADNRJlALxfpSNxADwUSsiAOAG9tIcpFkTBQD43QoAAACgpfJ7jNdiAGBgTqOUh2tRAHAVNhIDcBPnV58chS8XASDbFgEAAABA6zizAWBImii3DG+GEjEA16BIDMBN5QLx4fSXkIk4ABi4+yIAAAAAaB1nNgAMQX53n5eAeXcPwI24fheAWRmleZqmEgUAA9RE2dYPAAAAQHu8ivL+AgD6apJmP9wkDMAtKBIDMGtVmoNQKAZgePKX/qdiAAAAAGiFjTQvxQBAT9VpdqMsOgGAW1kVAQBz+IVlyy8tAAxQJQIAAACA1qhEAEAP5YUmW9NpxAHALCgSAzAvkyhXvLtGBYCheCACAAAAgNZwVgNAn+R37nmZV74dsRYHALO0IgIAFmAtzV6aA1EA0HP3wgc0AAAAAMuW30u8FgMAPZDfOTxJcxzePwAwJzYSA7CoX24Oo2wonogDgB7bFgEAAADA0lUiAKAHJlE2EB+GEjEAc6RIDMAiNeG6FQD67b4IAAAAAJbOGQ0AXVZHeaee36034gBg3lZEAMASVWkep9kQBQA9kTcC3BMDAAAAwFK9SjMSAwAd00QpD9eiAGCRbCQGYJnyL0C+pASgT9bC1ZkAAAAAyzQKJWIAuiUvKcnvzNdDiRiAJVAkBqANJtNfio6mvyQBQJc9EAEAAADA0myLAIAOye/I87vyiSgAWJYVEQDQMnmT416aA1EA0FFNlEM/AAAAABbveSgTA9B+kygl4kYUACybIjEAbTWKUiYeiwKADspF4kYMAAAAAAv3dxEA0GJ1lAJxLQoA2mJVBAC0VJNmN82mX6IA6CBbbwAAAAAWz5kMAG3VpNlJsxXefwPQMorEALTd6fSXqa2w2RGA7nggAgAAAICFcyYDQNucpdmPcpPhiTgAaKMVEQDQMeM0B2lGogCg5e5FOSAEAAAAYDFehfcHALTHUZrj8K4AgJa7IwIAOiZvKH6W5oc0G2nuigSAlvr36b+3AAAAAJi//M7gX8UAQAvkzcO/nv58Iw4A2m5VBAB0UP5i8zDK9S/H4gCgpe6LAAAAAGBhKhEAsGR1mq00O2kacQDQFSsiAKAHRmkO0oxFAUCL5A9f7okBAAAAYCFehDIxAMvRpDlKMxEFAF2kSAxAn1RRCsWVKABoibx14EQMAAAAAHO1lua1GABYsLxQ5EmU23QBoLNWRQBAj9RRrorJ04gDgBa4LwIAAACAudsWAQALdpxmPZSIAegBRWIA+qie/tK2GwrFACyXl1gAAAAA8+djbgAWJd9CmN9F70fZSAwAnbciAgB6Ll9ntpfm0fTPALBom2lOxQAAAAAwN6/DOwAA5iuf8+fycC0KAPrGRmIA+i5/BXoY5avQiTgAWIKHIgAAAACYmyqUiAGYnybKTbh5aUgtDgD6SJEYgKE4m/6ClwvFJ+IAYIEqEQAAAADMzQMRADAH+f3yUZQC8UQcAPTZiggAGKgqzUEodwGwGPlDlkYMAAAAADP3Ks1IDADM0CTNfpQyMQD0no3EAAxVnWYrzU4odgEwf9siAAAAAJi5USgRAzA7dZTFIPmmWyViAAZDkRiAoTvxyyAAC/BQBAAAAAAz5+NtAGbhNMoSqjyNOAAYmhURAMCP1tLspXk0/TMAzNK98NEKAAAAwCy9SFOJAYAbymf2+2kmogBgyBSJAeBDuUT8OM1YFADMUN5+PxEDAAAAwEzks/zXYgDgBnKB+Ema47AABABiVQQA8NFfHHPZaz3NiTgAmJEHIgAAAACYmW0RAHADkzSbaQ5DiRgA3rKRGAA+r0pzEK5HA+D27oWDSQAAAIBZeB7KxABcXZ1mP82pKADgfTYSA8DVfqncirKluBEHALfg5RYAAADAbFQiAOAKmijvevMoEQPARygSA8DVTdKsR/lS1TZJAG7ivggAAAAAbi1/rL0mBgAukd/n5kVR+f1uLQ4A+LQVEQDAjeQDyr00j8JhJQBXlw8u74kBAAAA4FaephmLAYBPOEpzHJZDAcCVKBIDwO2M0hyEA0sArm4nzYkYAAAAAG7sVZTzeQC4aBKlRNyIAgCublUEAHAr+ZdQV+IAcB0PRAAAAABwYxuhRAzA++o0W1He2zbiAIDrUSQGgNlopr+cboVCMQCX2xYBAAAAwI09FAEAU02UWwC9owWAW7gjAgCY+S+rz9J8H2UrwppIAPiJu2n+mObPogAAAAC4tt+Gs3eAoTtL829pvgpn7QBwazYSA8B8TNKsp9mf/iILABc9EAEAAADAteUFHiMxAAzaUZT3sMeiAIDZUCQGgPk6nv4ieyQKAC7YFgEAAADAtVUiABiskyjvXQ/DIicAmKkVEQDAwozSHKQZiwKAZCtNLQYAAACAK3sZZSsxAMNRR1naVIsCAObDRmIAWJwmzW6aTb/oApA8EAEAAADAlY1CiRhgSJoo71Yt5QCAOVMkBoDFO53+wrs1/TMAw7QtAgAAAIArc5YCMAxnUTYQr6eZiAMA5m9FBACwdOM0B1G2KQAwLHlLvY9KAAAAAD7vZdhIDNB3x1FKxGeiAIDFuSMCAFi6XCB7EuUDn3wIelckAIPxJs23YgAAAAC41CjN/xEDQG+dpPl1mt9FOTcHABZoVQQA0BqHUa7oORIFwGC4khMAAADg85yhAPRTXri0lWYnTSMOAFgORWIAaJd8Tc9hlELxRBwAvTcKV3ICAAAAfM59EQD0SpNmN81mmlocALBcKyIAgFbL5bLHaSpRAPTWcZp9MQAAAAB81Fqa12IA6IW8VOlJlHPxM3EAQDsoEgNAN1RpnkbZXAlAvzRRNtEDAAAA8KFxlPNxALptEmWphgIxALTMqggAoBPqKCWzfMVPIw6AXhlF2UAPAAAAwIceiACg0+p4955TiRgAWuiOCACgU07TPEvzQ5TS2V2RAPTCmzTfigEAAADgPWtRNlgC0D35veZXaY5CgRgAWs1GYgDonvyL9mGUL3ePxQHQC9siAAAAAPiAMxOA7snvMvP24c0o24gBgJZTJAaAbv8Svh+lUDwRB0CnjaJsmgcAAADgnQciAOiM/O4ybx/27hIAOuaOCACgF7+Uf5PmD1GKaCORAHTSmzTfigEAAADgrbVQRAPoivz39VdpTqKcdQMAHbIiAgDonSrN01AoBuiaJsqmBgAAAAAixlHOugForzrKDaqnogCA7loVAQD08hf2XETbjVJKA6AbRmm2xQAAAADw1gMRALRWk2ZrOkrEANBxd0QAAL2Vf2l/luaHNBtp7ooEoPXylW/fiAEAAAAYuLU0EzEAtM5Zmn8JC40AoFdWRAAAg5APXR9HuQoOgPbKh7D3xAAAAAAM3DjNUzEAtMpRmuMo59gAQI+sigAABiH/Qp+/DF5PcyIOgNbKH35siwEAAAAYuAciAGiNSZR3jIehRAwAvaRIDADD0qTZSbOVphYHQCt5UQYAAAAMmQ+tAdqhjvJOMS8rasQBAP21IgIAGLR8GPs4zUgUAK2RNzrcEwMAAAAwUOM0T8UAsDRNmv1wyykADIaNxAAwbPkAIF9FlL8kdhURQDvYugMAAAAM2SMRACxFfleYC8T53aESMQAMiCIxAJBNohwKHIVCMUAbPBABAAAAMECjNBtiAFi4/I4wvys8FgUADM+KCACAn8ibMB9HuT4OgOW5Fz7uAAAAAIZlL8r5NACLkTcP5y3EjSgAYLhsJAYAfiqX1nbDtUUAy7YtAgAAAGBgHooAYCHqNFtpdkKJGAAGT5EYAPiUJsrhQT5EqMUBsHAPRAAAAAAMyCjNhhgA5qqJslDI+z8A4EeKxADA59RRDhPyoUIjDoCFyRuJ18QAAAAADITbmQDmJ99IehTlRtKJOACAi+6IAAC4otM0T9L8d5p/TnNXJABz9+/Tv38BAAAA+u7/ho+qAebhOMotpL8XBQDwMSsiAABuIB/m7qV5FA52AeYpl4g3xQAAAAD03Eaal2IAmKmTNPvhxlEA4DNWRQAA3EC+/ugwSrltIg6Auckv0UZiAAAAAHruoQgAZiYvqNiKsoW4EQcA8DmKxADAbTRpdtOsp6nFATAX2yIAAAAAes75B8DtNVHe2+VFQLU4AICrWhEBADBDVZqD6U8AZqOJ8sEGAAAAQB9VaV6IAeDG8k2iT9IcT/8MAHAtNhIDALNUR7kqKX/t3IgDYCZGaTbEAAAAAPTUQxEA3NgkyiKKw1AiBgBu6I4IAIA5OI3y5fN/p/nnNHdFAnArb9J8KwYAAACghybhDBnguuooy32eRTk/BgC4sRURAABztpZmL82BKABurImyVQIAAACgT7bTPBcDwJXlZT77UYrEAAAzsSoCAGDO8jVKh1EKcBNxANzIKMqLNQAAAIA+eSgCgCvJ79t202yGEjEAMGM2EgMAi7aR5nGaShQA1zKJclAMAAAA0Af5NrvXYgC4VC4QP0lzPP0zAMDMKRIDAMtSRSkUb4gC4EryIfE9MQAAAAA9MU7zVAwAnzRJc5SmEQUAME93RAAALEmT5us030cpE6+JBOBSd6d/Z56KAgAAAOiBXCL+RzEAfKBOsxPlPZotxADA3NlIDAC0xWGaR6FQDHCZkygHyAAAAABdNkrzSgwA72nS7EYpEgMALMyqCACAljhMsx7liiYAPm47yos2AAAAgC4biwDgR3nrcC4Q5/dktTgAgEW7IwIAoEXeRDkgeRZlM/GGSAA+8H2a78QAAAAAdNjTcDsdQJYX7HwVznwBgCVaEQEA0GK5SPw4TSUKgB+dptkUAwAAANBR+dz3pRiAgZtEKRE3ogAAlm1VBABAi+Wy3NZ0GnEAvLURNrYDAAAA3fVIBMCA1VHee+2Gd18AQEsoEgMAXVCnWQ+HKgDnHooAAAAA6KhtEQAD1KTZiVIirsUBALTJiggAgI5ZS7MXZWvFmjiAgTpLc08MAAAAQMeM0zwVAzAg+Sz3KM2xKACAtrKRGADomnzgchhlQ7FDF2Co8ocUtvcAAAAAXfNABMCA5AKx91kAQOvdEQEA0FFv0nyb5lmUQt2GSIAB/j34jRgAAACAjhil+a0YgAE4SfPr6c834gAA2s5GYgCg65o0u2m20tTiAAZkHOVDCgAAAIAucLsS0Hd1lPdVO1HeXwEAdMKKCACAnqnSPI2y3QKg7/KHFBMxAAAAAB3wKpzbAv3UpDkKZ7UAQEcpEgMAfTVOcxAOpoF+O02zKQYAAACg5TbSvBQD0DNnaZ6kORQFANBlisQAQJ+tpdlL82j6Z4A+Wg/X5AEAAADtlm+RG4sB6JHjKFuIz0QBAHTdHREAAD32Jk2d5us0/xhl6wVAH30rAgAAAKCl8pKH36a5KwqgB07S/DrN76K8hwIA6DwbiQGAIRmleZxmWxRAj+SNF/fEAAAAALTUOMpGYoAuO02zH2WBDQBAr6yKAAAYkCbNTpqtcNAD9Efe6uMDCQAAAKCtHooA6LAmzW6azfBuCQDoKRuJAYAhy8W7vKF4JAqg4/J1ejtiAAAAAFpmlOaVGIAOyjfBPUlzPP0zAEBvKRIDAJSr9XKheE0UQIfdCwfaAAAAQLvkc9c9MQAdM0mzH85bAYCBuCMCAIA4TfN1mh/SbKS5KxKgg/4rzXdiAAAAAFrkt2GBA9AddZqtNM/SvBEHADAUNhIDALwvH2rnLRljUQAd06RZFwMAAADQEttpnosB6IC8cCZvIK5FAQAM0aoIAADek6+p2o1SxjsRB9Ahoyhb1QEAAADa4KEIgJY7fye0GUrEAMCA3REBAMBH5cOj36X5Q5Ry3kgkQAfcTfONGAAAAIAlG6X5rRiAlsrvgH6T5qs034kDABg6G4kBAC5Xp9mK8kV6Iw6g5fKVoWtiAAAAAJZsLAKgpSZRNhAfRikUAwAM3ooIAACuZS/NQSjqAe2VP3yYiAEAAABYolfhljegXeo0+2lORQEA8D5FYgCA68sl4lwofhQKxUD75IPwTTEAAAAAS5JvTHouBqAlmijLF2pRAAB8nCIxAMDNjaJsJx6LAmiZXCS2WQMAAABYhlwi3hYDsGRnUTYQT0QBAHA5RWIAgNsbpXmaphIF0BLHUQ7JAQAAABYp3+D2WgzAkh1FOSM9EwUAwOetigAA4NaaNFvTqcUBtMBYBAAAAMAS7IkAWKJJmvU0h6FEDABwZXdEAAAwM02aZ2m+T7MRZfsGwDLcnf5ddCoKAAAAYIHyzW3ORYFFq9PspnkSCsQAANdmIzEAwOxNonzxvh8OrIDleSgCAAAAYIG204zEACxQk2Yn3BgJAHArKyIAAJirvH0jX+d3IApgCfJHDY0YAAAAgAV4HqVMDDBveYnLUZpjUQAA3N4dEQAAzNWbKF/BP4tSKt4QCbBg34oAAAAAmLNRmt+KAViAXCD+KmwgBgCYGRuJAQAWKxeJH6epRAEsQN7McU8MAAAAwJwdhlvZgPk6SbMfbmADAJi5VREAACzUaZqt6ZyKA5izvAl9LAYAAABgzh6KAJiTOso7lZ1QIgYAmAtFYgCA5ajTbKbZDQdfwHx5kQcAAADM03aakRiAGWuivEPJJeJaHAAA87MiAgCAVjhM8yjK9lCAWVsPHy0AAAAA8/EiTSUGYEbO0jyJ8t4EAIAFuCMCAIBWqNN8neaHcOgOzMe3IgAAAABmbJTmWAzAjOS/T3bS/F4UAACLYyMxAED7jNIcpBmLApiRvMXjnhgAAACAGXucZk8MwC2dpNkPt6oBACyFIjEAQHttRDmIr0QBzMBumokYAAAAgBlZS/Nq+hPgJk6jFIhrUQAALM+qCAAAWisfoG1NpxEHcEuPRAAAAADM0HYoEQM300RZfLAZSsQAAEtnIzEAQHeM0xykGYkCuKF8MH8qBgAAAGAGXka5VQ3gqs7SPElzPP0zAAAtcEcEAACdkct/z9L8EOWA/q5IgGvKf298IwYAAADglqo0/yoG4BomaX6d5vdp3ogDAKA9bCQGAOimfGVg3k68JwrgGvKWj/Ww7QMAAAC4nadRblAD+Jw6zW6aRhQAAO1kIzEAQDflr/W/jbKhOJeKXSEIXEXeSPxfab4TBQAAAHBDoyibRQEuk29Z/CrNUVhsAADQaqsiAADotCbKl/xbUb7qB/icRyIAAAAAbmEsAuASuTSc31tshvcWAACdsCICAIBeqaJcKzgSBXAJHx8AAAAAN/U6yi1pABflAvGTNMdhAzEAQKfYSAwA0C91mvUoX/s34gA+wVZiAAAA4CbGoUQMfGgSZQPxYSgRAwB0jo3EAAD9lQ/096IUBh3uAz+VPzpoxAAAAABcw8s0G2IApuo0+2lORQEA0F02EgMA9Ff+6v8wSllwIg7gJ8YiAAAAAK6hCiVioGjSbE1HiRgAoONsJAYAGI5RmsdptkUBRPnY4J4YAAAAgCt6Gj5MhqHLZ4p5A/FEFAAA/XFHBAAAg5EP+H6X5g9RSsUjkcCg3U3zfdgYAgAAAHzeKBQHYeiO0nyV5jtRAAD0y6oIAAAGp45y3dhOlOvHgOF6JAIAAADgCsYigMGapFlPcxhlYQkAAD2zIgIAgMEbp3mcZk0UMEibYSsxAAAA8Gn53PBVOD+EoamjbCGuRQEA0G82EgMAMImyTSAfCNomAMNjKzEAAABwme1QIoYhaaLcaJhvNqzFAQDQfzYSAwBwUX4hkLcTj0UBg3IvfEgAAAAAfFzeRjwSA/RePh/MC0eORQEAMCw2EgMAcFE+KNyNsqH4RBwwGHsiAAAAAD6iCiViGIJcIM7vBZSIAQAGyEZiAAAuU6U5mP4E+quJ8qIAAAAA4KIX4WwQ+iwvFNmPcj4IAMBAKRIDAHAV4yiF4pEooLfyNvKJGAAAAICpUZpXYoBeqqNsIa5FAQCAIjEAANexF6VQvCYK6J3TNJtiAAAAAKaeRlkwAPRHE6VAPBEFAADnFIkBALiuXCLOheJHoVAMfbMVtpAAAAAA5dzvtRigN87SPElzKAoAAH7qjggAALimN1GKhr+L8kJhQyTQK9+IAAAAAAbvX9NUYoBeOE6zk+b3ogAA4GNsJAYA4LZGUa45rEQBvbAe5YpDAAAAYJjy8oBX4TYy6LqTNPvhrA8AgM9YFQEAALfUpNmaTi0O6LyxCAAAAGDQtkOJGLrsNMp5fd5C3IgDAIDPsZEYAIBZG6c5iLKpGOiesyhbic9EAQAAAIOUtxGPxACd06Q5SjMRBQAA12EjMQAAszaJUkLMV6YpIkL35I1D22IAAACAQRqHEjF0TT6HzwXizVAiBgDgBmwkBgBgnnIhcS/KhmKgO5ooHwQAAAAAw/IiTSUG6IxJWOoBAMAtKRIDALAIoyhl4rEooDN20pyIAQAAAAajilIkBtqvTrMbZSEAAADciiIxAACLtJHmcdhqAl1Qp9kSAwAAAAyGbcTQfqdRNhDXogAAYFYUiQEAWIYqSqF4QxTQaptRXk4AAAAA/TZK80oM0FpnUQrEE1EAADBrd0QAAMASNGm+TvN9lDLxmkigle6m+UYMAAAA0Hs++od2ygXi36T5Ks134gAAYB5sJAYAoA0O0zwKhWJoo/Uo5X8AAACgn0ZhGzG00STNUTibAwBgzmwkBgCgDeooG4p/SFOJA1rlv6f/jAIAAAD9ZBsxtEudZifKmfmZOAAAmDcbiQEAaJtRmoM0Y1FAK+SXFevhpQUAAAD0Ub4h7FW4KQzaoEmzGz7qBwBgwVZFAABAyzRRDks3w4EptEF+kTgWAwAAAPTSXigRw7LlD/jzmXj+mL8WBwAAi2YjMQAAbVeleRplUzGwHE2UFxkAAABAf9hGDMt3lOY43AYGAMAS2UgMAEDb1VEKjHkjQyMOWIpR2EoMAAAAfWMbMSzPJMq592EoEQMAsGQ2EgMA0CX5xUZ+wfEovOSARWvCVmIAAADok9fhjA0WrY6yhbgWBQAAbWEjMQAAXZI3MxxGKTMeiwMWapSmEgMAAAD0wjiUiGGRmjQ7abZCiRgAgJaxkRgAgC4bpTmI8uIDmL86yssOAAAAoNteRTlbA+YrL8fIG4gtxgAAoLUUiQEA6IMqSqG4EgXMna0pAAAA0G3jNE/FAHN3XiA+EwUAAG2mSAwAQJ9UUV6CjEQBczNJsysGAAAA6CzbiGG+TtLsp2lEAQBAFygSAwDQR+MoG4pHooC5WA8vQgAAAKCLxmEbMcxLHWULcS0KAAC65I4IAADoodM0z9L8kGYjzV2RwEytpflGDAAAANA5z6e/1wOz00TZQGwLMQAAnWQjMQAAfZdfjDyOsm0FmB1biQEAAKBbxmEbMczSWZonaQ5FAQBAl62KAACAnsuHubtRSo8n4oCZGYsAAAAAOuWhCGBmjqOcOR+KAgCArrORGACAoanSHEx/AjeXS/rr058AAABAu1VpXogBbi0vq9gPN3UBANAjd0QAAMDANGmepfljmn9OsyYSuJG7aX5IU4sCAAAAWu9pmpEY4MZO03yV5jfhw3oAAHrGRmIAAIZunOZxKBTDTdhKDAAAAO1XhW3EcFNNmqM0E1EAANBXNhIDADB0eZPE11E2q25E2bIKXE3+5+W/0nwnCgAAAGgt24jh+vKH83n78G44+wIAoOdsJAYAgHfyVuK8nXgsCriyJspWYgAAAKB9qrCNGK5rkmY/3MIFAMBAKBIDAMCHRlEKxduigCvJm1kmYgAAAIDWySXiSgxwJXWUc65GFAAADIkiMQAAfFqV5iC8bIHPacJWYgAAAGibKmwjhqs4jbKBuBYFAABDdEcEAADwSU2aZ2m+T7ORZk0k8FFr039OTkUBAAAArfE0ys1bwMedpfmX6TTiAABgqGwkBgCAq9uLsqFYoRg+1IStxAAAANAWVdhGDJ+SC8RP0hxP/wwAAINmIzEAAFzdd2m+TvNDlA3Fd0UCP7KVGAAAANrDNmL4uEmar9KcpHkjDgAAsJEYAABuahRlO/FYFPCjXCLeFAMAAAAs1Xaa52KA99Rp9sNH8AAA8AFFYgAAuJ1RlA0vlSjgra0oL2YAAACA5XgVthHDuSbNbjivAgCAT1oVAQAA3EoTpTipPAnFgQgAAABgacahRAzZWZQC8Xo4twUAgEvZSAwAALM1jlKkHImCAVOsBwAAgOWwjRgijtIcRykTAwAAAADAUuyleZ3m78YMcF74KwAAAAAWbuxMwgx8/j979wod6XmlC3g7TRrqMLP5xcxGYsPyi4VFzXyQq5lZq1mY1ChhaqOZg1RGPkEtoywjldHJIMlsBnWZzaDIzEFzvu2vFKnbfdGlLv/ledZ6V7WdoL2iFfXWq/2dhCI9AADcmYvEAACwOltRC8WHRsEIuUoMAAAA6+UaMWM1i3qFeGYUAAAAAAB0URP1GoarIOIqMQAAALAKE7sIGWGyPL/vyx8AAB7GRWIAAFifnZLjktYoGAlXiQEAAGD18lWs83CNmPG4jHqB+KVRAAAAAADQR23UH+64GiKuEgMAAAAPdWQHISNK/u99y5c9AAAsj4vEAACwOZOSw3AthmFzlRgAAABWJwuVr0OxkuE7LXleMjcKAABYrt8YAQAAbMy0ZDvqM3yXxsFAHRoBAAAArMxBKBEzbLOov6j+JJSIAQBgJVwkBgCAbsgf+OQPfpQuGSJXiQEAAGD5XCNmyOZRDzBMjQIAAAAAgDFpSk5K/kdkQDnzpQ0AAABLZ4ckQ8zfSo58eQMAwPq4SAwAAN20U3Jc0hoFA+EqMQAAACxPE/UaMQzJy6hXiC+NAgAAAAAAqjbqD4VcIxFXiQEAAIArrhHLkPIqajkeAAAAAAB4j0koFEv/M/GlDAAAAA+2Y8cgA8l5eJENAAA27hMjAACA3tgqOSh5tvgz9M28ZNsYAAAA4EHy1Z/WGOixecmLkqlRAAAAAADA3WWJ+DhcLBFXiQEAAGBsWrsF6XH+VnIUjiQAAECnuEgMAAD91ZQchmIm/TIPV4kBAADgvs5LdoyBHpqWPC+5NAoAAAAAAFiuNuqTlq6aiKvEAAAAMFwTOwXpYXJv2fjyBQCA7nKRGAAAhqMtOQmLebpvHq4SAwAAwF29Dnsf+uMi6gXimVEAAEC3/cYIAABgMGZRy5lPoxY1oauakgNjAAAAgFs7CiVi+uEy6n5yN5SIAQCgF1wkBgCAYdqKWtR8tvgzdE3+UGl78QkAAAC8X+52XocdD92WO56vSl6GfQ8AAPTKIyMAAIBB+jnqxY//U/JpyY6R0DGPS/4eLtMAAADAx/yxpDUGOmxa8r9LTqPuJQEAgB5xkRgAAMahKTku2TcKOsRVYgAAAPiwJuo1YuiiWcnzkgujAACA/nKRGAAAxiGLmn8u+T7qD6AaI6EDXCUGAACADzsp+cwY6Jh5yZOSFyX/ZRwAANBvLhIDAMA45WXivFDcGAUdkFeJ58YAAAAAb2hLzoyBDsljBXmBeGoUAAAAAAAwDJOSv5X8j8gGc+JLEQAAAH7l3M5AOpSjki1flgAAAAAAMDz5A4CjUCiWzabxpQgAAAD/MLErkOjOL4Db2wAAAAAAwAhkoTh/MOAHJLKJvPIlCAAAAP/Y0by2K5AN56yk9eUIAAAAAADj00QtdfqBiaw7rS8/AAAA+OXlKHsC2VSyxL7vyxAAAAAAAGijXh7xAxRZ56UbAAAAGLOm5G92BLKB5P/uDnwJAgAAAAAAb5uE5zRlfXHxBgAAgDE7sRuQDeSoZMuXHwAAAAAA8CF5kcRFHFnH85kAAAAwRq29gKw5r6JewQYAAAAAALiVvExyFArFstpMfKkBAAAwQud2ArKmnEUtrgMAAAAAANxLE57alNUli+qe0wQAAGBMJvYBEut5CWriyw0AAAAAAFiWJuoFEz+IkWXnyJcXAAAAI5G/TOv1J1n1L23btQAAAAAAACvThkKxuEoMAAAA93FsDyArzLEdCwAAAAAAsC6TqE8k+iGNLCMnvqQAAAAYuMbf/2VFebX43xcAAAAAAMDaHYQnOWU5aXw5AQAAMGBeeJJl5zzq62EAAAAAAAAblU8mHoUf3sjDcuZLCQAAgIHa9/d+WWLylbCJLysAAAAAAKBrmpKT8MMcuX9aX0YAAAAMTP4C9mt/55clJF8FO1r8bwoAAODOPjECAABgSdp3/LuduP4hxj9HvbQDdzUv2TYGAAAABuSo5NAYeKBpyfOSS6MAAADuS5EYAABIzSJX2rf+89++9c83C8KwDvlDsZfGAAAAwAA0Ua8Rw33NSp5G/eVrAACAB1EkBgCAYbpZ9G1v/Pvfvue/A12Xl3W2w4UdAAAA+u8s3v2yE3zMRdRftp4ZBQAAsCyKxAAA0C/t4rOJ6wvCv33Hv4MhehH16VcAAADoq/2SV8bAHeUvVmeBeGoUAADAsikSAwBAd1xdCL76/KeoxeCrfwfUq8RzYwAAAKCHcsdzHn4RnLvLS8RXrzTl5w83/rN5vLkrufnfBQAA+ChFYgAAWJ+rgnC7+OerS8Kt0cCtnZY8MQYAAAB66Kjk0BhYoywUX9z45/zzT4s/z+O6gHzzzwAAwMgoEgMAwPJcXQ5uFrm6KHxVIAaWY69kZgwAAAD0SFPy2hjogXm8WTD+cfHnm5eOZ8YEAADDoUgMAAB318Z1afif480rw8DqzUu2jQEAAIAeOQv7I4bn5sXjefy6dPz2RWQAAKCDFIkBAODdrorCmX+KNy8NA5v3vOSlMQAAANADk5ITY2DkbpaLf3jr383j+goyAACwZorEAACM3c3CcF4XbsJ1GOiD/CHTdlw/qQkAAABdlLun14tP4ONmi88sGf8U1yVj140BAGBFFIkBABiTNt68MJzxQxzor7xI/NwYAAAA6LDjkgNjgKWaLT7fLhtfBQAAuANFYgAAhqiJ68vCeWV4Z/HPwPDshms0AAAAdFNbcmYMsHZX14vz84e3/tkeCQAA3qJIDABA3zVxfV34t+HKMIzNrGTPGAAAAOig86i7KqBbFI0BAOAGRWIAAPqkiTcLw62RAMXTkqkxAAAA0CFHJYfGAL10VSiel/y4+LwZAAAYFEViAAC6Kq8Kt+HSMPBx+cOd7cUnAAAAbFoT9RqxXRYM09X14u8X/zwL14wBAOgxRWIAALqijTdLw42RAHfwIuq1JwAAANi0s/CSFozVfJEsFf8USsYAAPSAIjEAAJvQxJul4dZIgCXIq8RzYwAAAGCDJiUnxgC8wzyuS8Y/Lj6v/h0AAGyMIjEAAOtwVRZ2bRhYpVnJnjEAAACwIVslrxefAHdxVSr+Ia7LxTNjAQBgHRSJAQBYhTbeLA774QmwLk9KTo0BAACADXhVsm8MwBJdRi0ZZ36KWi6ehyvGAAAskSIxAADL0MZ1cbg1DmCD5iW7UX/IAgAAAOvSlpwZA7BGs6i7sB/j+qLxhbEAAHBXisQAANxHG4rDQHe9LHluDAAAAKxJvsZ1XtIYBdABV6XiH0LBGACAW1AkBgDgNtpQHAb6Ja8S+wEJAAAA63BccmAMQMfdLBjPFn+eGwsAAIrEAAC8y068WRzeMhKgZ2Yle8YAAADAirUlZ8YA9Ngs3rxgnLk0FgCA8VAkBgAgNXFdHN4PxWFgGJ6WTI0BAACAFckd2nnU3RrAkMwX+X7xeVUwBgBggBSJAQDGqy35/eJzxziAAcrLKdvhggoAAACrcVRyaAzAiFwVil0vBgAYEEViAIDxaKJeG766OgwwBtOol4kBAABgmfIX88+NAeAfF4tvlovnxgIA0B+KxAAAw3azONwYBzBSeyUzYwAAAGCJskTslS+Ad8srxVko/j6UiwEAOk+RGABgWJqStuT3i88tIwH45YcU28YAAADAkhyVHBoDwJ0oFwMAdJQiMQBA/+Xlk7w4/PtwBQXgfV5E/UEvAAAAPETu386NAWAplIsBADpAkRgAoJ+uisNt1CvEAHxcXiWeGwMAAAAPkCViv8wPsDo3y8WzxZ8vjQUAYHUUiQEA+mErann4t4vPLSMBuLNZyZ4xAAAAcE9HJYfGALB283jzcvHMSAAAlkeRGACgu5qoF4fz8vC+cQAsxdOSqTEAAABwR3mF+NwYADrjqlD8w+JzbiQAAPejSAwA0C1N1NLwF+GJRIBVyGcQt8NziAAAANxNlojt6wC6K/d9s7guFs+MBADgdhSJAQA2rwnlYYB1Oi15YgwAAADc0nHJgTEA9I6rxQAAt6BIDACwGU0oDwNs0l64SgIAAMDHtSVnxgAwCPOo5eLvo+4GL4wEAECRGABgnZpQHgboinnJbtQnDwEAAOBdtkrOo+71ABimWVwXi2fGAQCMkSIxAMBqNaE8DNBVL0ueGwMAAADvcVxyYAwAozKLN68WO0QAAAyeIjEAwPLlpZIsDz8L5WGArtsLl0YAAAD4tbbkzBgARi9LxbNQLAYABkyRGABgOa7Kw79ffALQD/OSbWMAAADghtz1vV58AsBNisUAwOAoEgMAPMzN8rAfLAD004uSI2MAAABg4VU4FgDA7SgWAwC9p0gMAHB3OyVflExCeRhgKHajLv0BAAAYt0nJiTEAcE9XxeJvF58AAJ2nSAwAcDtN1CskzxZ/BmBYcsG/awwAAACj1pSch+MBACzPLOq14tNwyAAA6ChFYgCA98sfGGR5+PfhKUOAMXhRcmQMAAAAo3VW0hoDACtyGW8Wi+dGAgB0gSIxAMCvtSVfRC0Puz4CMC55ldhlEAAAgPE5Kjk0BgDWaB61WPzt4vPSSACATVAkBgComqjF4WeLPwMwTlki3jUGAACAUdkpOTcGADZsFtfXih07AADWRpEYABi7Scnvo5aIASC9iHqJCgAAgOHLF8myRNwYBQAdkteJs1B8VSx2rRgAWBlFYgBgjJqol4cnUX9QAABvy6vErn4AAAAM30nUPSEAdFnuKr8N14oBgBVQJAYAxiILw3l1OAvEO8YBwEfkMn7XGAAAAAYt94WvjAGAnpmXzKIWi/PTtWIA4EEUiQGAocvScJaH84cCrg8DcBcvSo6MAQAAYJCakvOwMwSg//JK8feLz7lxAAB3pUgMAAyR68MALEteJfZUIAAAwPCclbTGAMDA5C5zVvJ12GsCALekSAwADElTchiuDwOwPLls3wvPAwIAAAzJUdQ9IgAM2TxqqfjbqNeKAQDeSZEYABiCSckX4YIIAKvxsuS5MQAAAAxCG/UaMQCMSR5KyDLx94tPhxMAgH9QJAYA+qqJWiB+Fq4PA7B6eZV4ZgwAAAC9lnvE12GfCABZJr66VKxUDAAjp0gMAPRNG7U8vG8UAKzRvGQ3LNUBAAD67FXYKwLA225eKp4bBwCMjyIxANAHeSFkErVA3BgHABuSi/QnxgAAANBLByXHxgAAH3RR8nUoFQPAqCgSAwBd1pQcRr0S4rlBALogi8SnxgAAANArOyXnxgAAd6JUDAAjoUgMAHRRFofz+nBrFAB0zGXJ9uITAACA7ssDBVkibowCAO4tS8VfRS0V240CwMAoEgMAXZEL/UnUAnFjHAB02KxkzxgAAAB64VXUwwUAwHJkmfjbUCoGgMFQJAYANq2JWh6eRC0TA0AfPC95aQwAAACddlBybAwAsDJZJv568QkA9JQiMQCwKW3UArFrIAD01W7UJ/0AAADonp2Sc2MAgLXIy8RXpeKZcQBAvygSAwDrNolaIN4xCgB6LkvEe+H5PgAAgK7Jl8+yRNwYBQCs3TxqqfirxZ8BgI5TJAYA1iEX95OoBeLGOAAYkJclz40BAACgU16Fl9AAoAvyGENeKZ6GgwwA0FmKxADAKjVRy8OTqGViABiiJ1EvbAAAALB5RyWHxgAAnZM71K/DLhUAOkeRGABYhZ24LhADwNDlJY3tcFEDAABg09qSM2MAgE7LPeq05KuSuXEAwOYpEgMAy9RGvfbRGgUAIzMr2TMGAACAjckX0V6Hl9EAoE8uohaK80qxQw0AsCGKxADAMkyiXiDeMQoARux5yUtjAAAA2IjzsJ8EgL7KEnGWibNUfGEcALBeisQAwH3lZY/9qBeIG+MAgF/shkU3AADAuh2XHBgDAAzCPGqheBquFAPAWigSAwB3lQXiXMo/C88EAsDb5lHLxBbcAAAA6zEpOTEGABikabhSDAArp0gMANxWE3Upr0AMAB+WT/A9MQYAAICV2yk5C/tKABi6LBJnoTh3r444AMCSKRIDAB/TlBxGLREDALfzvOSlMQAAAKxMlofPo+4vAYBxyBLxNGqpeG4cALAcisQAwPs0oUAMAPeVC+298OQeAADAquQl4tYYAGC0ZnF9pRgAeABFYgDgbW3JF6FADAAPlSXiLBN7ag8AAGC5jksOjAEAiHqZOAvF07CLBYB7USQGAK60US8Qt0YBAEszLXlqDAAAAEszKTkxBgDgLVkizuvEL6KWiwGAW1IkBgDaUCAGgFXKIvHUGAAAAB5sp+SsZMsoAIAPyEJxXimeGQUAfJwiMQCMVxsKxACwDnkJY6/kwigAAADuLcvD5yWNUQAAt5Q72SwUT40CAN5PkRgAxqcNBWIAWLd5yW7UUjEAAAB3l5eIW2MAAO5hXvJ1ycuwowWAX1EkBoDxaEOBGAA2KZ/Te2IMAAAAd3ZccmAMAMADZYn46kLx3DgAoFIkBoDha0OBGAC64nnUqxcAAADczqTkxBgAgCWblrwIhWIAUCQGgAFrQ4EYALpot+TCGAAAAD5qp+TcGACAFZqGQjEAI6dIDADD04YCMQB0WT6ft734BAAA4N2aqCXiLaMAANbgtOSrkplRADA2isQAMBxtKBADQF/MSvaMAQAA4J2yPHwW9SIxAMA6zaJeKJ4ZBQBj8cgIAKD32pKTkqOoVzoAgO7L/8/OH4x/ZxQAAAC/8q8lvzMGAGADmpJJ1J/B/lgyNxIAhs5FYgDor/zLqwvEANBvT6I+mQcAAEB1XHJgDABAR8zChWIABk6RGAD6J5/zy2V6axQA0HuXJXslF0YBAADwy/W/E2MAADpoFgrFAAyUIjEA9EcT9QLxxCgAYFCyRJxl4kujAAAARiwPKJwbAwDQcdOoheK5UQAwFIrEANB9TSgQA8DQnZY8MQYAAGCkskR8VrJlFABAT0xDoRiAgXhkBADQWU3J8eIvoTvGAQCD9lnUX/adGQUAADAyWR5+FXUfCgDQF/nz24PF9zL/XvKzkQDQVy4SA0D3bC3+0vksXOAAgLHJq8SnxgAAAIxIXiJujQEA6LHLkq9KXi7+DAC9okgMAN2hQAwA5JJ5r+TCKAAAgBE4KZkYAwAwEPOSF1FfnAWA3lAkBoBuyALxYSgQAwC1RJxlYpcrAACAITuKuhMFABia3PE+L5kZBQB9oEgMAJs1ibosb4wCALhhFrVMDAAAMESTqNeIAQCG7DRqoXhuFAB02SMjAICN2C/5S9SFuSvEAMDbmsX3CN8ZBQAAMDA7UXejAABD91nUl2nz0GNeKf7ZSADoIheJAWC92qgXiFujAABu4WnJ1BgAAICByBLxWTiuAACMz2XU68RTowCgaxSJAWA9mqhP9bVGAQDc0W7UaxUAAAB9luXh16FEDACM2yxqodjOF4DO+I0RAMBKNVELxLkgb40DALiHs8X3FAAAAH21FS4RAwCktuS85Nj3RgB0hYvEALAa+Ze+g5JDowAAliCvU+xFff4OAACgb7JE3BoDAMAbct+b14mnRgHAJikSA8DyHZU8C79BCgAs12nJE2MAAAB6Jl9smxgDAMB7zUqelsyNAoBNeGQEALA0k5JXJfslj40DAFiyz6L+otJ3RgEAAPSEEjEAwMc1UV+7zYOQM+MAYN1cJAaAh2ujLsQbowAA1iAvU0yNAQAA6LhJ1L0pAAC3dxF1B3xhFACsiyIxANzfTslx1CIxAMA67YXLFAAAQHdNQokYAOAhXpa8KLk0CgBWTZEYAO6uKTkMT/IBAJuTy+MsE7tKAQAAdM1+yStjAAB4sHnU68QzowBglRSJAeD2tkoOopaIAQA2bV6yGy5SAAAA3ZGvuJ1F3aUCALAcrhMDsFKKxABwO0clz8ICHADolrxInJeJLZABAIBNUyIGAFidecmT8EodACvwyAgA4IMmUZ/hy+f4HhsHANAxny7yrVEAAAAbpEQMALBa+X3Wl1GPRs6MA4BlcpEYAN6tLTlcfAIAdN205KkxAAAAG5ClliwR7xgFAMBa5FXip+E6MQBL4iIxALypKTkp+dPizwAAfZA/sP8xLI4BAID1UiIGAFi/fKXu85K/l/zVOAB4KBeJAaDKhXdeID4wCgCgx/IKxdQYAACANVAiBgDYvNOoe+FLowDgvhSJASDiqORZ1MU3AECf5bJ4L1wmBgAAVkuJGACgO+ZRy8QzowDgPhSJARizSdQrxI1RAAADokwMAACs2knU/SoAAN3xIuoRLQC4E0ViAMaojVogbo0CABioLBNvh+fsAACA5VMiBgDortOo14nthgG4NUViAMakKTku2TcKAGAE8iJxXia2MAYAAJZFiRgAoPvmJU/Cq3UA3JIiMQBjsFVyEPUKMQDAmCgTAwAAy6JEDADQL3mZeGoMAHzMIyMAYOCyQPyq5HdGAQCM0KeLfGsUAADAAygRAwD0T77U24T9MAAf4SIxAEP+S9Hx4i9GAABjN416fQIAAOCulIgBAPrNy3UAfJAiMQBD05YcLj4BALg2DWViAADgbvJYw4ExAAD0XpaIs0x8YRQAvO2REQAwEE3UpfbLcIUYAOBddkp+DItiAADgdiYlfzIGAIBBeFzyecl/hx0xAG9RJAag77ZK/hD1eb1/MQ4AgA/aD2ViAADg4yZRd64AAAxHlolzR5wv2M+MA4ArnxgBAD02iXqFeMsoAADu5GnJ1BgAAIB3mIQSMQDA0E2j7okBQJEYgF5qoy6yG6MAALi3JyWnxgAAANwwCSViAICxyJfr9koujQJg3BSJAeiTnagXiFujAAB4sFwO55L4wigAAIBQIgYAGCNlYgAUiQHoha2oBeKJUQAALJUyMQAAkCahRAwAMFb2xAAjp0gMQJdlgfig5NnizwAALJ8lMQAAjNsklIgBAMbOnhhgxBSJAeiqSclhSWMUAAArZ0kMAADjlC/BHRgDAABhTwwwWorEAHRNG3V5vWMUAABrZUkMAADjkleIJ8YAAMANuSd+XjI1CoDxUCQGoCuaqIvr1igAADYml8Tbi08AAGC4lIgBAPiQp6FMDDAaisQAbNpW1AvEE6MAAOiEvEicl4mViQEAYJiUiAEAuA1lYoCRUCQGYFOyQHxQ8mzxZwAAukOZGAAAhkmJGACAu1AmBhgBRWIANmES9QqxAjEAQHcpEwMAwLAoEQMAcB/KxAADp0gMwDq1UZfVjVEAAPSCMjEAAPRfHnTIww4TowAA4J6UiQEGTJEYgHVoSw4XnwAA9IsyMQAA9FeWiM9KdowCAIAHUiYGGChFYgBWqYlaIJ4YBQBArykTAwBA/ygRAwCwbLknnhkDwLAoEgOwCrmgzgLxgVEAAAyGMjEAAPSHEjEAAKuQ++HcE18YBcBwKBIDsEy5nM7y8LPFnwEAGBZlYgAA6L4sD5+EEjEAAKuhTAwwMIrEACzLpOQ4FIgBAIZOmRgAALory8N5idieFgCAVVImBhgQRWIAHmpScljSGAUAwGjMS56EJTEAAHSJEjEAAOs0L9kNRycAek+RGID7aqNeIPY8HgDAOLk4AQAA3bFfchJKxAAArJcX7AAGQJEYgLtqo14gbo0CAGD0lIkBAGDzJlFLxAAAsAm5H941BoD++o0RAHBLbdRn8c5CiRgAgGpr8f2hVyoAAGAzDkKJGACAzdrxPSlAv7lIDMDHNFEvEE+MAgCA93CZGAAA1i/LGhNjAACgI16WPDcGgP5RJAbgfZpQIAYA4PayTPykZGYUAACwckrEAAB00dOSqTEA9IsiMQBva0KBGACA+7MoBgCA1dkqOYv6fDQAAHRRHpw4NQaA/lAkBuBKW/JFKBADAPBwysQAALB8SsQAAPRBvl63V3JhFAD9oEgMQBv1AnFrFAAALJEyMQAALE+Wh7NEvGUUAAD0wLxkN2qpGICOUyQGGK8maoF4YhQAAKzINGqhGAAAuL+25FUoEQMA0C95kXjXGAC675ERAIxOLpv/WPJ/wxN4AACsVn6/2ZR8axQAAHAvk6gl4sdGAQBAz3wa9sMAvaBIDDAuB1GXzq1RAACwJldl4u9LfjYOAAC4teOSPxkDAAA9lvvhn0r+ahQA3fWJEQCM5pvzk3CBGACAzcln7PZKLo0CAAA+KF+VyxLxxCgAABiIJyWnxgDQTYrEAMOWC+fDqJeIAQBg05SJAQDgw3KnexaOQgAAMCy5E87d8IVRAHSPIjHAcLVRrxA3RgEAQIdYGAMAwLtlefhV2OkCADBMDk0AdNRvjABgcK6evcurFY1xAADQwe9XXVgDAIA37YedLgAAw5Y74RNjAOieR0YAMLhvvHPZ/DujAACgwx6XfFnyY7hMDAAAB1ELFY+NAgCAgfus5JOSmVEAdIciMcBwHJV8E/XCGwAA9EFeXfup5K9GAQDASGWB+A/GAADAiLQl35fMjQKgGz4xAoDey+Lwq8U32wAA0EfTkqfGAADAiOReN1+X2zEKAABG6LJkN5SJATpBkRig39qoJWJXiAEA6LvTqGXiS6MAAGDgsjyce93GKAAAGLGLqGViADbsN0YA0FsHUS9WKBEDADAE+76/BQBgBCaL73sbowAAYOTyF+xOjAFg81wkBuifLFYcR104AwDA0ORF4r2o1ygAAGBIjkoOjQEAAN6QL9VNjQFgcxSJAfqlifrk3Y5RAAAwYFkmfh6WxwAADEMeh8hLa/tGAQAAv+K4BMCGKRID9EeWhz31DADAmGSZ+KUxAADQY1fPNTsOAQAA75cl4iwTXxoFwPo9MgKAXpiUfBNKxAAAjMvvor7K8a1RAADQQ3mB+NXie1oAAOD9Pl3ELhhgA1wkBui+g5JjYwAAYMRcowAAoG+OSg6NAQAA7uRpydQYANZLkRig2/LJu4kxAADALyXiLBNfGAUAAB2Wr8rlFeLWKAAA4M5yD7xbMjcKgPVRJAboplw2Z4l43ygAAOAfcon8PFykAACgm3ailogbowAAgHvLYxK7xgCwPo+MAKBzskR8Fi5WAADA2x5H/WW7/J75O+MAAKBDJiV/WXyvCgAA3N+nYQcMsFYuEgN0y1WJeMcoAADgg2YlT6JeKQYAgE3Jne5x1CIxAACwPHtR98AArJgiMUB3ZHn4JJSIAQDgtvKJu6eLTwAAWDc7XQAAWJ08IrEdjkkArJwiMUA35KI5LxF79g4AAO4ml8jPS6ZGAQDAGk2iXiK20wUAgNWZRb1MDMAKPTICgI1TIgYAgPt7XLK/+H76O+MAAGANskD8p8X3ogAAwOo0JT+V/NUoAFbHRWKAzVIiBgCA5ZmVPAlP3QEAsBpNyauoe10AAGB9dksujAFgNRSJATZHiRgAAJYvS8T51J2lMgAAy5SvYJyEfS4AAGxC7nt3jQFgNR4ZAcBGKBEDAMBq5PPSX4bn7gAAWI7c4f5ryZ8W32sCAADr9+nie/PvjAJg+VwkBlg/JWIAAFiP05KnUa8UAwDAXeUu92TxCQAAbF6+RjczBoDlUiQGWC8lYgAAWK988u7p4hMAAG7roOQw7HIBAKBL5iW74XgEwFI9MgKAtVEiBgCA9csn7z4v+e9QJgYA4ONyf/tN1CLxY+MAAIDOfb+eO99vjQJgeRSJAdb3zeyrksYoAABg7bIAsr/4fvz7kp+NBACAd2hL/l/UoxAAAEA35ffrP5T8h1EALMcnRgCwclkiPgvLZwAA6IK8Svw0XCcGAOBNRyWHxgAAAL1wWbK9+ATggVwkBlgtJWIAAOiWfPbuy5KfSv5qHAAAo5e727+UfG4UAADQG/kK3WclfzYKgIdTJAZYrVxA/4sxAABA5/wuamnku5KfjQMAYJQOSk5KGqMAAIDeySLxDyX/YRQAD/OJEQCsTC6gJ8YAAACdNi95WjIzCgCA0ciX5F6VtEYBAAC9dlmyvfgE4J5cJAZYDSViAADoh63F9+75y9Yz4wAAGLz9krOo18sAAIB+e7z43v7PRgFwfy4SAyzfJGqRGAAA6JeLkidRrxQDADAs+QtkubfdNwoAABic3OueGgPA/SgSAyzXJJSIAQCgz/IJvBclL40CAGAw2qh728YoAABgkHKvu734BOCOFIkBlmen5NwYAABgEPJ6xdOweAYA6LO8QnxYcmAUAAAweLnTfWIMAHenSAywHFkiPou6mAYAAIYhS8RZJvYkHgBA/7ThCjEAAIxNFontcwHuSJEY4OGyPJwl4h2jAACAQXpZ8iJcJwYA6ANXiAEAYLxyh7sddrkAd6JIDPBw56FEDAAAQzePep14ZhQAAJ3VhivEAAAwdnmR+IkxANzeIyMAeJBcSv/OGAAAYPDyst1k8fnvJT8bCQBAp75X+2PJvy3+DAAAjNdnJd9HPQ4BwC24SAxwf/k03rExAADA6MzDdWIAgK7Yj3rwQYEYAAC4Mi/ZLbk0CoCPc5EY4H6ultMAAMD4uE4MANCN78m+KTkqeWwcAADAW39fyL8nfGcUAB/nIjHA3e2UnIULFwAAgOvEAACbMIn6WpwdLQAA8CF7YXcL8FGKxAB3k4vpLBHvGAUAAHDDy5IX4ak8AIBVaqK+FNcaBQAAcAsXJbvGAPBhj4wA4E7yqbzWGAAAgLf8S8nnJT9EvVIMAMByHUUtEX9mFAAAwC19GvXQ5swoAN7PRWKA2zsqOTQGAADgI6Ylz8N1YgCAZWhLjsMrcQAAwP1thwMQAO+lSAxwO/slr4wBAAC4pSwRPy05NQoAgHvZilognhgFAADwQLOSPWMAeDdFYoCPy0sXZ1EX1wAAAHcxi1oonhsFAMCtTaKWiO1kAQCAZck97dQYAH5NkRjgw3JRnSViz+YBAAD3ldeJvyo5MgoAgA/KPWwWiFujAAAAliz3tNuLTwBueGQEAB/0TVhaAwAAD/N48feK/ZL/DNeJAQDelgcd/hj1OlhjHAAAwArknvbTkm+NAuBNLhIDvN9B1OsXAAAAyzQteR4uXwAApEnUPeyWUQAAAGuwVzIzBoBrisQA75ZP6J0bAwAAsCJZIn5R8tIoAICRyh1sFohbowAAANZoXrJtDADXHhkBwK/k5YssET82CgAAYEXy7xu/K9kv+c+oy2sAgDHI/eu/lvxbSWMcAADABv5Oksc3Z0YBULlIDPBrZ+EKBgAAsF7TkudRLxUDAAzVQclh1B/cAwAAbEruYXfDgQeAX7hIDPCmo5KJMQAAAGuWT3t/WfL3kr8aBwAwMG3UAw6fh5fgAACAzcu/lzQlfzYKABeJAW5qoy6zAQAANmle8jQ8rQcA9F9TchJegAMAALrpScmpMQBjp0gMUOVTeq/Dk3oAAEB35AL7eXheDwDon9yzHpYcGAUAANBh85LdkkujAMbskREA/OKbqE8JAwAAdMVnUcs3+YvgFyU/GwkA0ANHUfetrVEAAAAdl78E+ffwOhwwci4SA9QfzB8bAwAA0GF5EeNFyUujAAA6ahL1CnFjFAAAQM9sh5fhgBFTJAbGLq8QnxsDAADQE/OS5yWnRgEAdEQbtUDcGgUAANBTs5I9YwDGSpEYGLN8oiJLxI1RAAAAPTOLeqF4ZhQAwIY0JSehQAwAAAzDk3DAARgpRWJgzHLJPTEGAACgx6ZRC8VzowAA1qSJeoF4YhQAAMCAzEu2jQEYo0dGAIzUfsmfjAEAAOi5nZKDqC+u/HvJz0YCAKxIfr/xh5JXi+9BAAAAhvZ3njzKOTMKYGxcJAbGqCk5X3wTCAAAMBSXJV+VvFz8GQBgGXKPmr+49CzsVAEAgGHLvepueAEOGBlFYmCMzkpaYwAAAAbqqlB8ZBQAwAPl9xMKxAAAwJicljwxBmBMFImBscnLGcfGAAAAjMC85EXJ1CgAgDualBxGfd0NAABgbPZKZsYAjIUiMTAmOyXnxgAAAIzMPBSKAYDbmYQCMQAAwEXJrjEAY/HICIAR+UvJp8YAAACMTD5Fvh+1GPRT1CU4AMBN+X3Cq8XnlnEAAAAjl92S3KX+1SiAMXCRGBiL45IDYwAAAHChGAD4h0m4QAwAAPAulyXbi0+AQXORGBiDtuTfjAEAAOAXLhQDAPl9gAvEAAAA7/d4ke+MAhg6F4mBocsl+Hm4qAEAAPA+83ChGADGYhIuEAMAANzFbjjGAAycIjEwdMclB8YAAADwUfNQKAaAIcpjC5OSZ6FADAAAcFezkj1jAIZMkRgYsrbkzBgAAADu5LLkq5KXiz8DAP2UBeI8svBs8WcAAADu50nJqTEAQ6VIDAxVLsZfhwU5AADAfSkUA0A/NXF9gdh+FAAA4OHmJdvGAAzVIyMABuqbkh1jAAAAuLfHUV96+bLks5IfQqEYALqsKTkumS7+P/yxkQAAACxF/pJmHuycGQUwRC4SA0O0X/LKGAAAAJZuWvJ1WJgDQJe0Ua8P7xsFAADAyuSRhe1wbAEYIEViYGjyt8Behyf7AAAAVmlW8lXJqVEAwMZMSr6IWiQGAABg9V6WPDcGYGgUiYGhyUvELm8AAACsx7zkRdRCsUscALB6eUAh95+HJY1xAAAArF1eJZ4bAzAkisTAkLQlZ8YAAACwdlkinka9Ujw3DgBYuibqBeJn4TU2AACATZqV7BkDMCSKxMBQ5PL8PFzhAAAA2LRpyddRF+oAwMO0JV9ELREDAADQDVkknhkDMBSKxMBQHJccGAMAAEBnXES9UHwa9WIxAHB7k6jXh3eMAgAAoHPmJdvGAAyFIjEwBG3JmTEAAAB0UpaIp1FLxXPjAID3auK6QLxlHAAAAJ32NOreE6D3FImBvsuF+nnUJTsAAADdNovrK8UAQNWWfBG1RAwAAEA/5AGF7fAaGzAAj4wA6Lk/lOwbAwAAQC80JZ9HLUr9r6gXii3aARijPJDwZck3JQclO0YCAADQK49L/h71eAJAr7lIDPRZLtfPjQEAAKDX8jrx1+FKMQDjkDvNZ1GPI2wZBwAAQK/lkYTdqAcTAHpLkRjosywRu9QBAAAwDPOoheJpWLwDMCxZGM7icBaI7TMBAACGZVry1BiAPlMkBvrqqOTQGAAAAAZpFtelYgDoq7bki3B9GAAAYOi2w3EEoMcUiYE+aqJeI7Z8BwAAGLZ8GvC05KuSC+MAoAdyZzmJen24MQ4AAIBRmJXsGQPQV4rEQB+dRb3mAQAAwHjMoxaKT8N1DwC6J68OX10fBgAAYHyySDwzBqCPFImBvslF/CtjAAAAGLVZyddRS8WXxgHAhuxELQ9PwutpAAAAYzcLV4mBnlIkBvokl/Gvw1IeAACAa9OSb6OWigFg1Zq4vj68YxwAAADc8DTqvhKgVxSJgT45LjkwBgAAAN4hLxNnmVipGIBly8MGWR7+/eITAAAA3mVesm0MQN8oEgN90ZacGQMAAAC3MI9aJv665MI4ALinm+Vhr6QBAABwG89LXhoD0CeKxEBfnIenAgEAALi7eSgVA3B7bckXoTwMAADA/eTLaduLT4BeUCQG+uCo5NAYAAAAeKB5KBUD8Gt5wOCqPNwYBwAAAA/0ImrXBaAXFImBrmuiXiN2/QMAAIBlyosgWSr+dvEJwLgoDwMAALAqrhIDvaJIDHTdq6jLfAAA+P/s3a93HPd6BvCvJWLWNSu7s6wsNivLmpVd+S/w5C+QYZlTVGgaJjOX2UY9QdqwMCusRTuGQXcDw/rOnVUl6/qHdnd+fGfm8znnObOOI/IQ6WhfPwvQldtHxevkF/wAU+V4GAAAgL68jvygBmAMHBIDOVtFLtUAAABAz24fFVfqABi1+mj4r6n5XWOhDgAAAHpUrxJXagBy55AYyNkm+eU+AAAAw7pKzVHxu91rAPK2SM3RcH08fLb7MwAAAAzhdbJKDIyAQ2IgVz9GXqoBAACAjGzTp2vFW5UAZKFInx4PAwAAQC6eJAMFQOYcEgM5KlKzRgwAAAA5W6ebo2JvBgD063Fqjob/unsNAAAAOVpHnqoByJlDYiBHl6lZEAEAAICxuF4r/iU1bw5UKgFo1SLdrA7Xz0IlAAAAjER9SLxWA5Arh8RAblapOSQGAACAMasXitepOSx+pw6Ag9RLw6t0czwMAAAAY7ROVomBjDkkBnKzSdZEAAAAmJ51ulkrXqsD4LOsDgMAADBVVomBbDkkBnLyY+SlGgAAAJiBdXJYDFBbpZvj4cfqAAAAYKLqTzB7ogYgRw6JgVwUkQ+pWR0BAACAuVknh8XAPNTHwqvI95EzdQAAADAjP0ReqwHIjUNiIBdvkzcOAAAA4No6NSsl18fFW5UAI3X7cLh+GhIAAABgrqrIUg1AbhwSAzlYRS7VAAAAAF9UpZvV4qtdAHLkcBgAAAC+zCoxkB2HxEAOPqTmDQYAAADgfuqF4tuLxVfJajEwjFW6ORyuf8fncBgAAAC+rEpWiYHMOCQGhvYi8koNAAAAcLQq3RwX18+1SoCW1UfCq3RzNLxSCQAAAOzNKjGQFYfEwJDqNx42yUoJAAAAdOVql9+S42Jgf6vUHAx/t3tdqAQAAACOVn+y2DL5hDEgEw6JgSHVS8Qv1AAAAAC9uj4u/piaw+L6tTctgMfp5mjY2jAAAAB06z8iP6oByIFDYmAo9ZsRH9QAAAAAWah2+SU1h8XV7glMU5FuDoe/3z19ahgAAAD0xyoxkA2HxMBQLpNVEwAAAMjd3fXiahdgPCwNAwAAQJ6sEgNZcEgMDOEs8lYNAAAAMFrr1BwU1wfGFowhD/Wi8PWh8F/SzQExAAAAkCerxEAWHBIDQ9ik5uMTAQAAgGmpj4nrNz5+STfrxdf/DWjH9cFwndsHwwvVAAAAwOhYJQYG55AY6Fv9w89LNQAAAMDsrFNzUPxbujkyvg7wjxwMAwAAwPRZJQYG55AY6FP9JscmebMDAAAA+NT1anH9/CM1R8fp1hOmbJVujoa/271eqQUAAABmwyoxMCiHxECfLiKlGgAAAIA93T00vv5zlSwak7/iTq6Pha0LAwAAADWrxMCgHBIDfSlSs0YMAAAA0LbrI+OUbo6Nq3RzZLxWER0q7uQvd/4MAAAA8C1WiYHBOCQG+nKZfCQjAAAAMKzbB8dV5OPu9fXCcW2tJm5Z7Z5FujkK/n73tCgMAAAAtMUqMTAYh8RAH1apOSQGAAAAGJPbB8bXS8cpfXqQfPf/I3+rz7z+p9QcBteKZEkYAAAA6N/ryA9qAPrmkBjowyZ58wUAAACYj7uHxVW6WT++tv7M161Vd29314CL9Onvn7679feLdHMkDAAAAJCzepW4UgPQJ4fEQNfKyIUaAAAAAA5yd/347t/99o2vr1Jebz4V6ev/4Pz7A74GAAAAYCpeJ6vEQM8cEgNdqtdeNunTdRgAAAAAAAAAAODzrBIDvTpRAdChF8kRMQAAAAAAAAAA3NdLFQB9skgMdKWIfEgOiQEAAAAAAAAAYB9WiYHenKoA6MiryL+qAQAAAAAAAAAA9lIP971XA9AHi8RAF4rIRg0AAAAAAAAAAHAQq8RALywSA114m5pjYgAAAAAAAAAAYH9WiYFeWCQG2raKXKoBAAAAAAAAAACOYpUY6JxFYqBtF8kaMQAAAAAAAAAAHOuPyFoNQJcsEgNtKlNzSAwAAAAAAAAAABxnm5pV4q0qgK5YJAba9DayUAMAAAAAAAAAABztYeTPZJUY6JBFYqAtLyKv1AAAAAAAAAAAAK2xSgx0yiIx0IZ6hbheI36oCgAAAAAAAAAAaI1VYqBTJyoAWlCvES/UAAAAAAAAAAAArTtPbnOAjlgkBo5V/5DyJlkjBgAAAAAAAACALlglBjrzQAXAkV6lZpEYAAAAAAAAAADoxjay3D0BWmORGDhGEfkvNQAAAAAAAAAAQKesEgOdsEgMHOMiUqoBAAAAAAAAAAA6Z5UYaJ1FYuBQReS1GgAAAAAAAAAAoBdWiYHWWSQGDnUZWakBAAAAAAAAAAB6U68RP1ID0JYTFQAHWCVHxAAAAAAAAAAA0LdFpFQD0BaLxMAhrBEDAAAAAAAAAMAwqshSDUAbLBID+1olR8QAAAAAAAAAADCUIlklBlpikRjYlzViAAAAAAAAAAAYVpWsEgMtOFUBsIcy8kINAAAAAAAAAAAwqEXkY+RKFcAxLBID+9ik5qMRAAAAAAAAAACAYVXJKjFwpBMVAPdUJkfEAAAAAAAAAACQiyKyUgNwDIvEwH1ZIwYAAAAAAAAAgLysI0/VABzKIjFwH2VyRAwAAAAAAAAAALlZJavEwBEsEgP3YY0YAAAAAAAAAADytE5WiYEDWSQGvqVMjogBAAAAAAAAACBXq2SVGDjQqQqAr1hE/jvyUBUAAAAAAAAAAJC19yoA9mWRGPiaF6k5JgYAAAAAAAAAAPJVJp86DhzAIjHwJfUB8ZtkjRgAAAAAAAAAAMagvvexSgzsxSIx8CXWiAEAAAAAAAAAYDzKZJUY2JNFYuBzrBEDAAAAAAAAAMA4/awC4L4sEgOfY40YAAAAAAAAAADGp0zufoA9WCQG7rJGDAAAAAAAAAAA41Tf/PwZWasCuA+LxMBd1ogBAAAAAAAAAGC8zpP7H+CeLBIDt1kjBgAAAAAAAACAcatvf36P/KoK4FssEgO3WSMGAAAAAAAAAIDxO1cBcB8WiYFr1ogBAAAAAAAAAGAa6lugj5ErVQBfY5EYuGaNGAAAAAAAAAAApuOlCoBveaACIDUHxJvkkBgAAAAAAAAAAKbkaWStBuBLLBIDNWvEAAAAAAAAAAAwPVaJga+ySAxYIwYAAAAAAAAAgOmySgx8kUViwBoxAAAAAAAAAABM17kKgC+xSAzzZo0YAAAAAAAAAACmbxmp1ADcZZEY5s0aMQAAAAAAAAAATN9LFQCfY5EY5ssaMQAAAAAAAAAAzMejyFYNwG2nKoDZ+vfIv6kBAAAAAAAAAABm4c/IWg3AbRaJYZ6sEQMAAAAAAAAAwLzUa8TLZJUYuOVEBTBLL5IjYgAAAAAAAAAAmJP6XqhUA3CbRWKY5w8E1ogBAAAAAAAAAGB+qtSsEgP8nUVimJ+z5IgYAAAAAAAAAADmqEhWiYFbLBLD/Gx2PxAAAAAAAAAAAADzcxV5ogagZpEY5qVMjogBAAAAAAAAAGDOHkdWagBqFolhXqwRAwAAAAAAAAAA68hTNQAOiWE+ysiFGgAAAAAAAAAAgLCMVGqAeTtVAczG28hCDQAAAAAAAAAAQGpuid6rAebNIjHMQ5msEQMAAAAAAAAAAJ+ySgwzZ5EY5sEaMQAAAAAAAAAAcNcfkbUaYL4sEsP0rSKXagAAAAAAAAAAAO7YpmaVeKsKmCeLxDB9F5FCDQAAAAAAAAAAwB0PI/8buVIFzJNFYpi2VbJGDAAAAAAAAAAAfFmVmlViYIYsEsO0WSMGAAAAAAAAAAC+ZhH5mKwSwyxZJIbpWiVrxAAAAAAAAAAAwLetI0/VAPPjkBim623kTA0AAAAAAAAAAMA91IfEazXAvJyqACapiPykBgAAAAAAAAAAYA/vVQDzYpEYpukiUqoBAAAAAAAAAADYwzJSqQHmwyIxTE8Rea0GAAAAAAAAAADgAD+rAObDIjFMjzViAAAAAAAAAADgENvUrBJvVQHzYJEYpmUR+SnyUBUAAAAAAAAAAMCe6ruj3yO/qgLm4UQFMCkvUnNMDAAAAAAAAAAAcIhzFcB8WCSG6agPiN8ka8QAAAAAAAAAAMDh6jukj5ErVcD0WSSG6bBGDAAAAAAAAAAAtOG5CmAeHqgAJmMTKdQAAAAAAAAAAAC04EmySgyTZ5EYpqFMjogBAAAAAAAAAID2nKsAps8iMUyDNWIAAAAAAAAAAKBty0ilBpgui8QwfmVyRAwAAAAAAAAAALSvVAFMm0ViGL/LyEoNAAAAAAAAAABAy7apWSXeqgKmySIxjNsqOSIGAAAAAAAAAAC6sYicqQGmyyIxjJs1YgAAAAAAAAAAoEtValaJgQlySAzjVUQ2agAAAAAAAAAAADr2NLJWA0zPiQpgtF6qAAAAAAAAAAAA6IFbJZgoi8QwTkWyRgwAAAAAAAAAAPRnGanUANNikRjG6VwFAAAAAAAAAABAj6wSwwRZJIbxWaRmjXihCgAAAAAAAAAAoCfb1KwSb1UB02GRGMbnRXJEDAAAAAAAAAAA9Ku+WSrVANNikRjGp14jLtQAAAAAAAAAAAD0rErNKjEwERaJYVzK5IgYAAAAAAAAAAAYRhE5UwNMh0ViGBdrxAAAAAAAAAAAwJDWkadqgGlwSAzjsYpcqgEAAAAAAAAAABjYk8iVGmD8TlUAo3GRrBEDAAAAAAAAAADDexh5rwYYP4vEMA6PIx/UAAAAAAAAAAAAZOJRZKsGGDeLxDAO/5maY2IAAAAAAAAAAIAc/BlZqwHGzSIx5K+IbNQAAAAAAAAAAABkpIos1QDjdqICyN65CgAAAAAAAAAAgMwUkVINMG4WiSFvi9SsES9UAQAAAAAAAAAAZGYdeaoGGC+LxJC3MjkiBgAAAAAAAAAA8rSKPFYDjNepCiBrb5JDYgAAAAAAAAAAIF8PI+/VAOP0QAWQrTJyoQYAAAAAAAAAACBzjyJbNcD4WCSGfL2KFGoAAAAAAAAAAAAy92dkrQYYH4vEkKdV5FINAAAAAAAAAADACFSRpRpgfE5UAFl6rgIAAAAAAAAAAGAkisiZGmB8LBJDnt9UN2oAAAAAAAAAAABGZB15qgYYF4vEkJ9zFQAAAAAAAAAAACOzSs2IIjAipyqArCwiryMPVQEAAAAAAAAAAIxMff/0Xg0wHhaJIS/l7pspAAAAAAAAAADA2Jwl908wKhaJIS9vfCMFAAAAAAAAAABGqv4k9t8jv6oCxuGBCiAbZeRCDQAAAAAAAAAAwIhVkaUaYBxOVADZeK4CAAAAAAAAAABg5IrISg0wDhaJIQ/1N85LNQAAAAAAAAAAABPwLvJMDZA/h8SQh4tIqQYAAAAAAAAAAGAilpFKDZC3UxXA4IrIazUAAAAAAAAAAAAT87MKIG8nKoDBlSoAAAAAAAAAAAAmplQB5M8iMQxrEXkTeagKAAAAAAAAAABgQuqbqI+RK1VAviwSw7DOUnNMDAAAAAAAAAAAMDXnKoC8PVABDGoTKdQAAAAAAAAAAABM1JNklRiyZZEYhrNKjogBAAAAAAAAAIBps0oMGbNIDMN5GzlTAwAAAAAAAAAAMHGPIls1QH5OVQCDKCI/qQEAAAAAAAAAAJiB3yO/qgHyY5EYhnERKdUAAAAAAAAAAADMQBVZqgHy45AY+reIbHZPAAAAAAAAAACAOXgWeacGyMuJCqB3ZXJEDAAAAAAAAAAAzMtzFUB+LBJD/+o14kINAAAAAAAAAADAzCwjlRogHxaJoV9nyRExAAAAAAAAAAAwT+cqgLxYJIZ+XUZWagAAAAAAAAAAAGZoG3mkBsiHQ2LoTxHZqAEAAAAAAAAAAJixHyKv1QB5OFEB9OalCgAAAAAAAAAAgJl7rgLIh0Vi6MciNWvEC1UAAAAAAAAAAAAz9yRypQYYnkVi6EeZHBEDAAAAAAAAAADUzlUAebBIDP2o14gLNQAAAAAAAAAAAKRtZLl7AgOySAzdO0uOiAEAAAAAAAAAAK7Vn+5+pgYYnkVi6N5lZKUGAAAAAAAAAACA/3cVeaIGGJZDYuhWEdmoAQAAAAAAAAAA4B88jazVAMM5UQF06lwFAAAAAAAAAAAAn/VcBTAsi8TQnUVq1ogXqgAAAAAAAAAAAPisR5GtGmAYFomhO2fJETEAAAAAAAAAAMDXlCqA4Vgkhu7Ua8SFGgAAAAAAAAAAAL6oiizVAMOwSAzdWCVHxAAAAAAAAAAAAN9SpObeChiAQ2LoxrkKAAAAAAAAAAAA7sW9FQzkgQqgdUVkowYAAAAAAAAAAIB7W0YqNUC/LBJD+0oVAAAAAAAAAAAA7KVUAfTPIjG072+RhRoAAAAAAAAAAADurUrNKjHQI4vE0K4yOSIGAAAAAAAAAADYVxE5UwP0yyExtOu5CgAAAAAAAAAAAA7i/gp69kAF0JrHkQ9qAAAAAAAAAAAAONgyUqkB+mGRGNpzrgIAAAAAAAAAAICjlCqA/lgkhnYsIpvdEwAAAAAAAAAAgMNUqVklBnpgkRjaUSZHxAAAAAAAAAAAAMcqImdqgH5YJIZ2bHbfwAAAAAAAAAAAADjOu8gzNUD3HBLD8VaRSzUAAAAAAAAAAAC0Zhmp1ADdOlUBHO1V5F/UAAAAAAAAAAAA0Jo/Ims1QLcsEsNxishGDQAAAAAAAAAAAK2qUrNKDHToRAVwlFIFAAAAAAAAAAAArSsiZ2qAblkkhuP8LbJQAwAAAAAAAAAAQOveRZ6pAbrjkBgOV0Yu1AAAAAAAAAAAANCZZaRSA3TjRAVwsOcqAAAAAAAAAAAA6FSpAuiORWI4TBHZqAEAAAAAAAAAAKBTVWpWiYEOnKoADvIq8lgNAAAAAAAAAAAAnVpEfov8jyqgfRaJ4bBvTJvdEwAAAAAAAAAAgG69izxTA7TPITHsr4xcqAEAAAAAAAAAAKA3y0ilBmjXqQpgb/UR8T+rAQAAAAAAAAAAoDd/RNZqgHb9nwDs3TuW3MiZBlAUOcZ4RK+AwRUQWgFzVoDkCpCzgtrCzA7GlNfyJK8pc6yu9uQp25RF0JTF5ApmgC6KTRbrkQ884nHvOXHoxvmCQGWd+uJPE4nhNM2w/i4GAAAAAAAAAACARfXV7VRiYELPRAAnuRYBAAAAAAAAAADA4sKwtmKAaZlIDMerh/VRDAAAAAAAAAAAAKt4N6y3YoDpmEgMx9uJAAAAAAAAAAAAYDXjROIgBpjOcxHA0f5c3U4lBgAAAAAAAAAAYB2fhnUjBpjGlQjgKJth/SwGAAAAAAAAAACAVfXDeiUGmMYzEcBROhEAAAAAAAAAAACsLgxrKwaYhonE8LR6WB/FAAAAAAAAAAAAEIV3w3orBricicTwtJ0IAAAAAAAAAAAAojFOJK7FAJd7LgJ40p/90AEAAAAAAAAAAIjKP4f1NzHAZa5EAI/aDOtnMQAAAAAAAAAAAESlH9YrMcBlnokAHtWJAAAAAAAAAAAAIDqhuh0UCVzguQjg0R80fxIDAAAAAAAAAABAtP4qAjificTwsJ0IAAAAAAAAAAAAorUbVi0GOJ+JxPCwH/2QAQAAAAAAAAAAiNo/h/U3McB5rkQA99oO6ycxAAAAAAAAAAAARG0/rD+IAc7zTARwr04EAAAAAAAAAAAA0Ws+L+AMz0UA3wnD+qMYAAAAAAAAAAAAkvDvw/qrGOB0JhLD93YiAAAAAAAAAAAASMZ2WLUY4HQmEsP3fvRDBQAAAAAAAAAAIBnjROJ/DGsvCjiNicTwrfFmShADAAAAAAAAAABAUjoRwOmuRADf+Km6LRMDAAAAAAAAAACQllfD6sUAx3suAvgiDOuPYgAAAAAAAAAAAEjW/4oAjvdMBPCFScQAAAAAAAAAAADp2okATnMlAvjifXU7lRgAAAAAAAAAAIA0vR3WOzHAcUwkhlubSokYAAAAAAAAAAAgdZ0I4HgmEsOtHytj7QEAAAAAAAAAAHLwali9GOBpz0UAVT2sv4gBAAAAAAAAAAAgCx+G9TcxwNOeiQBMIgYAAAAAAAAAAMjItQjgOFcigOr9sIIYAAAAAAAAAAAAsvEfw7oRAzzORGJKt6mUiAEAAAAAAAAAAHLTiQCeZiIxpftxWDsxAAAAAAAAAAAAZOeHYR3EAA97LgIKVg/rL2IAAAAAAAAAAADI0j+GtRcDPOyZCCjYVgQAAAAAAAAAAADZuhYBPO5KBBTs78NqxAAAAAAAAAAAAJCtV8PqxQD3M5GYUjWVEjEAAAAAAAAAAEDuTCWGR5hITKl+HNZODAAAAAAAAAAAAFk7DOsHMcD9FIkpUT2s95//BQAAAAAAAAAAIG9vh/VODPC9ZyKgQNtKiRgAAAAAAAAAAKAUnQjgfiYSU6Kfh7URAwAAAAAAAAAAQDFeDasXA3zLRGJKEyolYgAAAAAAAAAAgNJsRQDfUySmNNciAAAAAAAAAAAAKI7uGNzjSgQU5uOwajEAAAAAAAAAAAAU5w/D2osBfmciMSUZR9MrEQMAAAAAAAAAAJTJVGK4w0RiSvJTdVsmBgAAAAAAAAAAoDyHYb36/C9QKRJTjjCs92IAAAAAAAAAAAAo2n8O609igFvPREAhdiIAAAAAAAAAAAAoXicC+J2JxJRinEYcxAAAAAAAAAAAAFC8V8PqxQAmElOGTaVEDAAAAAAAAAAAwK2dCOCWIjElMIoeAAAAAAAAAACAf9Epg8+uREDm6mF9FAMAAAAAAAAAAABfeTusd2KgdCYSk7utCAAAAAAAAAAAALijFQGYSEz+/j6sRgwAAAAAAAAAAADc8cOwDmKgZCYSk7OmUiIGAAAAAAAAAADgfr7xnuIpEpOzTgQAAAAAAAAAAAA84FoElO5KBGTs47BqMQAAAAAAAAAAAPCAV8PqxUCpTCQmV7tKiRgAAAAAAAAAAIDHmUpM0RSJyVUrAgAAAAAAAAAAAJ6wFQEluxIBGQrDei8GAAAAAAAAAAAAjvB2WO/EQIlMJCZHOxEAAAAAAAAAAABwpFYElMpEYnI0TiMOYgAAAAAAAAAAAOBIPwzrIAZKYyIxudlUSsQAAAAAAAAAAACcZisCSqRITG46EQAAAAAAAAAAAHCiaxFQoisRkJF6WO8//wsAAAAAAAAAAACneDWsXgyUxERicjKOllciBgAAAAAAAAAA4BymElMcE4nJyc/D2ogBztJXblMBAAAAAAAAAPfbiIBC9NXtVGIohiIxuQjDei8GONt/D+u/xAAAAAAAAAAA3OP/REBB3g7rnRgoxTMRkAkj5eEyr0UAAAAAAAAAAABVKwJKokhMLrYigIvUIgAAAAAAAAAA7rERAYXZVbo0FESRmByMJeIgBgAAAAAAAAAAACZgsCXFUCQmB0bJAwAAAAAAAAAAMJVrEVCKKxGQuHGE/EcxwMUOw/pBDAAAAAAAAADAHZth/SwGCvRqWL0YyJ2JxKTOCHmYRi0CAAAAAAAAAOAeGxFQqJ0IKIEiMakzQh4AAAAAAAAAAICpdSKgBIrEpCwMqxEDAAAAAAAAAAAAEwuVidwUQJGYlJlGDNNSzAcAAAAAAAAAgN+ZSkz2FIlJ2VYEMKlaBAAAAAAAAADAHW9EQMHGjppODVlTJCblF3QQAwAAAAAAAAAAADMZS8QGXpI1RWJS1YoAAAAAAAAAAACAmemqkTVFYlI03vLYiQEm14gAAAAAAAAAALijFgGFGycSBzGQK0ViUn0xAz74AwAAAAAAAADzM5gMdNbImCIxKboWAQAAAAAAAAAAAAvRWSNbisSkJlRuOQEAAAAAAAAAALCcUOmtkSlFYlLjZgfM540IAAAAAAAAAICv1CKALzoRkCNFYlKzFQEAAAAAAAAAACzCBFb43U4E5EiRmJSMJeIgBgAAAAAAAAAAABY2Tug2CJPsKBKTklYEAAAAAAAAAAAArKQTAbm5EgGJGG9zfBQD+LkAAAAAAAAAACxmnL76kxjgGz8M6yAGcmEiMSl9KAEAAAAAAAAAAJbTiAC+o8tGVhSJSYWR8AAAAAAAAAAAAKztWgTkRJGYFIRhbcQAAAAAAAAAAADAysZJ3UEM5EKRmBTsRACL2YgAAAAAAAAAAPjshQjgXqYSkw1FYlLQiQAAAAAAAAAAABbXiADutRUBuVAkJoUPI0EMAAAAAAAAAAAARCJUvvmbTCgSEzsj4AEAAAAAAAAAAIhNJwJyoEhM7IyAh2VtRAAAAAAAAAAAfBZEAA/SbSMLisTEbDesWgwAAAAAAAAAALCKIAJ40Nht24mB1CkSE7NWBAAAAAAAAAAAAERKx43k/ZsIiNR4W8Pod+Drd0IjBgAAAAAAAAAycSMCyMLYcRt7LQdRkCpFYmK1EwGs4k2k+xo/cP3seAAAAAAAAADIxFUCewyOCY6yG9b/iIFUPRMBkepEAHylFwEAAAAAAAAALCqIAI6i60bSFImJUfN5AQAAAAAAAABAbm5EAFkZu25BDKRKkZgYuaEB66lFAAAAAAAAAAAAJ7kWAalSJCZGWxHAamKeBn7jeAAAAAAAAABgMUEEcDSdN5KlSEyML1QfQgAAAAAAAAAAyNUhkX0GRwUnPS8bMZAiRWJi04oAAAAAAAAAAICM/SoCyFInAlKkSExM6sqId4jlWYzRwdEAAAAAAAAAABAp3TeSpEhMbC/SWgywuibSfbmRCQAAAAAAAADLeSkCOIlBmiRJkZiYtCIAAAAAAAAAACBz+0T2GRwVnKwTAalRJCamDx5uYwAAAAAAAAAAkLuDCCBbYweuFgMpUSQmphcoEIdYP8z0jgYAAAAAAAAAgMjpwpEURWJiYaQ7xKOJdF+9owEAAAAAAACAxTQigLNci4CUKBITy4cOHzwAAAAAAAAAACjBTSL7rB0VnGXswgUxkApFYmJgGjEAAAAAAAAAAAC52IqAVCgS46UJ3PUi0n3tHQ0AAAAAAAAAAAm4FgGpUCRmbWOJOIgBotJEuq+DowEAAAAAAAAgcan87btxVHCR4DkiFYrErK0VAQAAAAAAAAAAhUjl23hrRwUX60RAChSJWdtWBMAJTCUGAAAAAAAAACAFOxGQAkVi1n5Rur0E8Yn5udw7HgAAAAAAAAAAEjB2cAzaJHqKxKypFQFEqREBAAAAAAAAAMyiT2SfugMwDR05oqdIzFrctgAAAAAAAAAAoDQfEtmnbxmHaWw9T8ROkZi17EQAnKEXAQAAAAAAAAAAiTBwk+gpErOWTgQQtRDpvj44GgAAAAAAAAAAEtKKgJgpErOGMKxGDBD9cwoAAAAAAAAATGufyD5fOyqYzDiRuBYDsVIkZg07EQAAAAAAAAAAUKBDIvtUeoRp7URArBSJWUMnAuBMexEAAAAAAAAAAJAYnTmipUjM0pphBTFA9GJ9Tg+OBgAAAAAAAICE+bs3lElvjmgpErO0axFAEnxwAQAAAAAAAIDppfJNvBtHBZPbiYAYKRKztK0IAAAAAAAAAAAAKEwnAmKkSMySxhJxLQbgAjciAAAAAAAAAAAgQWFYjRiIjSIxS2pFAMl4KQIAAAAAAAAAmFQvAiieqcRER5GYpYyTiHdigGQEEQAAAAAAAADApPpE9rlxVDCbrQiIjSIxXoCAX6wAAAAAAAAAAGB+odKlIzKKxCylFQEwkV4EAAAAAAAAAAAkSpeOqCgSs4S6cosCUhNEAAAAAAAAAACT2osAqHTpiIwiMUvYiQCSE0QAAAAAAAAAAJP6lMg+N44KZjUO5tyJgVgoErOETgTAhNzQBAAAAAAAAAAgZa0IiIUiMXMLw2rEAEzokwgAAAAAAAAAAEjYtrqdTAyrUyRmbjsRQLKCCAAAAAAAAABgMjciAL6yFQExUCRmbp0IIFlBBAAAAAAAAABQnDcigEXo1hEFRWLm1FSKiMD0bkQAAAAAAAAAAEDiNpV+HRFQJGZObkwAAAAAAAAAAMCtXgTAHVsRsDZFYrzkgIcEEQAAAAAAAADAZPpE9lk7KliMYZ2sTpGYuYwl4iAGSFqsz/DB0QAAAAAAAADAbBoRwKLPWxADa1IkZi6tCICZ7EUAAAAAAAAAAEAmdiJgTYrEzGUrAgAAAAAAAAAA+I2hWcBDOhGwJkVi5jCWiGsxQPJeiwAAAAAAAAAAJnFIZJ86P7C8MKxGDKxFkZg5uCEBeYj5lwM3NQEAAAAAAABgesqMsA6dO1ajSMzUxuLhVgzAzA4iAAAAAAAAAAAgEzp3rEaRGC80AAAAAAAAAACY1y8iAB4RKt07VqJIzNRaEUA2fF0JAAAAAAAAAJSlFgGsRveOVSgSM/UHCbciwC8HS3BTEwAAAAAAAACmZ+gYrEf3jlUoEjOlnQgAAAAAAAAAAOA7BxEATzDIk1UoEjOlTgQAAAAAAAAAAPCdvQiAI7QiYGmKxEwlVL7aAHIU63PtpiYAAAAAAAAATO+FCGBVu+p2MjEsRpGYqRipDnmK9YOJm5oAAAAAAAAAMD2DBGF9ungsSpGYqXQiAAAAAAAAAACAexmYBRyrFQFLUiRmCk3lNhIAAAAAAAAAADzkIALgSONE4loMLEWRmCmYRgz5ivWSQO9oAAAAAAAAAGByQQQQha0IWIoiMV5awGNivd3UOxoAAAAAAAAAmFwQAUTBcE8Wo0jMpRofIAAAAAAAAAAA4EE3IgBOtKn08liIIjGXcvMBAAAAAAAAAAAAprUVAUtQJMbLCnjM64j3tnc8AAAAAAAAADCZIAKIiiGfLEKRmEtsfYCA7NUR7+3geAAAAAAAAABIQCp/3w6OCqLSeC5ZgiIxl2hFAAAAAAAAAAAAj/pVBMCZtiJgborEeEkBqTKRGAAAAAAAAACAnF2LgLkpEnOusURciwGyt4l4b25sAgAAAAAAAMB0ggggyueyEQNzUiTmXK0IAAAAAAAAAADgSX0i+wyOCqLUiYA5KRJzrq0IAAAAAAAAAADgSb0IgAvo6jErRWLOsRtWLQbAL1oAAAAAAAAAADCrMKxGDMxFkZhztCKAomwi3VfvaAAAAAAAAABgMi9FANHqRMBcFIk51TiJ2Kh0AAAAAAAAAAA4zk0i+wyOCqKls8dsFInxQgIAAAAAAAAAAIB4hSrebxUncYrEnKoVARCJvQgAAAAAAAAAAChEJwLmoEjMKerKRGIo0SbSfR0cDQAAAAAAAACRS+lv243jgqjp7jELRWK8iAAAAAAAAAAAYB4pfdtu7bgg+mdUh4/JKRJzilYEAAAAAAAAAAAAsAodPianSMyxQuU2AxCfGxEAAAAAAAAAAFAIHT4mp0iMFxDwlDciAAAAAAAAAICz9Inss3FUkIS60uVjYorEHKsTAQAAAAAAAAAAnORDIvusHRUkoxUBU1Ik5hihcusIiFMvAgAAAAAAAAAACjJOJFb+ZzKKxBz74gGI0QcRAAAAAAAAAABQkLFErNPHZBSJOUYnAijaRgQAAAAAAAAAcJZ9Ivv0beWQllYETEWRmKcEHxQAAAAAAAAAAOAsh0T2WTsqSMrWc8tUFIk55oUDEKu9CAAAAAAAAAAAKJBuH5NQJOYpnQiAKt4bTAdHAwAAAAAAAABAgVoRMAVFYh4ThtWIAfAuAAAAAAAAAICz3CSyz9eOCpIzTiSuxcClFIl5zLUIAAAAAAAAAAAge8qIkKatCLiUIjFeMkDKbkQAAAAAAAAAAEChWhFwKUViHtIMK4gB+MzNQwAAAAAAAAA4TS8CYGbjsFC9Hi6iSMxDOhEAX2lEAAAAAAAAAAAn6RPa68ZxQbJ2IuASisQ8ZCsCIBEHEQAAAAAAAAAAUChDQ7mIIjH3GSePBjEAidiLAAAAAAAAAACAQun7cRFFYu7jhgJw1wsRAAAAAAAAAMBJDMYClrIVAedSJMZLBThGIwIAAAAAAAAAOMmnRPa5cVSQPMNDOZsiMXcZcw6kxg1OAAAAAAAAAABKpvfH2RSJucvNBCA1n0QAAAAAAAAAAEDhtiLgHIrEeJkAx6hFAAAAAAAAAAAnuREBsCBDRDmLIjFfM94ceOz9AAAAAAAAAADkZyMCyIL+H2dRJOZrbiQAKboRAQAAAAAAAAAAVFsRcCpFYrxEAAAAAAAAAABgegcRAAszTJSTKRLzL8aaA0+pRQAAAAAAAAAAR9uLAFiYHiAnUyTmX9xEAI75oBEjNzgBAAAAAAAA4HxvRABZ2YqAUygS4+UBpM4NTgAAAAAAAAAAuHUtAk6hSMxoLBEHMQAAAAAAAAAAwCQMxQLWEqp4v3mcCCkSM2pFABz5IQMAAAAAAAAAeNohob3Wjguy04mAYykSM9qKADhCiHhvveMBAAAAAAAAgLOYXAr50QnkaIrEjC8Mt4qA1PUiAAAAAAAAAACA34TKJQGOpEhMKwIAAAAAAAAAAJjULyIAVtaJgGMoEmOEOXCslyIAAAAAAAAAgKz4JnPIl24gR1Ek9qLwYQA4Voh4b25yAgAAAAAAAMDpGhFAtoJnnGMoEpetFQEAAAAAAAAAAEzuIAIgAp0IeIoicdmMLgcAAAAAAAAAgOntRQBEQEeQJykSl/2CqMUAnCBEvDc3OQEAAAAAAADgdPpDkLcwrEYMPEaRuFytCIAzPljEyk1OAAAAAAAAADidgiHkrxMBj1EkLpeR5QAAAAAAAAAAMI9eBEAkdAV5lCJxuS8GX0sAAAAAAAAAAADz6EUARCJUpo/zCEXiMrUiAC74YOEXMAAAAAAAAADIwwsRQBE6EfAQReIyGVUOnCtEuq/e0QAAAAAAAADAyUwphTLoDPIgReIyXwi1GAAAAAAAAAAAYBY3IgAiEyoXB3iAInF5WhEAAAAAAAAAAABAUToRcB9F4vIYUQ5cIkS8t73jAQAAAAAAAICTBBFAMXQHuZcicXkvgloMQKa/QBwcDwAAAAAAAAARSOnv18FxQTHG570RA3cpEpelFQEAAAAAAAAAAMzqVxEAkepEwF2KxGUxmhzImYnEAAAAAAAAAADwMB1CvqNIXNYLoBYDcKGXEe/NjU4AAAAAAAAAOF4QART53Ddi4GuKxOVoRQD4JQIAAAAAAAAAZtcnss/gqKBInQj4miJxOTYiAAAAAAAAAACA2fUiACK2FQFfUyQuwziKPIgB8IsYAAAAAAAAAAAULVS3nUL4jSJxGYwiB6YS84eI3vEAAAAAAAAAwNGCCKBYOoV8oUhcBqPIganUIgAAAAAAAACAR+0T2WdwVFAsnUK+UCTOX+OHPgAAAAAAAAAALOYgAiByoYr7m8lZkCJx/owgB0qxFwEAAAAAAAAAABxFt5DfKBLnzwhyYGqx3kZyoxMAAAAAAACAtaX0t+uXjguKplvIbxSJ8zaW/YIYgInVIgAAAAAAAACAe6X0bbrBcUHRxndAIwYUifNm9DgAAAAAAAAAAABwHx1DFIkzZ/Q4UJobEQAAAAAAAAAAwFF0DFEkztg4cjyIAZjp/QIAAAAAAAAAfK9PaK/+/g8E7wIUifNl5Dgwl1oEAAAAAAAAAHCvDwnt1d//gZGuYeEUifNl5DhQooMIAAAAAAAAAADgaLqGhVMkztM4ajyIASjQryIAAAAAAAAAAICjheq2c0ihFInzZNQ4MKfXIgAAAAAAAACAe+0T2afSIPA1ncOCKRLnyahxYE61CAAAAAAAAADgXodE9ulv/8DXdA4Lpkicn/G2UBADUKi9CAAAAAAAAAAA4CShMqm8WIrE+XEzACjZQQQAAAAAAAAAAHCyTgRlUiTOTysCYGZuHwEAAAAAAADA/W4S2ae//QN3GWJaKEXivAQ/5IEF1CIAAAAAAAAAgKT52z9wV6j0D4ukSJwXNwKA0t2IAAAAAAAAAAAAztKJoDyKxB5iAAAAAAAAAADgcr0IgMQZZlogReJ8hMpYcWA5GxEAAAAAAAAAwDf6hPb62nEB9wiVHmJxFInz4SYAwK2DCAAAAAAAAADgUbUIgAdsRFAWReJ8dCIA+M1eBAAAAAAAAAAAcBZdxMIoEuchVMaJAwAAAAAAAADAmgy+AnIwdhGDGMqhSJyHrQiAhW1EAAAAAAAAAADf+JTQXjeOC3iETmJBFInz0IoA4IteBAAAAAAAAAAAcLZOBOVQJE5fXbkhBPC1DyIAAAAAAAAAAICzNcMKYiiDInH6jBAHAAAAAAAAAID13YgAyIhuYiEUidPXigBYwRsRAAAAAAAAAECSNiIAjtCJoAyKxGmrK61/gLtuRAAAAAAAAAAAABdphhXEkD9F4rQpEQMAAAAAAAAAQBwOIgAyo6NYAEXitLUiAAAAAAAAAACAKOxFAGSmE0H+FInTVVfa/sB6NhHvzQ1PAAAAAAAAAHjYRgTAkZphBTHkTZE4XUrEAPdzwxMAAAAAAAAAAKahq5g5ReJ0vREBAAAAAAAAAABEoRcBkKlOBHlTJE6Xlj8AAAAAAAAAAMShFwGQqWZYtRjypUicpq0HE4jAxi9oAAAAAAAAAJAc34QOnMrg04wpEqepFQHAo3oRAAAAAAAAAADAJHQWM6ZInCbtfgAAAAAAAAAAiMcvIgAyNnYWazHkSZHYAwlwLu8iAAAAAAAAAEiPv/cD5zAANVOKxOkxIhyIRRPx3vaOBwAAAAAAAADu1YgAOIPuYqYUidOzEQHAkz6JAAAAAAAAAIAFHUQAZG6cSGyieYYUidMy3gYKYgAAAAAAAAAAgKj45lygBFsR5EeROC2dCICIvIh4b256AgAAAAAAAMD3TBMFLtGKID+KxGnR5gdi0kS8Nzc9AQAAAAAAAOB7jQiAC4wdRhcSMqNInNYP8SAGAAAAAAAAAACITi8CoBAbEeRFkTgdnQgAAAAAAAAAACBKvQiAQrQiyIsicTo2IgAiE/PXFPgFDQAAAAAAAAC+V4sAuNBWBHlRJE5DGFYjBiAyMb+XescDAAAAAAAAAN/RQQIuNV5IUCbOiCJxGjx0AAAAAAAAAAAQp70IgMK0IsiHInEaOhEAAAAAAAAAAECUDiIACmM4akYUieMXKl8pAMSrjnhvbnwCAAAAAAAAwLdeiACYwNgZUibOhCJx/DxsQMxivujgxicAAAAAAAAAS0jp79MGGgJTaUWQB0Xi+L0RAQAAAAAAAAAAROtXEQAFMiQ1E4rEcTP+GwAAAAAAAAAAAIjN2G805TwDisRxUyIGUvhAEKtfHA8AAAAAAAAAfCOIAJhQJ4L0KRLHrRUBEDm3igAAAAAAAAAoXZ/QXoPjAiZkWGoGFInjVXvIAAAAAAAAAAAger0IgEKFyiDC5CkSx2sjAgC/qAEAAAAAAAAAQMQ6EaRNkTherQiABLyIeG+94wEAAAAAAACAL4IIgBlsRZA2RWIPF8AlfDUBAAAAAAAAAKXbJ7LP4KiAmd4tOkQJUySO01girsUAAAAAAAAAAADRO4gAKNxGBOlSJI5TKwKAi+1FAAAAAAAAAAAAs+tEkC5F4jhtRQAkIkS8Nzc+AQAAAAAAAOB3QQTATBrvmHQpEsf5QNViAPySAQAAAAAAAADRu0lor8FxATMyQDVRisTxMeIbAAAAAAAAAAAASInuY6IUieOjlQ8wnRsRAAAAAAAAAADA7JrK5PMkKRJ7kAAu5b0FAAAAAAAAQKn6hPb60nEBMzNINUGKxB4igEsFEQAAAAAAAABQqA8J7TU4LmBmb0SQHkXiuLQiAJjUQQQAAAAAAAAAALCIcZhqLYa0KBLHIwyrEQPApH4VAQAAAAAAAAAALGYrgrQoEnt4AC4VRAAAAAAAAABAofYJ7dWQQ2AJrQjSokjs4QG4VBABAAAAAAAAAIU6JLTX2nEBC9h636RFkTieH9IbMQBMrhcBAAAAAAAAAAAsaiuCdCgSe2gActaLAAAAAAAAAAAAFvVGBOlQJI5DKwIgYS9FAAAAAAAAAEChbhLZZ+OogAUZrpoQReL11R4aIHFBBAAAAAAAAAAQtVoEwMLvHL3IRCgSr28jAoDZ3IgAAAAAAAAAAAAW14ogDYrEHhYAAAAAAAAAAOB0BxEAPMhE4kQoEntYAC4VRAAAAAAAAABAgfYJ7bVxXMDC6mFtxBA/ReJ1bT8/LAApC5Hvzw1QAAAAAAAAAEqnowSsoRVB/BSJ1/VGBACz24sAAAAAAAAAAAAWtxVB/BSJPSQAAAAAAAAAAMDpDLYCeFwYViOGuCkSr6f5/JAA5PJOAwAAAAAAAICSfEpor68dF7CSTgRxUyT2cABMoY54b73jAQAAAAAAAKBwtQiAlWxFEDdF4vVsRACwiA8iAAAAAAAAAACAVYTPi0gpEq/3YDRiAAAAAAAAAACAZN2IAOAophJHTJHYQwEwBZcjAAAAAAAAACBeGxEAK+pEEC9F4nW0IgAyU0e8t73jAQAAAAAAAACA1YxDCoMY4qRIvLyxbLcRA8BiDiIAAAAAAAAAYAb+Hg1wvK0I4qRI7GEAAAAAAAAAAABO5xtyAY73RgRxUiReXisCIEOvI96bG6AAAAAAAAAAlGwjAiAC4xDWWgzxUSRe52EAyE3MP+TdAAUAAAAAAAAAgPXpT0ZIkdhDAAAAAAAAAAAAnKYXAcDJWhHER5HYQwAAAAAAAAAAAJymFwHAyQxjjZAisYcAYAqNX+AAAAAAAAAAIEobEQAR0aOMjCLxcsaSXS0GIFOxv996RwQAAAAAAAAAAKtrRRAXReLldCIAAAAAAAAAAIAs7EUAcBYTiSOjSOw/PwAAAAAAAAAAcJpPIgA4y/jN5/qUEVEkXkYzrCAGoIB3XazcBAUAAAAAAACgVG9EAHgv8RBF4mVsRAAUoI54b26CAgAAAAAAADClgwgAzmYicUQUiZfRiQAAAAAAAAAAALLhm3EBzhequL/9vCiKxP7DAwAAAAAA/8/enRi5jWRpAMbQAWEtENYCwQOkB+BYIBN3PVjKA8oDyAO0BbPFVnW3jjp44MiX+X0RjJhR15H4M4MMRv14BAAAKFcrAiBDBrRmQpF4fUkEgOe73Z1sDwAAAAAAAACVMgQRyNFRBHlQJF7fKAIAAAAAAAAAACjKJAKAh3TPD3amSLyuy8cCaM0DAAAAAAAAAEBZJhEAPEy/MgOKxOtKIgDwBg4AAAAAAAAAdtKKAMjYZxHsT5F4XaMIgIoMGa9tsj0AAAAAAAAAVKgXAZD5c1Qnhn0pEq/L2G0AAAAAAAAAACjLWQQAi0ki2Jci8bqH20cDAAAAAAAAAABAWWYRACxmFMG+FIkdboBauCMUAAAAAAAAgNoYhAjk7ui5al+KxOseboCapMzX545QAAAAAAAAAGrTiwAIQN9yR4rE670Ad2IAAAAAAAAAAIDifBEBwKIGEexHkXgdSQQAAAAAAAAAAAAA7zKReEeKxOv4LAKA7LgjFAAAAAAAAIDafBABEEDbKBPvRpF4nQPdiwGoVBIBAAAAAAAAAIWbAq1VjwmIYhTBPhSJl6cVDwAAAAAAAAAA5ZpEALC4JIJ9KBIvTyseIE+zCAAAAAAAAAAAIEtdY4r6LhSJl2ciMUCeziIAAAAAAAAAoDKdCIBAPotge4rEy1IiBmqXRAAAAAAAAABA4SINsupsFxCIDuYOFImXNYoAAAAAAAAAAACKNosAYBVd4waIzSkSL0sbHiBfZxEAAAAAAAAAAEDW9DA3pki8nP7p0YoBqNyHjNfmjlAAAAAAAAAAatKJAAjoswi2pUjs8AIsqRcBAAAAAAAAAAU7BVprZ7uAgHrPX9tSJF5OEgEAAAAAAAAAAADAQ5IItqNIvIyuMYUTIIKTCAAAAAAAAAAAIGujCLajSLyMowgA/tSKAAAAAAAAAICCzYHW2tkuIKhLJ1MPaSOKxMvQfgf4znR2AAAAAAAAAEr2NdBaO9sFBJZEsA1F4se1DixAGLMIAAAAAAAAAAAgewa8bkSR+HFHEQCE8VUEAAAAAAAAAACQPd3MjSgSP24QAcBPWhEAAAAAAAAAUKhzoLV+tF1AYJcOkjLxBhSJH+egAvysFwEAAAAAAAAAhZoDrbWzXUBwBr1uQJH4MakxeRMgkkkEAAAAAAAAAAAQgkGvG1AkfswoAoBQJhEAAAAAAAAAAEAIXePT0VenSPwYbXeA35nUDgAAAAAAAECpToHWqnwHlEBPc2WKxI+90HZiAPBGBAAAAAAAAAAyZBAYUIJRBOtSJL5fEgFAOGcRAAAAAAAAAABAGIa+rkyR+H6fRQAQziwCAAAAAAAAAO7kb84A+ziKYD2KxPe5jP3vxQDwog8iAAAAAAAAAKBAkT4FV7cJKMkggvUoEt9Hux0g7psRd4gCAAAAAAAAULpWBEBBjp7X1qNIfJ9RBABhnUUAAAAAAAAAAAChGAC7EkXi+yQRAAAAAAAAAABAVSYRAOxmEME6FIlvZ0Q2wNs8RwIAAAAAAABQom+B1trbLqAwJhKvRJH4dlrtALHfjEy2CAAAAAAAAIDCGQIGlPi8pky8AkXi2zmIALF9EwEAAAAAAAAAAIQzimB5isS3uUzZ7MQAAAAAAAAAAADVOYkAYFdJBMtTJHYIAdbQiQAAAAAAAAAAdvNJBECBuub7QFgWpEh8m88iALj6RTtXZ9sDAAAAAAAAQOFaEQCF0uNcmCLxbS+umuwA8c0iAAAAAAAAAOAO/t4MsL8kgmUpEl/vKAIAAAAAAAAAAKiWT8AF2N9lIGwnhuUoEl9vFAHA1bxYAwAAAAAAAMB+kgiAghkMuyBFYi+uAGvoMl7byfYAAAAAAAAAAEBYgwiWo0h8nUt7vRUDAAAAAAAAAABUaRIBQDZ0OhekSHwd7XUAAAAAAAAAAKjXJAKArBxFsAxFYgcOYA0fvcEDAAAAAAAAgF0kEQAVMCB2IYrE7+ufHp0YAG6S+/PmZIsAAAAAAAAAACAsA2IXokj8viQCAAAAAAAAAACo2lkEAFlpG2XiRSgSv++zCAAAAAAAAAAAoGp/iAAgO4MIHqdI/LZLY70XA8DNuszX505RAAAAAAAAAEqVRABUwkTiBSgSO2QAa+gyX587RQEAAAAAAAAAILauMSz2YYrEbxtFAAAAAAAAAAAA1TuJACBLBsY+SJH4bUkEAAAAAAAAAAAAAFkyMPZBisSvS0+PVgwAd+syXtvJ9gAAAAAAAABQqEEEQEX6Ju+eUvYUiV+npQ7wGC/QAAAAAAAAAJRiEgFAtpII7qdI/LqjCAAAAAAAAAAAgEaRGCBnBsc+QJH4ZV1jkiZAyWYRAAAAAAAAAFCoVgRAZY6e++6nSPz6oQLgMX3GazvbHgAAAAAAAAAK1YsAqFASwX0UiV9mzDXA49zlAwAAAAAAAEAJDKsCyJ/e550UiX93Kb4lMQAAAAAAAAAAAE9mEQBk7yiC+ygSO0wAtXLHKAAAAAAAAACl8enBQM3Pf70YbqdI/LtBBACL+JT5+twxCgAAAAAAAEBplOiAmn0Wwe0UiX9nIjHAMtzlCAAAAAAAAEAJvogAIAT9zzsoEv/sckeO4hsAAAAAAAAAAABALN3zgxsoEv/MWGuAerhjFAAAAAAAAIDSGKII1M5U4hspEv8siQBgMb0IAAAAAAAAACjAHGit/lYP1G4UwW0Uif/ReSEFWJS7HAEAAAAAAAAowVkEAGGkRm/pJorEPx8eAOoxiwAAAAAAAAAAAIpzFMH1FIn/YZw1QF3cMQoAAAAAAABAaT6IAKAZRHA9ReJ/aKADLK8XAQAAAAAAAADBRRpU5e/0APqgN1EkdmgA1tSKAAAAAAAAAIDgZhEAhHLpLOmFXkmR+DtjrAHqM4kAAAAAAAAAAACKpBd6JUXi7zTPAeoziQAAAAAAAACAwnQiAPiTXuiVFImbpvcCCrDqcywAAAAAAAAARHUKtt7OlgH8/Xyou3QFReKmSSIAWE0rAgAAAAAAAAAAYAdJBO9TJG6aUQQA1TqJAAAAAAAAAAAAivRZBO+rvUh8mZSZHAMAAAAAAAAAAOAFc6C1drYL4Cd94xPV31V7kfjoCACsahABAAAAAAAAAIF9DbTWznYB/EZP9B21F4kV3ADqNosAAAAAAAAAAACKNYrgbSYSA1CzryIAAAAAAAAAAIBiJRG8reYicf/0aB0BAAAAAAAAAADgFVOgtXa2C+A3l56oobNvqLlI/Nn2A6wuiQAAAAAAAACAwKZAa+1sF8CLBhG8ruYicbL9AN7wiQAAAAAAAAAAAIpmIvEbai0Sd0+P3vYDVG8SAQAAAAAAAAAAFK1rdEZfVWuRONl6AAAAAAAAAADgHadAa/1ouwBelUTwslqLxKOtB/AiDAAAAAAAAAAF6UQA8KrPIniZicQA1OwsAgAAAAAAAAAAKF7/9GjF8Lsai8RHhwGAZ7MIAAAAAAAAAHiFvykDlOUogt/VWCQebDsAAAAAAAAAAPCOaJ9y29sygDeNIvhdrROJAdhOynx97iAFAAAAAAAAoAQ+pR3gbUkEv6utSNw9PwDgL2cRAAAAAAAAAABA8S43XBhG+4vaisQOAAAAAAAAAAAAcI1JBADFGUTws4MDAAAAAAAAAAAA8Jtvgdba2y6AqxhI+4uaisRGUgPsI/ebOCZbBAAAAAAAAEBwrQgArtI1br74SU1F4mS7AXjBNxEAAAAAAAAAAEA1kgj+UVOReLTdAAAAAAAAAADAlc4iACjSZxH8w0RiAAAAAAAAAACA382B1trbLoCbnjNbMXx3qGjTO9sNsIuU+frcQQoAAAAAAABAdApxALc5iuC7WorEyVYD8IpZBAAAAAAAAAC8wN+TAco1iuC7gw0HAAAAAAAAAAD4jU+4BShXEsF3NRSJWxsOkMVzMQAAAAAAAACwjk8iALjJpc90FEMdRWIbDbC/PuO1nWwPAAAAAAAAAMEZ8AVwu0EEdRSJbTQAAAAAAAAAAHCLSQQAxTOotjGRGAAAAAAAAAAA4FeTCACK1zV5f9L6JkovEl822Nh+gP3l/lw82yIAAAAAAAAAAksiAPD8eY/Si8SmEQPkIfc7d862CAAAAAAAAAAAqjPWHsDBBgMAAAAAAAAAAPzEQCqAOqQm/09bX1XJReLLxvbOOAAAAAAAAAAAcKM/RABQjWPNF3+wsQBs4EPm63MnKQAAAAAAAABRJREAPGSo+eIPNhaADeQ+Id6dpAAAAAAAAAAAUCcTiW0sAAAAAAAAAADA304iAKhG21Q83b3UInH/vLEAAAAAAAAAAAAA8Jax1gsvtUhsGjFAXnK/ueNkiwAAAAAAAAAIKokA4GHV9k5LLRKPzjRAVnoRAAAAAAAAABDIJAKAqnTPj+qUWCS+TL1UWAMAAAAAAAAAAO41iQCgOlVOJT7YSABoZhEAAAAAAAAAAEDVhhov+l8FXtP/NMrEADn6rybvwu5/bBEAAAAAAAAAzyL1qv7v6ZFsGcAicu84La7EicReFAHy1IsAAAAAAAAAgADOIgCoVqrtgg8FbmDrHAMAAAAAAAAAAHeaRQBQrbG2Cz7YQAD40yQCAAAAAAAAAAIyeBFgOcfaLrjEicQA5KnLfH2TLQIAAAAAAAAgoF4EAItpa3teLalI3HlRBMj+eRoAAAAAAAAAcvdFBABVq2oqcUlF4uTsAgAAAAAAAAAAAPCAsaaLPdg4APiTO0oBAAAAAAAAiKYVAcDi+qaiT183kRiArXwUAQAAAAAAAAABzIHW2tsugFWkWi70UNCGubsGIG+dCAAAAAAAAAAI4CwCgOqNtVzowYYBwJ9mEQAAAAAAAAAAAI2JxDYMgOq4oxQAAAAAAACAaHyKO8B6z6/HGi60hCJx9/TonVmAEM/XAAAAAAAAAJC7KdBa9aYA1jPUcJElFImTswoQQicCAAAAAAAAAAKYRABAYyJxGKOzCoA3ggAAAAAAAAAAwIK6poLhiSYSA8B3kwgAAAAAAAAACOaDCABWVfxU4uhF4vT0aJ1TgDA6EQAAAAAAAACQsVOw9fa2DGBVY+kXWEKRGIA4OhEAAAAAAAAAAABBpKbwgbfRi8SjMwrAgs4iAAAAAAAAAAAAfpBKvrjIReJLw9tofgCWNIsAAAAAAAAAoGrR/m7c2TKA1RU99DZykfjobAKE4w0MAAAAAAAAADn7Gmy9nS0DWF3RfdXIReLB2QQIJ/c3MCYSAwAAAAAAAAAAP2qfHn2pF2ciMQD846sIAAAAAAAAAACAXxTbWY1aJL40u1vnEgAAAAAAAAAAWNAUaK2d7QLYzFjqhUUtEptGDBDTJxEAAAAAAAAAkLEp0Fo72wWwmWIH4EYtEo/OJEBIub+YTrYIAAAAAAAAAAB4QZFDcCMWiS8ltN55BGAFkwgAAAAAAAAAAIAXFDkEN2KR+OgsAgAAAAAAAAAAKzgHWmtnuwA2lUq8qIhF4sFZBAjLRHkAAAAAAAAAcjYHWmtnuwA21TYFlolNJAZg6xfTnJ1tEQAAAAAAAAAA8IqxtAuKViS+TLJsnUMAVjKLAAAAAAAAAKBa/mYMwHuKG4YbrUicnEEAAAAAAAAAAGAF0T7F9qMtA9hc9/woRrQi8egMAoTXiwAAAAAAAAAAHtaJAGAXRU0ljlQkbhsTiQFK0Ga+vpMtAgAAAAAAAAAAXjGUdDGRisTJ2QMAAAAAAAAAAFYyiQCAK5hIvJPR2QMAAAAAAAAAAFbyLdh6e1sGsJtiysQmEgPgjczPJlsEAAAAAAAAQACtCAB2M5RyIVGKxJfSWefcAXgjs4FvtggAAAAAAAAAAHiDicQbS84cAAAAAAAAAACworMIALhS1+T/yexXiVIkHpw5AAAAAAAAAABgRXOgtfa2C2B3qYSLiFIkPjpvAMX4lPn63GEKAAAAAAAAQO5aEQDsbizhIiIUiZWIAbyZ2dJsiwAAAAAAAAAAgHekpoAbOyIUiQdnDQAAAAAAAAAAWNlJBADcKEW/ABOJAQAAAAAAAAAAYulFAJCFMfoF5F4k7p4fAJQjZb6+ky0CAAAAAAAAIHOtCACykKJfwEHAAAAAAAAAAABA5SYRAHCHrgk+JT73IvHojAEAAAAAAAAAACubRADAnY6RF28iMQD8bhYBAAAAAAAAABn7JAKAbIQemptzkTg9PVrnC6BIKfP1nW0RAAAAAAAAABnTqwLIRx/5eTnnIvHobAEAAAAAAAAAABswcAqARxyjLjz3icQAAAAAAAAAAABr+0MEADxgiLrwXIvElxHPvXMFwE4mEQAAAAAAAACQsSQCgKyYSCxQAAp6Q/PNFgEAAAAAAAAAAFcKO0A31yLx4EwBAAAAAAAAAAAbOYkAgAeFHKJrIjEAAAAAAAAAAAAAPGaMuOgci8SX0c6t8wTAjk4iAAAAAAAAACBTSQQAWQrZf82xSOyFDqB8gwgAAAAAAAAAyMgsAgAWcIy24ByLxKNzBAAAAAAAAAAAbOgsAgAWEK4Dm1uR+DLSOTlHAOzMnaYAAAAAAAAAAMCtUrQFHwQIAL9xpykAAAAAAAAAuUoiAMhWuIG6uRWJB2cIwJsaAAAAAAAAANiQYVMALGmMtNjcisRH5wcAAAAAAAAAANjQLAIAFpQiLTanInH3/ACAHEwiAAAAAAAAAAAAbtQ3gfqwORWJTSMGICeTCAAAAAAAAADI0CACgOylKAvNqUjsBQ7AiyUAAAAAAAAAbO2LCABY2BhloTkViZNzAwAAAAAAAAAAAEBwKcpCDxkF1jo3AGTkLAIAAAAAAAAAMqRnBRDjuTpFWGhORWIAvLHJyR+2CAAAAAAAAKAKc7D19rYMIIQxwiIPwgLAGxsAAAAAAAAAKuYTawFYQ4qwyByKxJeJlMpkAORmFgEAAAAAAAAAAHCnSze2y32RORSJj84KABlyxykAAAAAAAAAuWlFABBKyn2BORSJB+cEoEofRAAAAAAAAABABqZAa/XJ7wCxjLkvMIcicXJOAKrkzQ0AAAAAAAAAOZhEAMBKUu4L3LtIfCmRdc4JAN4oAgAAAAAAAAAAhWmbzMvEexeJkzMCQKYmEQAAAAAAAACQmVYEAOGMOS9u7yLx4HwAeHMDAAAAAAAAADs5B1tvb8sAwkk5L27vIvHR+QColjc3AAAAAAAAAOxtFgEAK7v0pLpcF7dnkTg5GwBk7iwCAAAAAAAAAADgQSnXhe1ZJB6dCwAy585TAAAAAAAAgLJF+7vwB1sGEFK2nVkTiQHYUysCAAAAAAAAAHb0Ndh6e1sGEFLKdWF7FYk7L2oAeC0AAAAAAAAAAAAqcBm4mHJc2F5F4uRMABDAFxEAAAAAAAAAAAALGHNc1F5F4sF5AAAAAAAAAAAAdjYFW29nywDCSjkuaq8i8dF5AKD5PrIfAAAAAAAAAPYyBVtvZ8sAwupzfB4/7BSE4hgAf70meMMIAAAAAAAAAADUIOW2oIMQAOBVkwgAAAAAAAAAAICFjLkt6CAEAAAAAAAAAACgUudAa+1sF0B4KbcFmUgMwJ4+igAAAAAAAACAHc2B1trZLoDw2iazHu3WReKjMwBAoDc5Z1sEAAAAAAAAAAAsaMxpMVsXiQf7D0AgswgAAAAAAAAAAIAFpZwWc6j54gEAAAAAAAAAgGqdgq23s2UARehzek7fskjcPV88AHiTAwAAAAAAAAC36UQAUIyUy0IONV40AN7k3OBkmwAAAAAAAAAAgAUNuSzkUONFAwAAAAAAAAAA1ZtEAMBOjrks5FDjRQMAAAAAAAAAANX7Fmy9H20ZQDHap0efw0K2KhL3zxcNAL/qMl/fbIsAAAAAAAAAyEAnAoCiZDGgd6sicbLfAAR9o/PVFgEAAAAAAAAAAAsbc1jEVkXiwX4DAAAAAAAAAAAZOYsAgB31T49270VsVSQ+2m8AAAAAAAAAACAjc7D19rYMoDi792u3KBIn+wzAG7rM1+cOVAAAAAAAAABy0IoAoDjD3gvYokg82mcA3tBlvr7ZFgEAAAAAAAAAACswkRgAAAAAAAAAAGAHJxEAsLPLtPl+zwUcSr9AAAAAAAAAAACA4HSwAMq161TiQ8kXB0AIHzNf38kWAQAAAAAAALCzVgQAxRr2/OWHki8OgBA6EQAAAAAAAACwsVkEAGQiNTveMHLY4OIAAAAAAAAAAABychYBABlJe/3iNYvEfWPKJABlcCcqAAAAAAAAAHvqRQBQtHGvX7xmkTjZVwAKebPjTlQAAAAAAAAA9tSKAKBoaa9fvGaReLCvAHizAwAAAAAAAECGDJQCICdds9NARhOJAQAAAAAAAACA2vwhAgAyk/b4pYcVL8aESQBKMYkAAAAAAAAAgB19EgFA8cY9fumaRWIAuFaf+fq+2SIAAAAAAAAAdmSoI0D50h6/dK0i8WA/AfCGBwAAAAAAAIBMnUQAQIaOW//CNYrElzJYspcAAAAAAAAAAAAAcLXNB/muUSRO9hGAwpxFAAAAAAAAAMCOkggAqlDEROLBPgJwoz7z9c22CAAAAAAAAKAo/g4MQI6658dm1igSH+0jADdqRQAAAAAAAADAhnwyLQC52rSHu3SRuGs2bkIDwAbciQoAAAAAAAAAAGxh2PKXLV0kTvYPgAK5ExUAAAAAAACAvSQRAHjeX8vSReLB/gFwh08iAAAAAAAAAGAjkwgAyFjbbFgmXrpIfLR/ANz54gcAAAAAAAAAW5hEAEDmxq1+0ZJF4r5RBAPAG0kAAAAAAAAAAIBHpK1+0SHiogFgB5MIAAAAAAAAANhBEgFAdTYb7rtkkXiwbwA88MIHAAAAAAAAAFv4IgIAAjhu8UsO0RYMQJFaEQAAAAAAAAAAAPxtkwG/SxWJk/0CoHBnEQAAAAAAAAAAABsJNZE42S8ACveHCAAAAAAAAACKMAdb72DLAKp0+ZT3fu1fslSReLRfADyoFwEAAAAAAAAAG/CJtABEsfpU4iWKxJs0ngEoXisCAAAAAAAAAACAv60+lX6JInGyTwBU4CQCAAAAAAAAAHZgMBdAvdLarwNLFIkH+wQAAAAAAAAAAAQxBVuvT4sHqFta84cvUSQ+2iMAcn/BAwAAAAAAAIBnkwgACGRc84c/WiTunh8A4I0kAAAAAAAAAADAstKaP/yQ8+IAICOTCAAAAAAAAADYWCsCgOp1zYpDfx8tEg/2BwAAAAAAAAAACOIcbL29LQPgyXGtH2wiMQC5cHMKAAAAAAAAAGubRQBAQKt1qx4pEl/udunsDQAVOYsAAAAAAAAAAADYWJYTiZN9AaAy7kwFAAAAAAAAYEutCAB4ltb4oY8UiX0EPQAAAAAAAAAAEMmXYOvtbRkAz8Y1fqiJxADkwusKAAAAAAAAAADAy9IaP/TwwGKMzQegNl9EAAAAAAAAAAAA7OAypX7x7u4jRWIAAAAAAAAAAIBIpmDr/WDLAPjBcekfeG+ReLAXAAAAAAAAAABAMFOw9fa2DIAfLN7fNZEYgJzk/voy2yIAAAAAAAAAAGAnWUwkPtoHACp1FgEAAAAAAAAAALCTtll4Wv09ReLBPgAAAAAAAAAAAAFFGyDV2TIAfpGW/GGHvRcAAAAAAAAAAACwkTnYejtbBsAvxiV/2K1F4sVHIgPAD1Lm6zvbIgAAAAAAAAAAYEdpyR922POXA0AwswgAAAAAAAAAAICdHZf6QbcWiQfZAwAAAAAAAAAAAZ2CrbezZQC8YrE+761F4qPsAVjRBxEAAAAAAAAAwJ86EQDwil0mEndenABYWR9gjSfbBAAAAAAAAAAA7KhrFur03lIkTnIHAAAAAAAAAACCmkUAQEHSEj/kliLxIHMAAAAAAAAAACCor8HW29kyAN4wLvFDTCQGICdtgDW6QxUAAAAAAACALXQiAOANaYkfcm2RuPfCBMAG+gBr/GqbAAAAAAAAAACAnV2GNj7ct7q2SJzkDQAAAAAAAAAABHYWAQCFOT76A64tEg+yBgAAAAAAAAAAApuDrfejLQPgHQ/3e00kBiA3bebrm2wRAAAAAAAAABvoRADAO1LzYN/qmiJx3+Rf6gKgHH3m65tsEQAAAAAAAAAAkIn0yDcf1v4FAAAAAAAAAAAAGTiJAIACDY9882HtXwAAAAAAAAAAAMDNehEAcIXjI9/8ryu+5j8yBmBD/356/G/ma/TaCAAAAAAAABDPv4Kt19+mAbjWfz89pnu+8b2JxEm2AGzMHZUAAAAAAAAALG0WAQAFS/d+oyIxAAAAAAAAAABQurMIACjYeO83vlckHmQLAL9xpyoAAAAAAAAAa/JpvgDcIt37jSYSA5CbDwHW6E5VAAAAAAAAANbUigCAG1837roJ5a0icZIrADtwVyUAAAAAAAAAS5tEAEDhjvd801tF4lGmAAAAAAAAAABAAb6JAIDCDfd8k4nEAHC7SQQAAAAAAAAArMin+QJwq/T0aG/9pteKxK0XIwB20gVYoztVAQAAAAAAAFhTKwIA7pBu/YbDUj8IABbSiQAAAAAAAACAhZ1EAEAFhlu/4bDUDwIAAAAAAAAAAAAAdnO89RtMJAaA251FAAAAAAAAAMCKPokAgDt0zY2fCP9Skbh9evSyBGDnF7SczbYIAAAAAAAAIJRof+dtbRkAd0q3fPHh0R8AACvoRAAAAAAAAADAgnzyLAC1GG/54peKxIMMAQAAAAAAAAAAACCcdMsXm0gMALc7iQAAAAAAAACAFSURAHCn9unRX/vFvxaJu1u+GQBW0okAAAAAAAAAgIVMIgCgMunaLzzc+40AsKJOBAAAAAAAAAAsZBIBAJUZr/3CX4vEg+wAwBtNAAAAAAAAAAAgrHTtF5pIDAD3mUQAAAAAAAAAwAqSCABYwPGaL/qxSNw1PkoegDx8FAEAAAAAAAAACzmLAIAKDdd80Y9F4iQzADLRiQAAAAAAAACAhfwhAgAqlK75oh+LxIPMAOBq7lgFAAAAAAAAAABy1T892ve+yERiALiPO1YBAAAAAAAAYpiDrTfZMgAWcnzvC/4qEneNj5EHIB9ekwAAAAAAAABYik+cBaBWw3tf8FeROMkKgIx0IgAAAAAAAAAAAHhIeu8L/ioSD7ICgJucRAAAAAAAAAAAAGSse3r0b32BicQAAAAAAAAAAEDJpmDrNRQSgCWlt/7jpUjcNT5CHoD89CIAAAAAAAAAYAGTCACo2Js3qFyKxElGAGSozXx9sy0CAAAAAAAAAAAyl976j5cisVH4AHC7swgAAAAAAAAAWEErAgAWfl1Jr/1HE4kBAAAAAAAAAIBSRRwS1ds2ABaWXvsPlyJxJx8AvDECAAAAAAAAoECzCACgGV77DwfZAJCpCB/VcrZNAAAAAAAAAABA5lLzSh9LkRgA7ufOVQAAAAAAAACW1IoAgJWkl/5RkRgAAAAAAAAAACjVl2Dr7W0ZACsZXvpHRWIAcvVJBAAAAAAAAAAAAItIL/2jIjEAuYrwcS1fbBMAAAAAAAAAABDAZep99+s/KhIDAAAAAAAAAAClmoOtt7VlAKwo/foPisQAAAAAAAAAAECpzsHW29syAFY0/PoPisQAeHN0v9k2AQAAAAAAAAAAQaRf/0GRGIBcRfi4lrNtAgAAAAAAAAAAguiaXwY8KhIDAAAAAAAAAAClijYg6oMtA2Bl6cf/o0gMAAAAAAAAAACUag623t6WAbCy4cf/cykSTzIBwBuku3gNBQAAAAAAAAAAIkk//h9FYgBy1ma+Pq+hAAAAAAAAAABAJJdO1t8DHg/yAAAAAAAAAAAACnQKuObOtgGwgeNf/0ORGAAAAACA/2fv7m4Ux4IwgLacwDiDdgbjDJoMJrYNYTOADEwGkMGdDNwZ7PoBienB+A/sW/Q50lgG3Ezpq4crRPkCAAAA5KESAQAr+LicGCQGIGd1gBobbQIAAAAAAAAAAALZXU66QeKTPADIVCkCAAAAAAAAAGZqRQAAvXbdoRsk/pQFAAAAAAAAAADwYs7B6q20DIAV/eoOhRwAYBF3sAIAAAAAAADwCJUIAFjRrjsYJAYgZx8BajxrEwAAAAAAAAAAEEz9/7+yGyRuZAEAAAAAAAAAALyYJAIAuGtnR2IAAAAAAAAAAOAVpWD1VloGwMpqg8QA8L0+eAIAAAAAAACQp0oEAKzsoxskbuQAQKZ2AWpM2gQAAAAAAAAAAERkR2IAAAAAAAAAAOAVNSIAgPsug8StKAAAAAAAAAAAADbzLgIA1nYZJD6JAgBmsYYCAAAAAAAA8AiVCABYWyECADK3y7w+u/oDAAAAAAAA5Md3uQAwgh2JAQAAAAAAAACAV2MeCgBGuAwSf4oCAGZzJysAAAAAAAAAS9UiAGBtl0HiJAoAmM2drAAAAAAAAAAsVYoAgLUZJAYgdzsRAAAAAAAAADBREgEADDNIDAAAAAAAAAAAvJrfIgCAYQaJAWA56ygAAAAAAAAAS9QiAGALxdV5EgcAzOJOVgAAAAAAAACWKEUAwBYMEgOQuw8RAAAAAAAAADDRSQQAMKyweAIAAAAAAAAAAC+mFQEADLseJP4UBwDM4mYcAAAAAAAAAJaoRQDAFq4HiRtxAJChMkCN7mQFAAAAAAAAyEu073FLLQNgi/WyCLx4AvA9uOsSAAAAAAAAgKn8siwADDsXFk8AAAAAAAAAAAAA+H6KL48NEwPAdI0IAAAAAAAAAFjgpwgA2MLXQeIkEgAyVIoAAAAAAAAAgJFSwJp9Lw7AJr4OEp9FAkCGahEAAAAAAAAAMFISAQCMcvo6SHySCQD4IAoAAAAAAAAAALy89usgcZIJAMxiDQUAAAAAAABgrp0IANiCHYkBiKAUAQAAAAAAAAAjmYECgHFSYSEFIIBaBAAAAAAAAACM9CkCABjFIDEAPIj1EwAAAAAAAAAACOXWIPFZLAAwmTtaAQAAAAAAAJhjJwIANtB0BzsSAxDBDxEAAAAAAAAAMFIjAgAYp7CQAhBALQIAAAAAAAAAAICHSd2h6HnRrsQAME0jAgAAAAAAAAAAIIjf3cEgMQAAAAAAAAAA8EpSsHp3WgbAVutl3yDxWT4AZKQUAQAAAAAAAAAjJREAwLj1sm+QuJEPABmpA9TYahMAAAAAAAAAABBE6g59g8Qn+QDAJNZOAAAAAAAAAAAgitQdijsXNDICAAAAAAAAAAACibgJ1Ie2AbDVenlvkPgoJwAyUokAAAAAAAAAgAGtCABgULqc2JEYgCiqSAssAAAAAAAAAABAps6XE4PEAPA4SQQAAAAAAAAATFSKAICVnS4nxdgLAQAAAAAAAAAAMncMWHOtbQCsLF1OhgaJG1kBkIlKBAAAAAAAAAAAAIuN3pH4KCsAMlEFqNG6CQAAAAAAAAAA5Ox0/WBokHgvLwAAAAAAAAAAIIg2WL2llgGwskmDxJ1GZgAAAAAAAAAAQACnYPXWWgbAys7XD8YMEvuZdgBy8B6gxlabAAAAAAAAAACAjNmRGICQqmiLLAAAAAAAAAAAQGaa6wdjB4ntsAgAAAAAAAAAAOQu2gZQpZYBsOU6WYz8w0Z2AAAAAAAAAABA5qJtmFhrGQArmj1IfJAdABurAtSYtAkAAAAAAAAAAMjU8esTdiQGIIoqQI1JmwAAAAAAAAAAgEzN3pE43fpjAAAAAAAAAACATDQBa/6hbQCspH1bMEjcOcgQAAAAAAAAAADgYWoRALCS5taTUwaJ9zIEYGNVgBrt4A8AAAAAAAAAAOTmeOvJKYPE3WBUkiMAG6oC1NhqEwAAAAAAAMAmfF8LAP2aW08WE9/ErsQAAAAAAAAAAECOzgFrrrQNgBV0N9vc/KX1qYPER1kCwOCiCwAAAAAAAABjVCIAYAVN3wtzdiQ2IAWAD1D9ztoEAAAAAAAAAABk5ND3QjHjzfbyBGAjlQgAAAAAAAAA6JFEAAA3NX0vzBkkPsgTAAAAAAAAAADITApWb6VlAKzgdG+NnLsjcStXAHiJD6YAAAAAAAAAbKMSAQAraO69WMx8071cAdjAzwA1Jm0CAAAAAAAAAAAycbj3YvGMNwWAJylFAAAAAAAAAECPkwgA4A/t2xN3JE7yBQAAAAAAAAAAMtEGq7fSMgCebD90QfHMNweAb8gdrgAAAAAAAACMUYkAgCc7DF2wZJD4X/kCsLI6QI2tNgEAAAAAAACszne1APC3ZuiCJYPE3Y6LScYArKgUAQAAAAAAAAA3+PVYAPjT/m3EjTbFwv/kHzkDAAAAAAAAAABM9i4CAJ7oMOaipYPEezkDwF8aEQAAAAAAAAAwoBIBAE80asb3PwHYu/vjxo00D8Btlv83HcFwIhgqgqEiWCuCXUWwpwhWiuDoCA6O4OgIjIng6AzgDOgIfGgDGmk+NJJIgOhGP09Vl2ZcY6n5NgiApV+/ODVI3ARhYgDOa60EAAAAAAAAAHymUQIA+Khqx+El/3AxwA/7Rb0BOKOlEgAAAAAAAADwmT+UAAA++vWl/3CIIHHsSHxQcwD4qFECAAAAAAAAAJ7hibwAjCFmencv/ceLgX5ope4A8JGdrgAAAAAAAAA8xxN5ARjD7jX/eKgg8c/qDsCZ2JEJAAAAAAAAwOf2SgAAf3tVpneoIHHTjlrtATgDOzIBAAAAAAAA+NxBCQDg7zzvqzbXLAb84boSA0DHTlcAAAAAAAAAvsXTeAEYw6uzvEMGiXehSzIDQOnsdAUAAAAAAADgWzyNF4AxVK/9HxYDT+AXawDAyN4pAQAAAAAAAACfqZUAgMJV4YgGiEMHibfWAYCR2ZUJAAAAAAAAAADwqaOaAQ8dJI5J5spaAFC4WgkAAAAAAAAA+Ia1EgAwoCYcmVlajDCZn60HAAAAAAAAAABwJk2Gc/Y0XgCGdHR2d4wg8T7oxAjAeDZKAAAAAAAAAMAjjRIAULBDO6pj/+fFSJPSlRgAF2gAAAAAAAAAAIBx7cIJWaXFiJNqrA0ABdsrAQAAAAAAAABPeKcEAAzk7pT/eZHqxAAAAAAAAAAAAF4gx0ZPS8sGwABObvw7ZpC4Ch7rDsA4NkoAAAAAAAAAQO9PJQCgUD+f+g0WqU8QADK1VwIAAAAAAAAAAGAkdT9OMnaQeBt0JQagTHa8AgAAAAAAAPCUjRIAcKJfhvgmYweJY4hYV2IAAAAAAAAAAGAstRIAUJimHdUQ32hxhsnqSgzA0DZKAAAAAAAAAAAAFOpuqG90jiCxrsQAlKhWAgAAAAAAAAAAYGBNGKgbcbQ406R1JQYAAAAAAAAAAMaQWy5pY8kAOMHdkN/sXEFiXYkBAAAAAAAAAIAx7JUAgEI0YcBuxNHijJPXlRiAobzPYI6ueQAAAAAAAAAAwJDuhv6G5wwS60oMQEnseAUAAAAAAAAAAIbShIG7EUeLM78IXYkBAAAAAAAAAICh5NjkaWPZADjC3Rjf9NxBYl2JAQAAAAAAAACAoWhqCEAJmjBCN+JoMcGL0ZUYgFNtMrqAAwAAAAAAAAAAnOJmrG88RZA4hojvrCkABWiUAAAAAAAAAAAAOEHdjt1Y33wx0YuKXYkbawsAAAAAAAAAAJzgQ4Zzfm/ZAHiFUZv3Lub6wgCYvaUSAAAAAAAAAAAAMxY7Eddj/oApg8RVO/bWGIAjrTOYo+scAAAAAAAAAABwrJuxf8Bi7i8QACb0pxIAAAAAAAAAjOqQ4Zw9gReAl7hrRzP2D5k6SFyHru0yAAAAAAAAAADAa+X4pNi1ZQPgGXGjzPYcP2iRwIvVlRiAY+SwQ/NgmQAAAAAAAAAAgFeK2dqzZI9SCBI3oWu/DACvkcMOzb1lAgAAAAAAAAAAXiFmjqpz/bBFIi86tl/WtREAAAAAAAAAAHiNJrP5Li0ZAM+4OecPSyVIfDj3CwcAAAAAAAAAALLXZDbftSUD4BuqdtTn/IGLkl88AFn7wQdWAAAAAAAAAABgJiZpyrtIrAi6EgPwUjns0mwsEwAAAAAAAAAA8AIxQ3s49w9NLUi8b8fWsQAAAAAAAAAAADyjznDOS8sGwBPXtGqKH7xIsBh3YYJENQAAAAAAAAAAwMjWSgDAV1xP9YNTDBLHEPGNYwKAZ+SyS3NvqQAAAAAAAAAAgCfEBrzNVD98kWhRqpDnowcAOJ9cdmnqsg8AAAAAAAAwDr+PBSB3sUnh7ZQTWCRcnGvHBwAAAAAAAAAA8ITfM5zzD5YNgEcmz8qmHCRuQteuGQAAAAAAAAAAYA7WSgBAL2Zk91NPYpF4kW5TKBIAyVpmMMcPlgkAAAAAAAAAAHgkZmNvU5jIIoNi3TheAHiCnZoAAAAAAAAA5WqUAIBMXacykRyCxHU7to4ZAAAAAAAAAADgkSbDOa8sG0Dx7kLXkTgJi4yK1jh2APDBFQAAAAAAAICMrZQAoGgxQHyb0oRyCRIfQkJtnAFIxjKDOTaWCQAAAAAAAAAAihezsFepTWqRUQHrdmwdRwA8slYCAAAAAAAAgGLtlQCAjNyEBJsSLjIr4l3Q2REAAAAAAAAAAOg6O+ZkZckAirVrR5XixHILEseL/7XjCYCM2AELAAAAAAAAQLRSAoAiNSHh7Osiw4LWoetMDABvMpjjwTIBAAAAAAAAAECxrkLCGaJFpkW9DTo8AmC3JgAAAAAAAECpaiUAIAOxcW7SeddFxsWNbZ51eQQAAAAAAAAAAHKwUgKAotSha5ybtJyDxDGhfec4AyCTmwIAAAAAAAAAyrZSAoBixEa5VzlMdJF5obft2DneAHzIAgAAAAAAAKAojRIAkLDL0IWJk7eYQbGvcyk2AINbKQEAAAAAAABAkf5QAgASddOOfS6TnUOQOJv2zwAUy4YXAAAAAAAAAN4oAcDs7dqxzWnCi5kUvm7HneMPgET9rgQAAAAAAAAAxVspAcCsxS7E17lNejGjBbgNXaAYAB+0AAAAAAAAAJi3vRIAkJD4xPLrkOGTyxczW4gsFwGAk6yUAAAAAAAAAKA4MkIApCTmV7Pc5DK3IHHTjivHIwCJsRMWAAAAAAAAgLUSAMzSXTt2uU5+McMFqftFAYBU2AkLAAAAAAAAwFIJAGanasdtzi9gMdOFiYtSOz4BirBSAgAAAAAAAIDi1EoAwMTiU8pvcn8Rixkv0FXQARKgBCslAAAAAAAAAAAAzijmUy/DDHKqiwIWCQCmVisBAAAAAAAAQNHWSgAwG7MJEUeLmS9WbBt97ZgFAAAAAAAAAIDZyDG4tbRsALNxE7p86iwsCliwqh8AzNMbJQAAAAAAAAAoyl4JAJhIDBFXc3pBi0IW7toNBMBsrTKZ58FSAQAAAAAAAABAtqp2bOf2ohYFLeBlEOICYDo2tAAAAAAAAACUa60EAFnbha6p7eyUFCSOIWJhYgAAAAAAAAAAyFuOjZyWlg0g6+vO9Vxf3KLAxbxxTAPMil2bAAAAAAAAAGX5UwkAOJOYO511E9tFgYtatWPr2AaYjVx2bTaWCgAAAAAAAAAAshHDw1dhxiHiaFHo4sauxDvHOABn9IcSAAAAAAAAABTrnRIAZCWGh2Mn4mbuL3RR8CJfh67lNAAAAAAAAAAAkI86wzkvLRtANu5DxEVkTBcWet4tpwEKsVYCAAAAAAAAAABgADehoEa1i8IXW5gYYB5y2LlZWyYAAAAAAAAAAEjadTuqkl7wwpr/nRq/VgYAAAAAAAAAAMhCjk0DN5YNIHnFhYgjQeLOLggTAwAAAAAAAABADvZKAMDAigwRR4LED+IBcKcMAFlaZzDHg2UCAAAAAAAAAIDk3IRCQ8SRIPGnbks+GAAytsxgjnbEAgAAAAAAAABAWqp2bEsugCDxl2J76p0yAAAAAAAAAABAcpoM57yxbABJqkKXGS2aIPHXxQND50gAAAAAAAAAAEhLowQADKAKQsR/EyT+ukM7LoMwMUAu3vlACwAAAAAAAAAAvEAVhIg/EiR+2n2Y+KAUAMlbZjLPxlIBAAAAAAAAAMBkqiBE/AlB4m8TJgYAAAAAAAAAgHR8yHDOG8sGkIQqCBF/QZD4efsgTAwAAAAAAAAAAACQqyoIEX+VIPHLCBMDpG2d0fUEAAAAAAAAAAA4n5sgRPwkQeKXuw8TA5CeZSbz/NNSAQAAAAAAAJxEI0AAXiMGiLfK8DRB4tfZB6l0AAAAAAAAAACYSo5Pgn1v2QAmEfOelTJ8myDx61VBmBgAAAAAAAAAAAAgVULELyRIfJwqCBMDpGaTwRxrywQAAAAAAAAAAKMSIn6F75XgaPcH2f8oBQAAAAAAAAAAnEWT4ZyXlg3gLA7tuGzHXileTkfi01RBZ2IAAAAAAAAAADiXJsM5ry0bwOiEiI8kSHy6KggTAzDfD7QAAAAAAAAAAJCyJggRH02QeBhVECYGmNomk5sWAAAAAAAAAABgGDE8fBGEiI8mSDycKggTAwAAAAAAAADAWHIMiS0tG8Co14XYifigFMcTJB5WFYSJAQAAAAAAAABgDDkGxdaWDWAUVeg6EQsRn0iQeJyDU5gYgKd4jAIAAAAAAAAAABxvG+Q0B/O9Eoyi6r/+d/B4AoBzeZ/JPO2CAgAAAAAAADiO37cCEAPElTIMR0fi8cQD9dINDAAAAAAAAAAADOL3DOesCSHAMGIW8yoIEQ9OkHhc8fH1wsQAAAAAAAAAAFCmtRIAnCxmMGMWc6cUwxMkHp8wMQCPfVACAAAAAAAAAAB4kZjBfNt/ZQSCxOc7kGOYuFEKgNFslAAAAAAAAABg1holAChK7ECskevIBInPJ4aJL4JUPAAAAAAAAAAAHKPJcM4/WDaAo2zbcRWEiEcnSHxe8YCO6XhhYoCyrwUAAAAAAAAAlGGtBACvdt2OG2U4D0Hi87sPE++UAqBINpMAAAAAAAAAAMCXYr7yoh2VUpyPIPF0B/uVgx1gcBslAAAAAAAAAJgtjZsA5n2Of+tcf36CxNOK7be3ygAAAAAAAAAAAM86ZDjnlWUDeFbVjstMz/PZEySe3k3oAsUAlMGuKQAAAAAAAIByrJQA4JvuM5RCxBMRJE5D1Y4rbwSAky0zmKNzPQAAAAAAAAAApYsZmtiFeKsU0xIkTscuaM0NcKq1EgAAAAAAAADMUq0EALMRn+h94dyeBkHiNN8cHnsPAAAAAAAAAAB5WykBwBeq0DVdbZQiDYLE6Wn6N0mtFACz5RwPAAAAAAAAMH8rJQD4xHU/DkqRDkHiNMU3SQwTV0oB8Co/KAEAAAAAAADALAmdAeSracdFkIlMkiBx2mLy/kYZAF5srQQAAAAAAAAAs/S7EgBkaRe6EPFeKdIkSJy+bTuugl1VAHPinA4AAAAAAAAwfyslAAoXG6nKPyZOkDgPMZF/Gbr23gDkz05ZAAAAAAAAgPlbKQFQqBgcjpnHrVKkT5A4H7Gtt/beAN+2VAIAAAAAAACAWZKZAchD3Y63/VcyIEicl5jSj2HiSikAvmqtBAAAAAAAAACzdFACgOTdhK4TsXN2RgSJ83TdDwDy1CgBAAAAAAAAwOy9UQKgEE3omqRulSI/gsT5qvo3nuQ+QJ43TwAAAAAAAADM20oJgALsQpdl3CtFngSJ8xbfeG+9AQE+sVQCAAAAAAAAgNmplQAgKbEJ6nU7roKGqFkTJJ7HmzGm+SulAPjbWgkAAAAAAAAAAGA0sfnpZZBbnAVB4vm47gcA6auVAAAAAAAAAGD2NMIC5mgbuuane6WYB0Hiean6N2ijFAAAAAAAAAAAzMQh03kvLR0ws3Nx7EJ8oxTzIkg8PzHlH8PEtVIAhfJBDAAAAAAAAGBedL0EmNauHW+DXOIsCRLP033y/04pgALl8miYg6UCAAAAAAAAACBhMd9y1Q9Zl5kSJJ6329AFir2BAdJjxywAAAAAAADAfK2VAMhc3Y6L0HUjZsYEict5MwusAQAAAAAAAACQoybDOS8tG5Cp2Lj0JnRNTBvlmD9B4nJupmKYeKsUQAF+UAIAAAAAAACAWflDCQDOIjYslTUsjCBxWeIugavQ7RgAmKtcHg/TWCoAAAAAAAAAABJxF7oQcaMUZREkLs+uHW/bUSsFwKTsmAUAAAAAAACYr7USAJm470J8qxRlEiQuU+xIfBm6HQQAAAAAAAAAAJCyOsM5Ly0bkIH7LsR7pSiXIHHZbkMXKG6UApiRlRIAAAAAAAAAAMCTdCHmI0Fi6v6EsFMKYCZWGd2QAQAAAAAAAADAuRzacRN0IeYRQWLuTw5X7bju/wzAec69AAAAAAAAADwvx9+vvrNsQGLq0AWIt0rBY4LEPFYFOw0AAAAAAAAAAEhLjlmWpWUDEnHfhfiyHY1y8DlBYj4XTxQxTHynFEDGVpncpAEAAAAAAAAAwFh2QRdiniFIzFNugx0IQL5WGcxR93cAAAAAAAAAAMYQG9xd9aNRDr5FkJhvqYPdCAAAAAAAAAAATKfJdN4bSwdMJOb93oauGzE8S5CY58SdCTeh25lwUA4AAAAAAAAAAM6oUQKAF4lPx74MXd5P1o8XEyTmpeLuBLsUgFysfOAFAAAAAAAAAKAAMTR8146LdtTKwWsJEvPaE85V0J0YSN8qk3k2lgoAAAAAAAAAgCPFxqAxQHyrFBxLkJhjTz66EwMAAAAAAAAAMLZ9hnPeWDZgZE14aAraKAenECTmWLoTAwAAAAAAAAAwtj+VAOATd6HrQqwRKIMQJOZUuhMDKXqTyTz3lgoAAAAAAAAAgBeoQ5fVuw2afzIgQWKGoDsxkJpVJvO0cxYAAAAAAADg22RRgNI1ocvmXfZ/hkEJEjMk3YkBAAAAAAAAABhSjk963Vg2YCB37bgIMnmMSJCYod13J7b7AQAAAAAAAAAAAF7vvqnnbdCZnZEJEjOWOnQ7IbZKAUxgldG5EgAAAAAAAAAAoiZ0TTyvgkaenIkgMWOKOyFuQhco3isHcEYrJQAAAAAAAACYhUYJgALcZ+1iF+JaOTgnQWLOIYaIY5j4LmizDgAAAAAAAADAyzUZzvm9ZQNeYRu6APFWKZiCIDHndBu6QHGtFADZfuAFAAAAAAAAAOB0degCxLETsQadTEaQmHNr2nHZjisnP2Bk60zOiQAAAAAAAAAAlKMJXYbuMsiOkABBYqayC9qxA+NaKgEAAAAAAABA1vaZztvvq4GviY03Y/fhmJurlYNUCBKTwonxwokRAAAAAAAAAIDP5Pq067WlAz5zFzTeJFGCxKQg7h6LbdqvM74BBDjlHAgAAAAAAAAAwPxUoQsQ3wbZOBIlSEyKJ027LoAh5LLD000iAAAAAAAAAMC81OGhuWajHKRMkJjUxEDdTTsu+pMpwLGWSgAAAAAAAACQtQ8ZztnvqqFsTegCxHHUykEOBIlJ1T487MjQrRMAAAAAAAAAgByslQCK1IQu6/Y2CBCTGUFiUlf1J9etUgAz9UEJAAAAAAAAAACyFJtk3oUu41YpBzkSJCaXk+1NsFsDeJ13SgAAAAAAAACQtUYJgEQ9DhDfKgc5EyQmt5vDy364UQSes1QCAAAAAAAAgKw1Gc7Z76ph/qrwECA+KAe5EyQmR3V/Ir5xIgZmwHkMAAAAAAAAYD7WSgCzVYUut3Yd5D2YEUFicrbtT8xbpQAytlcCAAAAAAAAAIBkVeEhQNwoB3MjSEzu4s6Om/5EXSsH8IhdngAAAAAAAAB505gJmFLdjssgQMzMCRIzF01/0r50Ewn0lkoAAAAAAAAAkLVDhnP+wbJB9urwkEWrlYO5EyRmjifxi2AXCJAP5yoAAAAAAACA+fD0XMhXHQSIKZAgMXNVhS5QfBfy3J0GlKNRAgAAAAAAAACAydRBgJiCCRIzZzFAfNuOt+3YKgcUyU5PAAAAAAAAgDzVSgCc4TwjQEzxBIkpQQwU34QuUFwpBxRlqQQAAAAAAAAAnNFKCSB5dRAgho8EiSlJ047r0AWKXQCA1G5QAQAAAAAAAMjfSgkgWXUQIIYvCBJTosYFAQAAAAAAAAAgaQclAAZSB3kxeJIgMS4Q3dgrB8zSRgkAAAAAAAAAsvS7EgAnqoMAMTxLkBi6i8RFO65D160Y4NzspAUAAAAAAADI30oJIAlVO94GAWJ4EUFi+PICIlAMnJudtAAAAAAAAAD5WykBTKoK8l/waoLE4IICAAAAAAAAAJCavRIALxCfAl0FeS84miAxPM0FBvL3XgkAAAAAAAAAsnRQAuCZc8RdkO+CkwkSw/MqFxxgZM4tAAAAAAAAAPlbKQGMrgkPAeLbYNMBnEyQGF6uCgLFwHg3uQAAAAAAAADkbaUEMJomdLktAWIYmCAxvF4VBIoBAAAAAAAAAMZUKwHQnwuuQpfXqpQDhidIDMergkAxpG6jBAAAAAAAAAAA2anacdmPnXLAeASJYZiLlkAxcIq9EgAAAAAAAABk740SwEkO4dMsVq0kML7vlAAG9692/KcdK6UA17pX+MtSAQAAAAAAAPwthgl/zHDevwVPzoVj3/M/t2Pb/xk4Ix2JYXhVsCsGAAAAAAAAAOBYnuoKZWhCl7GKGwdugxAxTEKQGMZTteOyH7VywGQ2mczTzTAAAAAAAAAAUII6dJmq2KyxUg6YliAxnO/Cd+nCB3yDHbUAAAAAAAAAeVsrATwpNlirQhce1pgREiJIDOcTL37XwU4aAAAAAAAAAIBvaTKd99LSwVffz3ehy0xdZ/z+htkSJIZpLo73geJ4kTwoCQAAAAAAAADAR38oAWSvDg8ZqdsgIwXJEiSG6TT9RTJeLG+C3TYwlk1G5wQAAAAAAAAAgJxV7bhox2Xw1HbIgiAxTC/uttmGh/b9eyWBItlRCwAAAAAAAJCvtRJQsCZ0T2b/Mcg/QXYEiSEtVXjYkVMrBwAAAAAAAABQoBxDiEvLRoHqdlyFroHibegaKgKZESSGdC+yl/1FtlIOAAAAAAAAAKAgwoiQ9vuzCl2uKeabdkoCeRMkhrQ1oWv3H9v+3/V/B17nfSbz9FgPAAAAAAAAACBVTehyTG/7r42SwDwIEkMe4k6e20cXYoFDmOf7HAAAAAAAAIA8f3+6tmzMVBU+fbK6fAPMjCAx5Hlxvugv0JVyAAAAAAAAAAAzk2ODtaVlY0aadtyE7inqselhrSQwX4LEkK86PDwu4C7Y7QM+rAEAAAAAAAAAHG/XjqvQ5ZG2QR4JivCdEsCs/Ksd/w4elwG5Xu/+slQAAAAAAAAAWWaabtvxH0tHhpp2/BK6J6M3ygEuusA8xCBxDBT/Sykgq+udIDEAAAAAAABQuiZ03VBz87/t+MnykZHYffiX/itQsIUSwCzt23Hdjh/bcRPsFgIAAAAAAAAA8tBkOu+lpSOT91fMEsWw/lUQIgaCIDHM3aEdWxd/yOYDW2OpAAAAAAAAAICBVe24DF2GKGaJGiUB7gkSQzliiPiqvyG4C13IGEqxzmSebtQBAAAAAAAAgCHEJ5rH7sPxiebxyea1kgBfI0gM5WnacesmAQAAAAAAAABI0D7TeW8sHQmIjQWrdlz0Yxs0GwSeIUgMZYs3Do8fW+DGAQAAAAAAAACY0p9KAK9Wh66h4H1jwb2SAC8lSAxETfAoA+Ztmck83cgDAAAAAAAAAC/RtOMudA0EYyPBSkmAYwgSA5+rwkOX4rv+pgNyt85knnbWAgAAAAAAAABPiU8br8JDtuc2yPYAJxIkBp7S9Dcb8abjqh07JQEAAAAAAAAARlZnOOeNZeMM74v4lPG3wdPGgYF9rwTAC+z6sWzHv9rx73aslAUAAAAAAAAAAEbRtOPn0GV2GuUAxqIjMfAa8fEI29DtbroI3aMSDspCBn7IZJ61pQIAAAAAAACAYsUcThW6XE7M58ScTqMswJgEiYFj7UP3qIQf+687JSFhayUAAAAAAAAAyEKjBBQo5m6uwkMOZ68kwLkIEgNDqPqbmbgT6sZNPQAAAAAAAABwpCbDOW8sG0eow0MTv5i70cQPmIQgMTD0zXx8pEIMFMdHLFShe+QC8DLeLwAAAAAAAAAwX7HTcGzSF7M1l0G2BkiAIDEw5o2PXVOkYpnR+wYAAAAAAAAAmI8mdI35LvqxDZ72DSTkeyUAzmDXjxjm/Kkd/27HWlk4I8cbAAAAAAAAQPo0X2IuYpfhqh2/OK6B1H2nBMBEVuEhVLxSDlzzPvrLUgEAAAAAAACFqttxmeG8f2vHxvIVL4aHY6O9X4MndwMZWSgBMJEmdI9qeBs8tgEesxMRAAAAAAAAAPJw33n4qh0/tuM6CBEDmREkBlIQg5M3oQsVX/Y3WAdlYWCrjD5kAAAAAAAAAADpimHhGBoWHgayJ0gMpKZ+dKMVd2tVQbCSYayUAAAAAAAAACBpHzKd99LSFeFxePg+0wKQve+VAEj8Buz+Juyndvyj/+oGHAAAAAAAAABIxVoJZivmVn7tv2qEB8ySjsRATjdmMVD8NngkBPP2QQkAAAAAAAAAYDJf6zwsRAzMlo7EQG4O/Q1aHLEz8eNOxfAtKyUAAAAAAAAASJqwJlMddzE8/CHoPAwUSJAYyP1Grgpfhoo3/d/hsZUSAAAAAAAAACRtn+Gc5RPydB8e/jV4KjZQOEFiYE43eFU/osedit20k9uxDAAAAAAAAEAe1kqQDeFhgK8QJAbmateP6yBUTF72SgAAAAAAAAAAg2hClx/5Jfh9PMBXCRIDJXgcKt6Eh1DxSmmK8kYJAAAAAAAAAJIm6MlQx1EdhIcBXkSQGChN3Y+b0D1e5J+hCxd71Mj8rZQAAAAAAAAAIGmHDOfsychpqNvxa+gazTXKAfBygsRAyfbhYefZKnRdimO34o3SMCEfaAAAAAAAAADyoXHZNGLovA4P4eGDkgAcR5AYoNO0Y9uPuFvwcajY7kHOfSwCAAAAAAAAAJ9qwqfhYQAGIEgM8KW4S63qRxRDxe/7ryvlyZa1AwAAAAAAAEhXrQR8RXzS9H1weK8cAMP7TgkAXiU+kmTTjn8Gjydx3RvPX5YKAAAAAAAAKEzdjssM5/3f7fgvyzeoGBr+tT8mGuUAGJcgMcDxluHTbsVLJXHdG8j/BUF1AAAAAAAAoCx1yDNI/FvoGpJxvCZ04eEP/VcAzuh7JQA42qEdVT+uQxf8/Gf/AUEIlFOPLQAAAAAAAICS+D1pWerw0HV4rxwA0xEkBhjO/tHN7Sp0geJ/9F91K05DXJdGGQAAAAAAAACS87sSzFoTPg0PC44DJEKQGGC8G+CqH9EmPASLdSuezirkEST2gQkAAAAAAAAgDysleFIddB0GSJ4gMcD5bo7juA1dd+Kf2vE+dOFiHyr43O/9MQIAAAAAAABA2lZK8FETdB0GyI4gMcD5xRvlKjx0K44dijehCxYLjwIAAAAAAABQokYJsrRrx4eg6zBAtgSJAaa378e2//umH/8IXciY4az7Dy8AAAAAAAAApKVRgizEfEMduvDwTjkA8idIDJCeuh+37ViGT7sVr5TnJEsfkAEAAAAAAAAYyKqA19iEh+BwHfw+G2B2BIkB0nYI3Q6+OG76DyGb0AWLN0GweM4fxAAAAAAAAABI22qGrynmFOrwEBzeW2aAeRMkBshL046qH/cfSjZBsBgAAAAAAACAvNVKMGnt74PD1gGgMILEAHlrwpfB4p/a8S4IFn/NOyUAAAAAAAAAoHCxy3AduvDwTjkAyiZIDDAvTTu2j/6+CjoWP7bM6EMbAAAAAAAAAGlbZTLPx8Hh+PVg6QC4J0gMMG9N+LJj8SYIFqfOhzYAAAAAAACgJLn+jnSV6LwEhwF4MUFigLI04dNgcezQuwkPweK1EgEAAAAAAABwZp7aenr96iA4DMARBIkByhY/POz6cW8THsLFMVi8nNHrFZQGAAAAAAAAIHeCwwAMRpAYgM/V/bgXw7ebdrzrv64yfm3LzNZh43AEAAAAAAAASNabM/2cOjyEhmOIWHAYgMEIEgPwnH349DEyMYy7CV3A+H0QdgUAAAAAAADgNE2m816N8D1jSLgOXXD4vvMwAIxGkBiAYz607Ppxbx0egsX3fwYAAAAAAACAl/ij4Nd+39zrQ/iy0RcAjE6QGIAhP9hUj/7bph/vQhcsXiUy13UmH7wahxUAAAAAAADA7NTh027DByUBYEqCxACM+eGnfvT3ZehCvJswbbh4mUn9/nAIAQAAAAAAACTtuaf16jYMQPIEiQE4l7iLsg5phosBAAAAAAAAmE6uAdvHjaya/nX8Hr783TgAJEuQGIApvSRcvArP7+IEAAAAAAAAIF+HTOd9F7rfd+8zfg0AFE6QGIAUPyDW4cvdmZvQhYrvOxfHsTzi+69DHjs/PdIGAAAAAAAAIG23SgBA7gSJAchF/ZX/turHph1vHv35W5aZvF67VQEAAAAAAAAAgFEJEgOQs6Yf9Wf/fRVeHzAGAAAAAAAAYBq1EgDANL5TAgAKsuxHk8FcN+34zZIBAAAAAAAABZBhAgAXYQDgM38pAQAAAAAAAFAAGSYAcBEGAD4jSAwAAAAAAADMXdOOt8oAANNYKAEAAAAAAAAAADCRRgkAYDqCxACQroMSAAAAAAAAAAAAYxEkBoB07ZUAAAAAAAAAAAAYiyAxAAAAAAAAAAAwFQ2WAGBCgsQAAAAAAAAAAMBU/lQCAJiOIDEApMvOWwAAAAAAAAAAYDSCxACQLjtvAQAAAAAAAACA0QgSAwAAAAAAAAAAU6mVAACmI0gMAAAAAAAAAAAAAAUSJAaAdNVKAAAAAAAAAAAAjEWQGAAAAAAAAAAAmMpBCQBgOoLEAAAAAAAAAADAVPZKAADTESQGgHTZeQsAAAAAAAAAAIzmOyUAgKT9pQQAAAAAAADAjMkvAYALMQDwBEFiAAAAAAAAYK727bhQBgCYzkIJAAAAAAAAAACACRyUAACmJUgMAGlrlAAAAAAAAAAAABiDIDEApK1RAgAAAAAAAAAAYAyCxAAAAAAAAAAAwBQ+KAEATEuQGAAAAAAAAAAAAAAKJEgMAGmzAxcAAAAAAAAAABiFIDEAAAAAAAAAADCFgxIAwLQEiQEAAAAAAAAAgCnslQAAAAAAAAAAAAAAAAAAAAAAAAAAAAAAAAAAAAAAAAAAAAAAAAAAAAAAAAAAAAAAAAAAAAAAAAAAAAAAAAAAAAAAAAAAAAAAAAAAAAAAAAAAAAAAAAAAAAAAAAAAAAAAAAAAAAAAAAAAAAAAAAAAAAAAAAAAAAAAAAAAAAAAAAAAAAAAAAAAAAAAAAAAAAAAAAAAAAAAAAAAAAAAAAAAAAAAAAAAAAAAAAAAAAAAAAAAAAAAAAAAAAAAAAAAAAAAAAAAAAAAAAAAAAAAAAAAAAAAAAAAAAAAAAAAAAAAAAAAAAAAAAAAAAAAAAAAAAAAAAAAAAAAAAAAAAAAAAAAAAAAAAAAAAAAAAAAAAAAAAAAAAAAAAAAAAAAAAAAAAAAAAAAAAAAAAAAAAAAAAAAAAAAAAAAAAAAAID/b+9ubBq5ojAMe1wB7mDoAFcQtoNNKVtBUsK2QAVrV8B1BTtU4EkFuANyLYxEUJYY45/cc55HOg280grN8s0AAAAAAAAAAAAAAAAAAAAAAAAAAAAAAAAAAAAAAAAAAAAAAAAAAAAAAAAAAAAAAAAAAAAAAAAAAAAAAAAAAAAAAAAAAAAAAAAAAAAAAAAAAAAAAAAAAAAAAAAAAAAAAAAAAAAAAAAAAAAAAAAAAAAAAAAAAAAAAAAAAAAAAAAAAAAAAAAAAAAAAAAAAAAAAAAAAAAAAAAAAAAAAAAAAAAAAAAAAAAAAAAAAAAAAAAAAAAAAAAAAAAAAAAAAAAAAAAAAAAAAAAAAAAAAAAAAAAAAAAAAAAAAAAAAAAAAAAAAAAAAAAAAAAAAAAAAAAAAAAAAAAAAAAAAAAAAAAAAAAAAAAAAAAAAAAAAAAAAAAAAAAAAAAAAAAAAAAAAAAAAAAAAAAAAAAAAAAAAAAAAAAAAAAAAAAAAAAAAAAAAAAAAAAAAAAAAADv6yQAgDD63QEAAAAAAABcylBvIwMAtMGQGADi+LPeHzIAAAAAAAAAF/SlXpEBANowlQAAAAAAAAAAADiSWwkAoB2GxAAAAAAAAAAAAACQkCExAAAAAAAAAABwLEUCAGiHITEAxDFKAAAAAAAAAAAA7MuQGADiGCUAAAAAAAAAAAD21UkAAGHc1PspAwAAAAAAAHBB9kgA4Ac3AHAhTxIAAAAAAAAAF7KpN5MBANoxlQAAQhklAAAAAAAAAC5kkAAA2mJIDACxjBIAAAAAAAAAF2JIDACNMSQGAA/mAAAAAAAAAMfwlwQA0BZDYgCI5UECAAAAAAAA4EJ8+AgAGtNJAACh3Na7lwEAAAAAAAC4AFskAPDDGwC4sCcJAAAAAAAAgDPbfo14LgMAtGUqAQCEfEAHAAAAAAAAOCe/pwSABhkSA4AHdAAAAAAAAIDPepAAANpjSAwAHtABAAAAAAAAPqtIAADt6SQAgHBu693LAAAAAAAAAJyRHRIA+AEOAPxPPEkAAAAAAAAAnEmp90UGAGjPVAIACGmQAAAAAAAAADiTlQQA0CZDYgCIyZAYAAAAAAAAOJciAQC0yZAYAGJ6kAAAAAAAAAA4Ex86AoBGGRIDQExFAgAAAAAAAOAMtiPijQwA0CZDYgCI+7AOAAAAAAAAcGpFAgBolyExAHhgBwAAAAAAADjUSgIAaJchMQB4YAcAAAAAAAA4VJEAANplSAwAHtgBAAAAAAAADjHU28gAAO0yJAaA2A/tAAAAAAAAAKeylAAA2mZIDABxbd/8NSYGAAAAAAAATqVIAABtMyQGAA/uAAAAAAAAAIcoEgBA2wyJASC2BwkAAAAAAACAE1hIAADtMyQGgNiKBAAAAAAAAMAJrCQAgPZ1EgBAeOt6vQwAAAAAAADAEc3rDTIAQNt8kRgA4isSAAAAAAAAAEe0mRgRA0AIhsQAEJ8/KQQAAAAAAAAc00ICAIjBkBgA4isSAAAAAAAAAEfkY0YAEEQnAQCksK7XywAAAAAAAAAcwazeRgYAaJ8vEgNADkUCAAAAAAAA4AiGiRExAIRhSAwAOfjTQgAAAAAAAMAxLCUAgDg6CQAghb7eWgYAAAAAAADgk+aT568SAwABGBIDQB7bIXEvAwAAAAAAAHCgTb2ZDAAQx1QCAEijSAAAAAAAAAB8wkICAIjFkBgA8lhJAAAAAAAAAHyC3zkCQDCdBACQRl9vLQMAAAAAAABwoFm9jQwAEIchMQDksh0S9zIAAAAAAAAAHzTUm8sAALFMJQCAVIoEAAAAAAAAwAGWEgBAPIbEAJDLSgIAAAAAAADgAAsJACCeTgIASKWvt5YBAAAAAAAA+ICx3rUMABCPLxIDQL4H/FEGAAAAAAAA4AOKBAAQkyExAHjIBwAAAAAAAHjPUgIAiKmTAADS+VrvhwwAAAAAAADAnmyMAMAPeQAgiKt6jzIAAAAAAAAAe1jU+10GAIhpKgEApLOpN8gAAAAAAAAA7GEpAQDEZUgMADkVCQAAAAAAAIA9FAkAIC5DYgDIaSUBAAAAAAAA8B+2f+l0lAEA4uokAIC0niQAAAAAAAAA3vGt3ncZACAuXyQGgLyKBAAAAAAAAMA7igQAEJshMQDktZIAAAAAAAAA+IWx3iADAMRmSAwAeS0kAAAAAAAAAH7B7xMBIIFOAgBI7bHelQwAAAAAAADAG1/qFRkAIDZDYgDI7Ue9rzIAAAAAAAAAr2zqzWQAgPimEgBAaksJAAAAAAAAgDcWEgBADobEAJBbkQAAAAAAAAB4wweJACCJTgIASG9dr5cBAAAAAAAA2JnV28gAAPH5IjEA4M8SAQAAAAAAAC+2vz80IgaAJAyJAYCVBAAAAAAAAMDOUgIAyKOTAADSu6r3KAMAAAAAAABQzSa+SAwAafgiMQCw/U+AIgMAAAAAAACkVyZGxACQiiExALC1kgAAAAAAAADSW0oAALl0EgAA1U29nzIAAAAAAABAatf1RhkAIA9DYgDgxWO9KxkAAAAAAAAgpaHeXAYAyGUqAQCwUyQAAAAAAACAtO4kAIB8DIkBgBdLCQAAAAAAACCthQQAkE8nAQCw09dbywAAAAAAAADpDPXmMgBAPr5IDAC8GCfP/0EAAAAAAAAA5FIkAICcDIkBgNeKBAAAAAAAAJDOnQQAkFMnAQDwym29exkAAAAAAAAgjbHetQwAkJMvEgMAr5V6GxkAAAAAAAAgjYUEAJCXITEA8FaRAAAAAAAAANK4kwAA8jIkBgDeWkkAAAAAAAAAKYz1BhkAIC9DYgDgLX+6CAAAAAAAAHLwu0EASK6TAAD4F7cS/MNNvSsZwvtNgvCudv+eAQAAAACAZ/OJLxIDQGqGxAAAAETS747YvOSTg5d84vOSDwAAAFzWWO9aBgDIzZAYAAAAAIBT6Sde8snASz45eMknPi/5AEA+3+t9kwEAcjMkBgAAAAAAAMihn3jJJwMv+eTgJZ/4zvGSz7zeIDUA5PY3lBnGsxVBFBcAAAAASUVORK5CYII=;" parent="qmw6B0IrS7JW3fWLSJjM-14" vertex="1">
          <mxGeometry x="27.5" y="4" width="65" height="78" as="geometry" />
        </mxCell>
        <mxCell id="lp30ke_QN_qT75AE9xBC-3" value="Attacker" style="text;html=1;strokeColor=none;fillColor=none;align=center;verticalAlign=middle;whiteSpace=wrap;rounded=0;fontColor=#FC003A;" parent="qmw6B0IrS7JW3fWLSJjM-14" vertex="1">
          <mxGeometry x="30" y="78" width="60" height="30" as="geometry" />
        </mxCell>
      </root>
    </mxGraphModel>
  </diagram>
</mxfile>
